<svg xmlns="http://www.w3.org/2000/svg" width="197" height="293.635"><path d="M147.932 19.605c6.381 8.856 11.141 21.473 14.284 37.852 3.332 16.759 3.188 28.804-.429 36.137-3.236 6.57-4.475 14.665-3.713 24.282.667 7.903 2.047 13.475 4.143 16.713 2.096 3.237 3.477 2.57 4.143-2.001 2.285 4.477 1 7.095-3.857 7.857-2.568.475-4.189 0-4.857-1.43l-.285-2.284c-1.144 2.951-13.926 26.811-52.42 26.853-76.467-1.428-64.133-36.804-74.132-80.988-4.762-20.949-2.237-38.708 7.571-53.278 6.948-10.38 16.615-18.235 28.993-23.568C79.37.798 88.604.703 95.082 5.464 99.08.703 107.27-.249 119.648 2.607c12.856 3.048 22.284 8.714 28.284 16.998z"/><path d="M19.306 108.592c.089 1.367.731 2.464 1.93 3.285 1.429 1.143 3.047 1.381 4.854.714 4.762-1.903 6.093-8.093 4-18.568-5.239-26.567-3.046-46.517 6.57-59.848 4.762-6.666 10.046-10.712 15.854-12.141-15.14 22.377-22.475 39.898-21.995 52.563.19 6.381 1.046 15.902 2.569 28.567.572 9.618-1.096 14.712-5 15.284-6.07.906-8.997-2.379-8.782-9.856z"/><path fill="#FFF" d="M66.944 284.142c-2.762-1.718-4-3.525-3.716-5.429l5.998-7.571 23.998-.568 3.571 5.568c3.047 7.426-1.997 11.143-15.14 11.143-6.475-.001-11.38-1.05-14.711-3.143z"/><path fill="none" stroke="#000" stroke-width="5.713" stroke-miterlimit="3" d="M66.944 284.142c3.331 2.094 8.235 3.143 14.71 3.143 13.143 0 18.187-3.717 15.14-11.143l-3.571-5.568-23.998.568-5.998 7.571c-.283 1.903.956 3.711 3.717 5.429z"/><path fill="#FFF" d="M131.218 278.713c.288 1.902-.903 3.711-3.571 5.429-3.426 2.094-8.33 3.143-14.711 3.143-12.949 0-18.043-3.717-15.282-11.143l3.713-5.568 23.854.568 2.856 2.713c2 2.097 3.047 3.714 3.141 4.858z"/><path fill="none" stroke="#000" stroke-width="5.713" stroke-miterlimit="3" d="M131.218 278.713c.288 1.902-.903 3.711-3.571 5.429-3.426 2.094-8.33 3.143-14.711 3.143-12.949 0-18.043-3.717-15.282-11.143l3.713-5.568 23.854.568 2.856 2.713c2 2.097 3.047 3.714 3.141 4.858z"/><path fill="#FFF" d="M96.226 204.868c-.859 0-1.428 4.234-1.716 12.711-.288 9.809-.427 14.758-.427 14.854-.382 1.907.521 14.094 2.711 36.567 2.285-22.476 3.239-34.66 2.856-36.567 0-18.375-.761-27.563-2.284-27.563l-1.14-.002zm24.567-13.146c1.428 3.717 2.189 7.287 2.285 10.713.189 5.523-.572 14.998-2.285 28.428-.189 3.143 2.236 15.662 7.284 37.568.284 1.334-1.571 2.995-5.571 4.998-4.096 1.998-8.141 3.188-12.141 3.571-3.903.284-7.189-.479-9.856-2.287-2.455-1.702-3.694-3.532-3.713-5.502-.02 1.97-1.255 3.8-3.713 5.502-2.667 1.808-5.951 2.571-9.856 2.287-4-.385-7.998-1.618-11.996-3.716-3.906-2.094-5.713-3.855-5.429-5.284 4.949-20.951 7.331-32.997 7.142-36.14-1.713-14.094-2.478-23.902-2.288-29.426.095-3.427.809-6.998 2.143-10.713l2.003-4.57h43.992l1.999 4.571z"/><path fill="none" stroke="#000" stroke-width="5.713" stroke-miterlimit="3" d="M96.226 204.868c-.859 0-1.428 4.234-1.716 12.711-.288 9.809-.427 14.758-.427 14.854-.382 1.907.521 14.094 2.711 36.567 2.285-22.476 3.239-34.66 2.856-36.567 0-18.375-.761-27.563-2.284-27.563l-1.14-.002h0zm24.567-13.146c1.428 3.717 2.189 7.287 2.285 10.713.189 5.523-.572 14.998-2.285 28.428-.189 3.143 2.236 15.662 7.284 37.568.284 1.334-1.571 2.995-5.571 4.998-4.096 1.998-8.141 3.188-12.141 3.571-3.903.284-7.189-.479-9.856-2.287-2.455-1.702-3.694-3.532-3.713-5.502-.02 1.97-1.255 3.8-3.713 5.502-2.667 1.808-5.951 2.571-9.856 2.287-4-.385-7.998-1.618-11.996-3.716-3.906-2.094-5.713-3.855-5.429-5.284 4.949-20.951 7.331-32.997 7.142-36.14-1.713-14.094-2.478-23.902-2.288-29.426.095-3.427.809-6.998 2.143-10.713l2.003-4.57h43.992l1.999 4.571zM96.795 269v.212"/><path fill="#FFF" d="M25.83 191.207l2.641-2.608-9.296-9.646-7.825-.688c-1.756 3.278-1.399 4.934 1.078 4.959 1.837-.025 2.727.385 2.654 1.234.022.812-.777 1.752-2.397 2.82-1.128.765-2.72.894-4.776.394-1.558-.298-2.28-.056-2.17.72.466 2.18 1.574 4.145 3.309 5.903 2.488 2.592 5.362 3.226 8.63 1.899 3.175-1.282 5.896-2.948 8.152-4.987z"/><path fill="none" stroke="#000" stroke-width="2.857" stroke-miterlimit="3" d="M25.83 191.207l2.641-2.608-9.296-9.646-7.825-.688c-1.756 3.278-1.399 4.934 1.078 4.959 1.837-.025 2.727.385 2.654 1.234.022.812-.777 1.752-2.397 2.82-1.128.765-2.72.894-4.776.394-1.558-.298-2.28-.056-2.17.72.466 2.18 1.574 4.145 3.309 5.903 2.488 2.592 5.362 3.226 8.63 1.899 3.175-1.282 5.896-2.948 8.152-4.987z"/><path fill="#FFF" d="M191.893 179.428c.059-.784-.68-.979-2.213-.583-2.08.521-3.658.454-4.746-.207-1.718-.867-2.594-1.707-2.627-2.519-.096-.935.777-1.445 2.612-1.546 2.442-.102 2.687-1.771.747-5.018-.6.303-3.201.748-7.807 1.338l-8.592 10.104 2.764 2.562c2.386 1.89 5.209 3.371 8.463 4.444 3.348 1.103 6.177.279 8.488-2.469 1.645-1.963 2.622-3.997 2.911-6.106z"/><path fill="none" stroke="#000" stroke-width="2.857" stroke-miterlimit="3" d="M191.893 179.428c-.287 2.108-1.266 4.144-2.91 6.109-2.312 2.748-5.141 3.569-8.487 2.469-3.254-1.073-6.077-2.556-8.463-4.444L169.268 181l8.592-10.104c4.605-.59 7.207-1.035 7.808-1.338 1.938 3.245 1.694 4.916-.747 5.018-1.835.101-2.708.611-2.611 1.546.032.812.908 1.651 2.627 2.519 1.086.661 2.666.729 4.746.207 1.53-.399 2.267-.204 2.21.58z"/><path fill="#FFF" d="M176.92 165.026c1.816 1.561.68 5.32-3.423 11.273-4.156 5.753-7.675 7.622-10.556 5.607-22.746-17.904-41.481-28.274-43.004-29.607-1.239-1.047-2.24 3.762-3.002 14.426-.856 10.573-.428 16.762 1.285 18.568 1.618 1.719-.619 3.053-6.712 4.001-4.667.765-9.571 1.099-14.713.999h-.284c-5.145.1-10.049-.234-14.713-.999-6.093-.948-8.331-2.282-6.712-4.001 1.713-1.809 2.143-7.995 1.283-18.568-.759-10.664-1.76-15.473-2.996-14.426-1.526 1.333-17.691 13.279-38.22 33.684-2.63 2.332-6.3.91-11.015-4.269-4.838-5.496-6.443-9.131-4.817-10.889l40.622-29.382c4.008-3.208 6.573-8.284 15.143-11.427 4.285-1.619 8.425-2.762 12.426-3.429l19.424-.284 11 3.141c7.81 2.953 12.617 6.524 14.426 10.713 1.906 4.001 7.457 3.848 21.283 11.321 13.96 7.615 21.716 12.132 23.275 13.548z"/><path fill="none" stroke="#000" stroke-width="5.713" stroke-miterlimit="3" d="M176.92 165.026c1.816 1.561.68 5.32-3.423 11.273-4.156 5.753-7.675 7.622-10.556 5.607-22.746-17.904-41.481-28.274-43.004-29.607-1.239-1.047-2.24 3.762-3.002 14.426-.856 10.573-.428 16.762 1.285 18.568 1.618 1.719-.619 3.053-6.712 4.001-4.667.765-9.571 1.099-14.713.999h-.284c-5.145.1-10.049-.234-14.713-.999-6.093-.948-8.331-2.282-6.712-4.001 1.713-1.809 2.143-7.995 1.283-18.568-.759-10.664-1.76-15.473-2.996-14.426-1.526 1.333-17.691 13.279-38.22 33.684-2.63 2.332-6.3.91-11.015-4.269-4.838-5.496-6.443-9.131-4.817-10.889l44.321-32.361c3.858-2.733 2.874-5.305 11.444-8.447 4.285-1.619 8.425-2.762 12.426-3.429l19.424-.284 11 3.141c7.81 2.953 21.883 14.561 35.709 22.034 13.96 7.614 21.716 12.131 23.275 13.547z"/><path fill="#FFF" d="M86.512 130.59v-12.285h20.423v12.285c-2.475 1.236-5.902 1.809-10.283 1.713l-10.14-1.713z"/><path fill="none" stroke="#000" stroke-width="5.713" stroke-miterlimit="3" d="M86.512 130.59v-12.285h20.423v12.285s-5.746 1.756-10.283 1.713c-4.535-.044-10.14-1.713-10.14-1.713z"/><path fill="#FFF" stroke="#000" stroke-width="2.857" stroke-miterlimit="10" d="M160.5 73.883c1.525 3.713.572 8.522-2.857 14.426-3.619 6.19-7.809 8.904-12.567 8.143l2.856-23.711.571-1.286 4.999-1.286c3.523-.285 5.857.953 6.998 3.714z"/><path fill="#FFF" d="M149.073 62.457c0 1.904-.667 8.476-1.998 19.711-1.333 11.808-2.335 18.76-3.002 20.854-1.235 4.001-6.665 8.381-16.281 13.142-10.571 5.237-19.892 7.948-30.841 8.232-10.95-.286-23.294-3.139-33.865-8.375-9.616-4.762-15.045-9.142-16.284-13.141-.667-2.285-1.713-9.427-3.141-21.426-1.429-11.808-2.048-18.664-1.858-20.569.762-13.331 6.238-24.567 16.426-33.709 10.188-9.142 22.569-13.712 37.138-13.712 14.855 0 27.521 4.809 37.994 14.426 10.475 9.523 15.712 21.044 15.712 34.567z"/><path fill="none" stroke="#000" stroke-width="5.713" stroke-miterlimit="3" d="M149.073 62.457c0-13.522-5.236-25.044-15.712-34.567-10.473-9.618-23.139-14.426-37.994-14.426-14.568 0-26.949 4.57-37.138 13.712-10.188 9.142-15.665 20.378-16.426 33.709-.189 1.905.43 8.762 1.858 20.569 1.428 11.999 2.474 19.141 3.141 21.426 1.239 3.999 6.667 8.379 16.284 13.141 10.571 5.236 21.331 7.998 32.281 8.284h0c10.949-.284 21.855-2.904 32.426-8.142 9.616-4.761 15.045-9.141 16.281-13.142.667-2.094 1.668-9.046 3.002-20.854 1.33-11.235 1.997-17.806 1.997-19.71z"/><path d="M153.503 62.884c.951 6-3.429 8.999-13.144 8.999-6.092 0-12.235-8.189-18.426-24.568l-7.427-24.567c.667 4.189-1.76 7.856-7.284 10.997 3.236-7.142 2.668-11.617-1.715-13.426-2.759-1.142-5.379-1.191-7.854-.144l-2.856 1.858c-4.86-2.286-9.24-2.523-13.143-.714-3.998 1.904-7.189 6.379-9.572 13.426-3.236 9.142-3.761 20.235-1.568 33.28-6.857-10.379-8.001-24.33-3.431-41.851-3.142.953-6.333 3.618-9.569 8-6.38 8.855-9.854 21.997-10.428 39.422-.569 17.427 1.333 31.615 5.713 42.565 2.193 5.523 4.43 9.284 6.715 11.284-3.333-2.095-6.81-5.808-10.425-11.141-7.142-10.57-11.237-23.664-12.286-39.28l14.284-53.279 22.569-12.711L98.224 7.32l21.424 5.143 7.285 8.427 16.713 9 8.283 17.569 9.141 11.855c2.096 3.713 1.619 14.664-1.428 32.853l-7 2.499c2.115-1.648 3.924-4.481 5.43-8.499 2-5.332 2.998-10.808 2.998-16.426 0-3.428-1.238-5.619-3.713-6.57l-3.854-.287z"/><path d="M69.801 79.597c0-4.763 1.378-7.143 4.14-7.143 2.762 0 4.143 2.38 4.143 7.143 0 4.855-1.381 7.284-4.143 7.284-2.762 0-4.14-2.428-4.14-7.284z"/><path fill="none" stroke="#000" stroke-width="3" stroke-miterlimit="10" d="M70.303 81.597c0-2.775 1.212-4.162 3.639-4.162 2.428 0 3.64 1.387 3.64 4.162m34.072 0c0-2.775 1.211-4.162 3.639-4.162s3.639 1.387 3.639 4.162"/><path d="M111.079 79.597c0-4.763 1.381-7.143 4.144-7.143 2.855 0 4.284 2.38 4.284 7.143 0 4.855-1.429 7.284-4.284 7.284-2.763 0-4.144-2.428-4.144-7.284z"/><path fill="none" stroke="#000" stroke-width="2.857" stroke-miterlimit="3" d="M104.367 91.594c0 3.904-2.999 5.857-9 5.857-6.093 0-9.139-1.953-9.139-5.857"/><path fill="#FFBFDF" d="M50.945 87.309c0-2.761 3.046-4.142 9.142-4.142 5.998 0 9 1.381 9 4.142 0 2.762-3.002 4.143-9 4.143-6.096 0-9.142-1.381-9.142-4.143zm79.416-4.142c6 0 9 1.381 9 4.142 0 2.762-2.998 4.143-9 4.143-5.998 0-8.996-1.381-8.996-4.143 0-2.761 2.998-4.142 8.996-4.142z"/></svg>