<svg xmlns="http://www.w3.org/2000/svg" viewBox="0 0 79.6 77.8"><path d="M14.3 11.8h.3l9.9 2.6-.3-.3c-.1-.1-.2-.2-.2-.3l-4.6-6 1-.8 6.5 8.5-.6.5c-.1.1-.2.1-.3.1h-.3l-9.9-2.6c.1.1.2.2.2.3.1.1.1.2.2.3l4.7 6.1-1 .8-6.5-8.5.6-.5c.1-.2.2-.2.3-.2zM31.8 14l-1.4.4-3.2-10.2 1.4-.4L31.8 14zm2.6-11.8h1.2c.1 0 .2 0 .3.1 0 .1.1.1.1.2l2.9 7.6c.1.2.1.4.2.6.1.2.1.4.2.6 0-.2.1-.4.2-.6.1-.2.1-.4.2-.6l3.1-7.5c0-.1.1-.2.2-.2s.2-.1.3-.1h1.2L39.9 13h-1.3L34.4 2.2zm21.9 4.3l-.5 1.1-4.8-2-1.4 3.3 3.8 1.6-.4 1-3.8-1.6-1.4 3.4 4.7 2-.5 1.1-6-2.6 4.2-9.9 6.1 2.6zm0 11.8l3.4 3.2-.8.9-4.4-4.2 7.4-7.8 1.1 1-6.7 6.9zM20.1 55.5c.1.1.1.1.1.2s.1.1.1.2v.3l.2 8.4c.1-.2.2-.4.3-.5.1-.2.2-.3.3-.5l3.5-4.6 1.8 1.4-6.5 8.6-1.1-.8c-.2-.1-.3-.2-.3-.4-.1-.1-.1-.3-.1-.5l-.2-8.3c-.1.2-.2.3-.3.5-.1.2-.2.3-.3.4L14 64.6l-1.8-1.4 6.6-8.7 1.1.8c.1.1.2.1.2.2zm7.8 16.7l-2.4-.8L29 61l2.4.8-3.5 10.4zm7.7-9.3c.1 0 .1 0 .2.1.1 0 .1.1.2.1l.2.2 5.1 6.7v-1.2l.1-5.8h2.2l-.3 11H42c-.2 0-.4 0-.5-.1s-.3-.2-.4-.3l-5-6.6v1.1l-.1 5.7h-2.2l.2-10.9h1.6zm16.9 4.4c.2.6.3 1.1.3 1.6s-.1 1-.2 1.4-.5.8-.8 1.2c-.4.3-.9.6-1.5.8-.3.1-.5.2-.8.2-.3.1-.6.1-.9.1l-.3-1.4v-.3c.1-.1.2-.2.3-.2.1 0 .2 0 .3-.1.1 0 .3-.1.4-.1l.6-.3c.2-.1.3-.3.3-.5.1-.2.1-.4.1-.7 0-.3-.1-.6-.2-.9l-2.3-6.6 2.4-.8 2.3 6.6zM67 62.5l-1.6 1.2c-.2.1-.3.2-.5.2s-.3 0-.5-.1l-1.7-1.1-3.3 2.5.7 1.9v.5c0 .2-.2.3-.3.5l-1.6 1.2L54.9 58l2.1-1.6 10 6.1zm-8.1 1l2.4-1.8-2.6-1.8c-.2-.1-.4-.2-.6-.4-.2-.2-.5-.3-.7-.5.1.3.2.6.3.8.1.3.2.5.2.7l1 3z"/></svg>