<svg xmlns="http://www.w3.org/2000/svg" width="197" height="293.635" viewBox="0 0 197 293.635"><path d="M147.932 19.605c6.38 8.856 11.14 21.473 14.284 37.852 3.332 16.76 3.188 28.804-.43 36.137-3.235 6.57-4.474 14.665-3.712 24.282.667 7.903 2.047 13.475 4.143 16.713 2.096 3.236 3.477 2.57 4.143-2.002 2.285 4.477 1 7.095-3.857 7.857-2.568.475-4.19 0-4.857-1.43l-.285-2.284c-1.143 2.952-13.925 26.812-52.42 26.854-76.466-1.428-64.132-36.804-74.13-80.988-4.763-20.95-2.238-38.708 7.57-53.278 6.948-10.38 16.615-18.235 28.993-23.568C79.37.798 88.603.703 95.083 5.464 99.08.704 107.27-.25 119.647 2.607c12.856 3.048 22.284 8.714 28.284 16.998z"/><path d="M19.306 108.592c.09 1.367.73 2.464 1.93 3.285 1.43 1.143 3.047 1.38 4.854.714 4.762-1.902 6.093-8.092 4-18.567-5.24-26.567-3.046-46.517 6.57-59.848 4.762-6.666 10.046-10.712 15.854-12.14C37.374 44.41 30.04 61.93 30.52 74.596c.19 6.38 1.045 15.902 2.568 28.567.572 9.618-1.096 14.712-5 15.284-6.07.906-8.997-2.38-8.782-9.856z"/><path fill="#FFF" d="M66.944 284.142c-2.762-1.718-4-3.525-3.716-5.43l5.998-7.57 23.998-.568 3.57 5.568c3.048 7.426-1.996 11.143-15.14 11.143-6.474 0-11.38-1.05-14.71-3.143z"/><path fill="none" stroke="#000" stroke-width="5.713" stroke-miterlimit="3" d="M66.944 284.142c3.33 2.094 8.235 3.143 14.71 3.143 13.143 0 18.187-3.717 15.14-11.143l-3.57-5.568-24 .568-5.997 7.57c-.283 1.904.956 3.712 3.717 5.43z"/><path fill="#FFF" d="M131.218 278.713c.288 1.902-.903 3.71-3.57 5.43-3.427 2.093-8.33 3.142-14.712 3.142-12.95 0-18.043-3.717-15.282-11.143l3.713-5.568 23.854.568 2.857 2.713c2 2.097 3.047 3.714 3.14 4.858z"/><path fill="none" stroke="#000" stroke-width="5.713" stroke-miterlimit="3" d="M131.218 278.713c.288 1.902-.903 3.71-3.57 5.43-3.427 2.093-8.33 3.142-14.712 3.142-12.95 0-18.043-3.717-15.282-11.143l3.713-5.568 23.854.568 2.857 2.713c2 2.097 3.047 3.714 3.14 4.858z"/><path fill="#FFF" d="M96.226 204.868c-.86 0-1.428 4.234-1.716 12.71-.288 9.81-.427 14.76-.427 14.855-.382 1.907.52 14.094 2.71 36.567 2.286-22.476 3.24-34.66 2.857-36.567 0-18.375-.76-27.563-2.284-27.563l-1.14-.002zm24.567-13.146c1.428 3.717 2.19 7.287 2.285 10.713.19 5.523-.572 14.998-2.285 28.428-.19 3.143 2.236 15.662 7.284 37.568.284 1.335-1.57 2.996-5.57 5-4.097 1.997-8.142 3.187-12.142 3.57-3.903.284-7.19-.48-9.856-2.287-2.456-1.702-3.695-3.532-3.714-5.502-.02 1.97-1.255 3.8-3.713 5.503-2.667 1.808-5.95 2.57-9.856 2.287-4-.385-7.998-1.618-11.996-3.716-3.905-2.094-5.712-3.855-5.428-5.284 4.95-20.95 7.33-32.997 7.142-36.14-1.713-14.094-2.478-23.902-2.288-29.426.095-3.427.81-6.998 2.143-10.713l2.002-4.57h43.992l2 4.572z"/><path fill="none" stroke="#000" stroke-width="5.713" stroke-miterlimit="3" d="M96.226 204.868c-.86 0-1.428 4.234-1.716 12.71-.288 9.81-.427 14.76-.427 14.855-.382 1.907.52 14.094 2.71 36.567 2.286-22.476 3.24-34.66 2.857-36.567 0-18.375-.76-27.563-2.284-27.563l-1.14-.002zm24.567-13.146c1.428 3.717 2.19 7.287 2.285 10.713.19 5.523-.572 14.998-2.285 28.428-.19 3.143 2.236 15.662 7.284 37.568.284 1.335-1.57 2.996-5.57 5-4.097 1.997-8.142 3.187-12.142 3.57-3.903.284-7.19-.48-9.856-2.287-2.456-1.702-3.695-3.532-3.714-5.502-.02 1.97-1.255 3.8-3.713 5.503-2.667 1.808-5.95 2.57-9.856 2.287-4-.385-7.998-1.618-11.996-3.716-3.905-2.094-5.712-3.855-5.428-5.284 4.95-20.95 7.33-32.997 7.142-36.14-1.713-14.094-2.478-23.902-2.288-29.426.095-3.427.81-6.998 2.143-10.713l2.002-4.57h43.992l2 4.572zM96.795 269v.212"/><path fill="#FFF" d="M25.83 191.207l2.64-2.608-9.295-9.647-7.825-.688c-1.756 3.278-1.4 4.934 1.078 4.96 1.837-.026 2.727.384 2.654 1.233.022.812-.777 1.752-2.397 2.82-1.128.765-2.72.894-4.776.394-1.56-.298-2.28-.056-2.17.72.465 2.18 1.573 4.145 3.308 5.903 2.488 2.592 5.362 3.226 8.63 1.9 3.175-1.283 5.896-2.95 8.152-4.988z"/><path fill="none" stroke="#000" stroke-width="2.857" stroke-miterlimit="3" d="M25.83 191.207l2.64-2.608-9.295-9.647-7.825-.688c-1.756 3.278-1.4 4.934 1.078 4.96 1.837-.026 2.727.384 2.654 1.233.022.812-.777 1.752-2.397 2.82-1.128.765-2.72.894-4.776.394-1.56-.298-2.28-.056-2.17.72.465 2.18 1.573 4.145 3.308 5.903 2.488 2.592 5.362 3.226 8.63 1.9 3.175-1.283 5.896-2.95 8.152-4.988z"/><path fill="#FFF" d="M191.893 179.428c.06-.784-.68-.98-2.213-.583-2.08.52-3.658.454-4.746-.207-1.718-.867-2.594-1.707-2.627-2.52-.096-.934.777-1.444 2.612-1.545 2.44-.102 2.686-1.77.746-5.018-.6.303-3.2.748-7.807 1.338l-8.593 10.104 2.764 2.562c2.387 1.89 5.21 3.37 8.464 4.443 3.348 1.103 6.177.28 8.488-2.47 1.645-1.962 2.622-3.996 2.91-6.105z"/><path fill="none" stroke="#000" stroke-width="2.857" stroke-miterlimit="3" d="M191.893 179.428c-.287 2.108-1.266 4.144-2.91 6.11-2.312 2.747-5.14 3.568-8.487 2.468-3.254-1.073-6.077-2.556-8.463-4.444L169.268 181l8.592-10.104c4.605-.59 7.207-1.035 7.808-1.338 1.938 3.245 1.694 4.916-.747 5.018-1.834.1-2.707.61-2.61 1.546.032.812.908 1.65 2.627 2.52 1.086.66 2.666.728 4.746.206 1.53-.4 2.267-.204 2.21.58z"/><path fill="#FFF" d="M176.92 165.026c1.816 1.56.68 5.32-3.423 11.273-4.156 5.752-7.675 7.62-10.556 5.606-22.745-17.904-41.48-28.274-43.003-29.607-1.24-1.048-2.24 3.76-3.002 14.425-.856 10.573-.428 16.762 1.285 18.568 1.618 1.72-.62 3.053-6.712 4-4.667.766-9.57 1.1-14.713 1h-.284c-5.144.1-10.048-.234-14.712-1-6.093-.947-8.33-2.28-6.712-4 1.713-1.81 2.143-7.995 1.283-18.568-.76-10.664-1.76-15.473-2.997-14.426-1.526 1.332-17.69 13.278-38.22 33.683-2.63 2.332-6.3.91-11.015-4.27-4.838-5.495-6.443-9.13-4.817-10.888l40.623-29.382c4.008-3.208 6.573-8.284 15.143-11.427 4.285-1.62 8.425-2.762 12.426-3.43l19.424-.283 11 3.14c7.81 2.954 12.617 6.525 14.426 10.714 1.906 4 7.457 3.848 21.283 11.32 13.96 7.616 21.716 12.133 23.275 13.55z"/><path fill="none" stroke="#000" stroke-width="5.713" stroke-miterlimit="3" d="M176.92 165.026c1.816 1.56.68 5.32-3.423 11.273-4.156 5.752-7.675 7.62-10.556 5.606-22.745-17.904-41.48-28.274-43.003-29.607-1.24-1.048-2.24 3.76-3.002 14.425-.856 10.573-.428 16.762 1.285 18.568 1.618 1.72-.62 3.053-6.712 4-4.667.766-9.57 1.1-14.713 1h-.284c-5.144.1-10.048-.234-14.712-1-6.093-.947-8.33-2.28-6.712-4 1.713-1.81 2.143-7.995 1.283-18.568-.76-10.664-1.76-15.473-2.997-14.426-1.526 1.332-17.69 13.278-38.22 33.683-2.63 2.332-6.3.91-11.015-4.27-4.838-5.495-6.443-9.13-4.817-10.888l44.322-32.36c3.858-2.734 2.874-5.306 11.444-8.448 4.285-1.62 8.425-2.762 12.426-3.43l19.424-.283 11 3.14c7.81 2.954 21.883 14.562 35.71 22.035 13.96 7.613 21.715 12.13 23.274 13.546z"/><path fill="#FFF" d="M86.512 130.59v-12.285h20.423v12.285c-2.475 1.236-5.902 1.81-10.283 1.713l-10.14-1.713z"/><path fill="none" stroke="#000" stroke-width="5.713" stroke-miterlimit="3" d="M86.512 130.59v-12.285h20.423v12.285s-5.746 1.756-10.283 1.713c-4.535-.044-10.14-1.713-10.14-1.713z"/><path fill="#FFF" stroke="#000" stroke-width="2.857" stroke-miterlimit="10" d="M160.5 73.883c1.525 3.713.572 8.522-2.857 14.426-3.62 6.19-7.81 8.903-12.567 8.142l2.856-23.71.57-1.287 5-1.286c3.523-.286 5.857.952 6.998 3.713z"/><path fill="#FFF" d="M149.073 62.457c0 1.904-.667 8.476-1.998 19.71-1.333 11.81-2.335 18.76-3.002 20.855-1.235 4-6.665 8.38-16.28 13.142-10.572 5.237-19.893 7.948-30.842 8.232-10.95-.286-23.293-3.14-33.864-8.375-9.616-4.76-15.045-9.14-16.284-13.14-.667-2.285-1.713-9.427-3.14-21.426-1.43-11.808-2.05-18.664-1.86-20.57.763-13.33 6.24-24.566 16.427-33.708s22.568-13.712 37.137-13.712c14.855 0 27.52 4.81 37.994 14.426 10.476 9.523 15.713 21.044 15.713 34.567z"/><path fill="none" stroke="#000" stroke-width="5.713" stroke-miterlimit="3" d="M149.073 62.457c0-13.522-5.236-25.044-15.712-34.567-10.472-9.618-23.138-14.426-37.993-14.426-14.568 0-26.95 4.57-37.138 13.712-10.19 9.142-15.666 20.378-16.427 33.71-.19 1.904.43 8.76 1.858 20.568 1.43 12 2.475 19.14 3.142 21.426 1.24 4 6.667 8.38 16.284 13.14 10.57 5.237 21.33 8 32.28 8.285 10.95-.284 21.856-2.904 32.427-8.142 9.616-4.76 15.045-9.14 16.28-13.142.668-2.093 1.67-9.045 3.003-20.853 1.33-11.235 1.997-17.806 1.997-19.71z"/><path d="M153.503 62.884c.95 6-3.43 9-13.144 9-6.093 0-12.236-8.19-18.427-24.57l-7.427-24.566c.667 4.19-1.76 7.856-7.284 10.997 3.236-7.142 2.668-11.617-1.715-13.426-2.76-1.143-5.38-1.192-7.854-.145l-2.856 1.858c-4.86-2.286-9.24-2.523-13.143-.714-3.998 1.903-7.19 6.378-9.572 13.425-3.236 9.142-3.76 20.235-1.568 33.28-6.857-10.38-8-24.33-3.43-41.85-3.143.952-6.334 3.617-9.57 8-6.38 8.854-9.854 21.996-10.428 39.42-.57 17.428 1.333 31.616 5.713 42.566 2.192 5.524 4.43 9.285 6.714 11.285-3.333-2.095-6.81-5.808-10.425-11.14-7.143-10.57-11.238-23.665-12.287-39.28l14.284-53.28 22.57-12.71L98.223 7.32l21.424 5.143 7.285 8.427 16.713 9 8.283 17.57 9.14 11.854c2.096 3.713 1.62 14.664-1.428 32.853l-7 2.5c2.115-1.65 3.924-4.482 5.43-8.5 2-5.332 2.998-10.808 2.998-16.426 0-3.427-1.238-5.618-3.713-6.57l-3.854-.286z"/><g><path d="M69.8 79.597c0-4.763 1.38-7.143 4.14-7.143 2.763 0 4.144 2.38 4.144 7.143 0 4.855-1.38 7.284-4.143 7.284-2.76 0-4.14-2.427-4.14-7.283z"/><path fill="none" stroke="#000" stroke-width="3" stroke-miterlimit="10" d="M70.303 81.597c0-2.775 1.212-4.162 3.64-4.162 2.427 0 3.64 1.387 3.64 4.162M111.654 81.597c0-2.775 1.21-4.162 3.64-4.162s3.638 1.387 3.638 4.162"/><path d="M111.08 79.597c0-4.763 1.38-7.143 4.143-7.143 2.855 0 4.284 2.38 4.284 7.143 0 4.855-1.43 7.284-4.284 7.284-2.763 0-4.144-2.427-4.144-7.283z"/></g><g><path fill="none" stroke="#000" stroke-width="2.857" stroke-miterlimit="3" d="M104.367 91.594c0 3.904-3 5.857-9 5.857-6.093 0-9.14-1.952-9.14-5.856"/></g><g><path fill="#FFBFDF" d="M50.945 87.31c0-2.762 3.046-4.143 9.142-4.143 5.998 0 9 1.38 9 4.142 0 2.76-3.002 4.142-9 4.142-6.096 0-9.142-1.38-9.142-4.143z"/></g><g><path fill="#FFBFDF" d="M130.36 83.167c6 0 9 1.38 9 4.142 0 2.76-2.997 4.142-9 4.142-5.997 0-8.995-1.38-8.995-4.143 0-2.762 2.998-4.143 8.996-4.143z"/></g></svg>