<svg xmlns="http://www.w3.org/2000/svg" viewBox="0 0 79.6 77.8"><path d="M14.3 11.8h.3l9.9 2.6-.3-.3c-.1-.1-.2-.2-.2-.3l-4.6-6 1-.8 6.5 8.5-.6.5c-.1.1-.2.1-.3.1h-.3l-9.9-2.6c.1.1.2.2.2.3.1.1.1.2.2.3l4.7 6.1-1 .8-6.5-8.5.6-.5c.1-.2.2-.2.3-.2zM31.8 14l-1.4.4-3.2-10.2 1.4-.4L31.8 14zm2.6-11.8h1.2c.1 0 .2 0 .3.1 0 .1.1.1.1.2l2.9 7.6c.1.2.1.4.2.6.1.2.1.4.2.6 0-.2.1-.4.2-.6.1-.2.1-.4.2-.6l3.1-7.5c0-.1.1-.2.2-.2s.2-.1.3-.1h1.2L39.9 13h-1.3L34.4 2.2zm21.9 4.3l-.5 1.1-4.8-2-1.4 3.3 3.8 1.6-.4 1-3.8-1.6-1.4 3.4 4.7 2-.5 1.1-6-2.6 4.2-9.9 6.1 2.6zm0 11.8l3.4 3.2-.8.9-4.4-4.2 7.4-7.8 1.1 1-6.7 6.9zM11.1 55.4l-.3.6c.2-.1.5-.1.7-.2.2 0 .4-.1.7-.1l6.1-1.1h.3c.1 0 .1 0 .2.1.1 0 .1.1.2.2 0 .1.1.1.2.2l1.2 1.5-8.7 6.6-1.3-1.8 5-3.8c.2-.2.5-.4.8-.6L10 58.1c-.2 0-.4 0-.5-.1-.2-.1-.3-.2-.4-.3l-.2-.3c-.1-.2-.2-.3-.2-.5s0-.4.1-.5l2.7-5.7c-.1.1-.3.2-.4.4-.1.1-.3.2-.4.3l-5 3.8-1.4-1.8 8.7-6.6 1.2 1.5c.1.1.1.2.2.2.1.1.1.1.1.2v.2c0 .1 0 .2-.1.3l-2.7 5.6c-.3.2-.4.4-.6.6zm19.1 12.1c-.3.7-.7 1.3-1.3 1.9-.5.5-1.1.9-1.8 1.2-.7.3-1.4.4-2.1.4-.8 0-1.5-.2-2.3-.5-.8-.3-1.4-.8-2-1.3s-.9-1.1-1.2-1.8c-.3-.7-.4-1.4-.3-2.1 0-.7.2-1.5.5-2.2.3-.7.7-1.3 1.3-1.9.5-.5 1.1-.9 1.8-1.2.7-.3 1.4-.4 2.1-.3.8 0 1.5.2 2.3.6.8.3 1.4.8 1.9 1.3s.9 1.1 1.2 1.8c.2.7.4 1.4.3 2.1.1.5 0 1.2-.4 2zm-2.3-1.1c.2-.5.4-1 .4-1.4 0-.5 0-.9-.1-1.2-.1-.4-.3-.7-.6-1-.3-.3-.6-.5-1.1-.7-.4-.2-.9-.3-1.3-.3s-.8.1-1.2.2c-.4.2-.7.4-1 .8-.3.3-.6.8-.8 1.2-.2.5-.4 1-.4 1.4 0 .5 0 .9.1 1.2.1.4.3.7.6 1 .3.3.7.5 1.1.7.4.2.9.3 1.3.3s.8-.1 1.2-.2c.4-.2.7-.4 1-.8.3-.3.6-.7.8-1.2zm9.3 3v4h-2.5l-.1-10.9h3.6c.8 0 1.5.1 2 .2.6.2 1 .4 1.4.7.4.3.6.6.8 1 .2.4.2.8.3 1.3 0 .4 0 .7-.1 1-.1.3-.2.6-.4.9s-.4.5-.7.7c-.3.2-.6.4-.9.5.2.1.3.2.5.3.1.1.3.3.4.5l2.4 3.8h-2.3c-.4 0-.7-.2-.9-.5l-1.8-3.2-.3-.3c-.1-.1-.3-.1-.5-.1l-.9.1zm-.1-1.8h1c.3 0 .6-.1.9-.1s.4-.2.6-.4c.2-.2.3-.3.3-.5.1-.2.1-.4.1-.7 0-.5-.2-.9-.5-1.1-.3-.3-.8-.4-1.5-.4h-1l.1 3.2zm15-8.4l.7 1.9-2.9 1.1 3.2 8.3-2.4.9-3.1-8.4-2.9 1.1-.7-1.8 8.1-3.1zm15.3 1.4l-1.5 1.3c-.2.1-.3.2-.5.2s-.3 0-.5-.1l-1.7-1-3.2 2.7.7 1.9c.1.1.1.3 0 .5 0 .2-.1.3-.3.5L59 67.8l-3.9-11.1 2-1.7 10.3 5.6zm-8 1.4l2.3-1.9-2.7-1.6c-.2-.1-.4-.2-.6-.4-.2-.1-.5-.3-.7-.5.1.3.3.6.4.8.1.3.2.5.3.7l1 2.9zM70 52.8l1.9-3.6 1.8 1-3.1 5.8-9.6-5.2 1.2-2.2 7.8 4.2z"/></svg>