<?xml version="1.0" encoding="utf-8"?>
<!-- Generator: Adobe Illustrator 16.0.0, SVG Export Plug-In . SVG Version: 6.00 Build 0)  -->
<!DOCTYPE svg PUBLIC "-//W3C//DTD SVG 1.1//EN" "http://www.w3.org/Graphics/SVG/1.1/DTD/svg11.dtd">
<svg version="1.1" id="Isolation_Mode" xmlns="http://www.w3.org/2000/svg" xmlns:xlink="http://www.w3.org/1999/xlink" x="0px"
	 y="0px" width="197px" height="293.635px" viewBox="0 0 197 293.635" enable-background="new 0 0 197 293.635"
	 xml:space="preserve">
<g>
	<path d="M147.932,19.605c6.381,8.856,11.141,21.473,14.284,37.852c3.332,16.759,3.188,28.804-0.429,36.137
		c-3.236,6.57-4.475,14.665-3.713,24.282c0.667,7.903,2.047,13.475,4.143,16.713c2.096,3.237,3.477,2.57,4.143-2.001
		c2.285,4.477,1,7.095-3.857,7.857c-2.568,0.475-4.189,0-4.857-1.43l-0.285-2.284c-1.144,2.951-13.926,26.811-52.42,26.853
		c-76.467-1.428-64.133-36.804-74.132-80.988c-4.762-20.949-2.237-38.708,7.571-53.278c6.948-10.38,16.615-18.235,28.993-23.568
		C79.37,0.798,88.604,0.703,95.082,5.464c3.998-4.761,12.188-5.713,24.566-2.857C132.504,5.655,141.932,11.321,147.932,19.605z"/>
</g>
<g>
	<path d="M19.306,108.592c0.089,1.367,0.731,2.464,1.93,3.285c1.429,1.143,3.047,1.381,4.854,0.714
		c4.762-1.903,6.093-8.093,4-18.568c-5.239-26.567-3.046-46.517,6.57-59.848c4.762-6.666,10.046-10.712,15.854-12.141
		c-15.14,22.377-22.475,39.898-21.995,52.563c0.19,6.381,1.046,15.902,2.569,28.567c0.572,9.618-1.096,14.712-5,15.284
		C22.018,119.354,19.091,116.069,19.306,108.592z"/>
</g>
<g>
	<path fill="#FFFFFF" d="M66.944,284.142c-2.762-1.718-4-3.525-3.716-5.429l5.998-7.571l23.998-0.568l3.571,5.568
		c3.047,7.426-1.997,11.143-15.14,11.143C75.18,287.284,70.275,286.235,66.944,284.142z"/>
	<path fill="none" stroke="#000000" stroke-width="5.7135" stroke-miterlimit="3" d="M66.944,284.142
		c3.331,2.094,8.235,3.143,14.71,3.143c13.143,0,18.187-3.717,15.14-11.143l-3.571-5.568l-23.998,0.568l-5.998,7.571
		C62.944,280.616,64.183,282.424,66.944,284.142z"/>
</g>
<g>
	<path fill="#FFFFFF" d="M131.218,278.713c0.288,1.902-0.903,3.711-3.571,5.429c-3.426,2.094-8.33,3.143-14.711,3.143
		c-12.949,0-18.043-3.717-15.282-11.143l3.713-5.568l23.854,0.568l2.856,2.713C130.077,275.952,131.124,277.569,131.218,278.713z"/>
	<path fill="none" stroke="#000000" stroke-width="5.7135" stroke-miterlimit="3" d="M131.218,278.713
		c0.288,1.902-0.903,3.711-3.571,5.429c-3.426,2.094-8.33,3.143-14.711,3.143c-12.949,0-18.043-3.717-15.282-11.143l3.713-5.568
		l23.854,0.568l2.856,2.713C130.077,275.952,131.124,277.569,131.218,278.713z"/>
</g>
<g>
	<path fill="#FFFFFF" d="M96.226,204.868c-0.859,0-1.428,4.234-1.716,12.711c-0.288,9.809-0.427,14.758-0.427,14.854
		c-0.382,1.907,0.521,14.094,2.711,36.567c2.285-22.476,3.239-34.66,2.856-36.567c0-18.375-0.761-27.563-2.284-27.563
		L96.226,204.868L96.226,204.868z M120.793,191.722c1.428,3.717,2.189,7.287,2.285,10.713c0.189,5.523-0.572,14.998-2.285,28.428
		c-0.189,3.143,2.236,15.662,7.284,37.568c0.284,1.334-1.571,2.995-5.571,4.998c-4.096,1.998-8.141,3.188-12.141,3.571
		c-3.903,0.284-7.189-0.479-9.856-2.287c-2.455-1.702-3.694-3.532-3.713-5.502c-0.02,1.97-1.255,3.8-3.713,5.502
		c-2.667,1.808-5.951,2.571-9.856,2.287c-4-0.385-7.998-1.618-11.996-3.716c-3.906-2.094-5.713-3.855-5.429-5.284
		c4.949-20.951,7.331-32.997,7.142-36.14c-1.713-14.094-2.478-23.902-2.288-29.426c0.095-3.427,0.809-6.998,2.143-10.713l2.003-4.57
		h43.992L120.793,191.722z"/>
</g>
<g>
	<path fill="none" stroke="#000000" stroke-width="5.7135" stroke-miterlimit="3" d="M96.226,204.868
		c-0.859,0-1.428,4.234-1.716,12.711c-0.288,9.809-0.427,14.758-0.427,14.854c-0.382,1.907,0.521,14.094,2.711,36.567
		c2.285-22.476,3.239-34.66,2.856-36.567c0-18.375-0.761-27.563-2.284-27.563L96.226,204.868L96.226,204.868z M120.793,191.722
		c1.428,3.717,2.189,7.287,2.285,10.713c0.189,5.523-0.572,14.998-2.285,28.428c-0.189,3.143,2.236,15.662,7.284,37.568
		c0.284,1.334-1.571,2.995-5.571,4.998c-4.096,1.998-8.141,3.188-12.141,3.571c-3.903,0.284-7.189-0.479-9.856-2.287
		c-2.455-1.702-3.694-3.532-3.713-5.502c-0.02,1.97-1.255,3.8-3.713,5.502c-2.667,1.808-5.951,2.571-9.856,2.287
		c-4-0.385-7.998-1.618-11.996-3.716c-3.906-2.094-5.713-3.855-5.429-5.284c4.949-20.951,7.331-32.997,7.142-36.14
		c-1.713-14.094-2.478-23.902-2.288-29.426c0.095-3.427,0.809-6.998,2.143-10.713l2.003-4.57h43.992L120.793,191.722z M96.795,269
		v0.212"/>
</g>
<g>
	<path fill="#FFFFFF" d="M25.83,191.207l2.641-2.608l-9.296-9.646l-7.825-0.688c-1.756,3.278-1.399,4.934,1.078,4.959
		c1.837-0.025,2.727,0.385,2.654,1.234c0.022,0.812-0.777,1.752-2.397,2.82c-1.128,0.765-2.72,0.894-4.776,0.394
		c-1.558-0.298-2.28-0.056-2.17,0.72c0.466,2.18,1.574,4.145,3.309,5.903c2.488,2.592,5.362,3.226,8.63,1.899
		C20.853,194.912,23.574,193.246,25.83,191.207z"/>
	<path fill="none" stroke="#000000" stroke-width="2.8567" stroke-miterlimit="3" d="M25.83,191.207l2.641-2.608l-9.296-9.646
		l-7.825-0.688c-1.756,3.278-1.399,4.934,1.078,4.959c1.837-0.025,2.727,0.385,2.654,1.234c0.022,0.812-0.777,1.752-2.397,2.82
		c-1.128,0.765-2.72,0.894-4.776,0.394c-1.558-0.298-2.28-0.056-2.17,0.72c0.466,2.18,1.574,4.145,3.309,5.903
		c2.488,2.592,5.362,3.226,8.63,1.899C20.853,194.912,23.574,193.246,25.83,191.207z"/>
</g>
<g>
	<path fill="#FFFFFF" d="M191.893,179.428c0.059-0.784-0.68-0.979-2.213-0.583c-2.08,0.521-3.658,0.454-4.746-0.207
		c-1.718-0.867-2.594-1.707-2.627-2.519c-0.096-0.935,0.777-1.445,2.612-1.546c2.442-0.102,2.687-1.771,0.747-5.018
		c-0.6,0.303-3.201,0.748-7.807,1.338l-8.592,10.104l2.764,2.562c2.386,1.89,5.209,3.371,8.463,4.444
		c3.348,1.103,6.177,0.279,8.488-2.469C190.627,183.571,191.604,181.537,191.893,179.428z"/>
	<path fill="none" stroke="#000000" stroke-width="2.8567" stroke-miterlimit="3" d="M191.893,179.428
		c-0.287,2.108-1.266,4.144-2.91,6.109c-2.312,2.748-5.141,3.569-8.487,2.469c-3.254-1.073-6.077-2.556-8.463-4.444l-2.765-2.562
		l8.592-10.104c4.605-0.59,7.207-1.035,7.808-1.338c1.938,3.245,1.694,4.916-0.747,5.018c-1.835,0.101-2.708,0.611-2.611,1.546
		c0.032,0.812,0.908,1.651,2.627,2.519c1.086,0.661,2.666,0.729,4.746,0.207C191.213,178.449,191.95,178.644,191.893,179.428z"/>
</g>
<g>
	<path fill="#FFFFFF" d="M176.92,165.026c1.816,1.561,0.68,5.32-3.423,11.273c-4.156,5.753-7.675,7.622-10.556,5.607
		c-22.746-17.904-41.481-28.274-43.004-29.607c-1.239-1.047-2.24,3.762-3.002,14.426c-0.856,10.573-0.428,16.762,1.285,18.568
		c1.618,1.719-0.619,3.053-6.712,4.001c-4.667,0.765-9.571,1.099-14.713,0.999c-0.095,0-0.189,0-0.284,0
		c-5.145,0.1-10.049-0.234-14.713-0.999c-6.093-0.948-8.331-2.282-6.712-4.001c1.713-1.809,2.143-7.995,1.283-18.568
		c-0.759-10.664-1.76-15.473-2.996-14.426c-1.526,1.333-17.691,13.279-38.22,33.684c-2.63,2.332-6.3,0.91-11.015-4.269
		c-4.838-5.496-6.443-9.131-4.817-10.889l40.622-29.382c4.008-3.208,6.573-8.284,15.143-11.427
		c4.285-1.619,8.425-2.762,12.426-3.429l19.424-0.284l11,3.141c7.81,2.953,12.617,6.524,14.426,10.713
		c1.906,4.001,7.457,3.848,21.283,11.321C167.605,159.093,175.361,163.61,176.92,165.026z"/>
</g>
<g>
	<path fill="none" stroke="#000000" stroke-width="5.7135" stroke-miterlimit="3" d="M176.92,165.026
		c1.816,1.561,0.68,5.32-3.423,11.273c-4.156,5.753-7.675,7.622-10.556,5.607c-22.746-17.904-41.481-28.274-43.004-29.607
		c-1.239-1.047-2.24,3.762-3.002,14.426c-0.856,10.573-0.428,16.762,1.285,18.568c1.618,1.719-0.619,3.053-6.712,4.001
		c-4.667,0.765-9.571,1.099-14.713,0.999c-0.095,0-0.189,0-0.284,0c-5.145,0.1-10.049-0.234-14.713-0.999
		c-6.093-0.948-8.331-2.282-6.712-4.001c1.713-1.809,2.143-7.995,1.283-18.568c-0.759-10.664-1.76-15.473-2.996-14.426
		c-1.526,1.333-17.691,13.279-38.22,33.684c-2.63,2.332-6.3,0.91-11.015-4.269c-4.838-5.496-6.443-9.131-4.817-10.889l44.321-32.361
		c3.858-2.733,2.874-5.305,11.444-8.447c4.285-1.619,8.425-2.762,12.426-3.429l19.424-0.284l11,3.141
		c7.81,2.953,21.883,14.561,35.709,22.034C167.605,159.093,175.361,163.61,176.92,165.026z"/>
</g>
<g>
	<path fill="#FFFFFF" d="M86.512,130.59v-12.285h20.423v12.285c-2.475,1.236-5.902,1.809-10.283,1.713L86.512,130.59z"/>
</g>
<g>
	<path fill="none" stroke="#000000" stroke-width="5.7135" stroke-miterlimit="3" d="M86.512,130.59v-12.285h20.423v12.285
		c0,0-5.746,1.756-10.283,1.713C92.117,132.259,86.512,130.59,86.512,130.59z"/>
</g>
<g>
	<path fill="#FFFFFF" stroke="#000000" stroke-width="2.8567" stroke-miterlimit="10" d="M160.5,73.883
		c1.525,3.713,0.572,8.522-2.857,14.426c-3.619,6.19-7.809,8.904-12.567,8.143l2.856-23.711l0.571-1.286l4.999-1.286
		C157.025,69.884,159.359,71.122,160.5,73.883z"/>
</g>
<g>
	<path fill="#FFFFFF" d="M149.073,62.457c0,1.904-0.667,8.476-1.998,19.711c-1.333,11.808-2.335,18.76-3.002,20.854
		c-1.235,4.001-6.665,8.381-16.281,13.142c-10.571,5.237-19.892,7.948-30.841,8.232l0,0c-10.95-0.286-23.294-3.139-33.865-8.375
		c-9.616-4.762-15.045-9.142-16.284-13.141c-0.667-2.285-1.713-9.427-3.141-21.426c-1.429-11.808-2.048-18.664-1.858-20.569
		c0.762-13.331,6.238-24.567,16.426-33.709c10.188-9.142,22.569-13.712,37.138-13.712c14.855,0,27.521,4.809,37.994,14.426
		C143.836,37.413,149.073,48.934,149.073,62.457z"/>
</g>
<g>
	<path fill="none" stroke="#000000" stroke-width="5.7135" stroke-miterlimit="3" d="M149.073,62.457
		c0-13.522-5.236-25.044-15.712-34.567c-10.473-9.618-23.139-14.426-37.994-14.426c-14.568,0-26.949,4.57-37.138,13.712
		c-10.188,9.142-15.665,20.378-16.426,33.709c-0.189,1.905,0.43,8.762,1.858,20.569c1.428,11.999,2.474,19.141,3.141,21.426
		c1.239,3.999,6.667,8.379,16.284,13.141c10.571,5.236,21.331,7.998,32.281,8.284l0,0c10.949-0.284,21.855-2.904,32.426-8.142
		c9.616-4.761,15.045-9.141,16.281-13.142c0.667-2.094,1.668-9.046,3.002-20.854C148.406,70.932,149.073,64.361,149.073,62.457z"/>
</g>
<g>
	<path d="M153.503,62.884c0.951,6-3.429,8.999-13.144,8.999c-6.092,0-12.235-8.189-18.426-24.568l-7.427-24.567
		c0.667,4.189-1.76,7.856-7.284,10.997c3.236-7.142,2.668-11.617-1.715-13.426c-2.759-1.142-5.379-1.191-7.854-0.144l-2.856,1.858
		c-4.86-2.286-9.24-2.523-13.143-0.714c-3.998,1.904-7.189,6.379-9.572,13.426c-3.236,9.142-3.761,20.235-1.568,33.28
		c-6.857-10.379-8.001-24.33-3.431-41.851c-3.142,0.953-6.333,3.618-9.569,8c-6.38,8.855-9.854,21.997-10.428,39.422
		c-0.569,17.427,1.333,31.615,5.713,42.565c2.193,5.523,4.43,9.284,6.715,11.284c-3.333-2.095-6.81-5.808-10.425-11.141
		c-7.142-10.57-11.237-23.664-12.286-39.28l14.284-53.279l22.569-12.711L98.224,7.32l21.424,5.143l7.285,8.427l16.713,9
		l8.283,17.569l9.141,11.855c2.096,3.713,1.619,14.664-1.428,32.853l-7,2.499c2.115-1.648,3.924-4.481,5.43-8.499
		c2-5.332,2.998-10.808,2.998-16.426c0-3.428-1.238-5.619-3.713-6.57L153.503,62.884z"/>
</g>
<g>
	<g>
		<path id="right-eye" d="M69.801,79.597c0-4.763,1.378-7.143,4.14-7.143c2.762,0,4.143,2.38,4.143,7.143c0,4.855-1.381,7.284-4.143,7.284
			C71.179,86.881,69.801,84.453,69.801,79.597z"/>
	</g>
	<g>
		<path id="left-eye-closed" fill="none" stroke="#000000" stroke-width="3" stroke-miterlimit="10" d="M70.303,81.597c0-2.775,1.212-4.162,3.639-4.162
			c2.428,0,3.64,1.387,3.64,4.162"/>
	</g>
	<g>
		<path id="right-eye-closed" fill="none" stroke="#000000" stroke-width="3" stroke-miterlimit="10" d="M111.654,81.597c0-2.775,1.211-4.162,3.639-4.162
			s3.639,1.387,3.639,4.162"/>
	</g>
	<g>
		<path id="left-eye" d="M111.079,79.597c0-4.763,1.381-7.143,4.144-7.143c2.855,0,4.284,2.38,4.284,7.143c0,4.855-1.429,7.284-4.284,7.284
			C112.46,86.881,111.079,84.453,111.079,79.597z"/>
	</g>
</g>
<g>
	<path fill="none" stroke="#000000" stroke-width="2.8567" stroke-miterlimit="3" d="M104.367,91.594c0,3.904-2.999,5.857-9,5.857
		c-6.093,0-9.139-1.953-9.139-5.857"/>
</g>
<g>
	<path fill="#FFBFDF" d="M50.945,87.309c0-2.761,3.046-4.142,9.142-4.142c5.998,0,9,1.381,9,4.142c0,2.762-3.002,4.143-9,4.143
		C53.991,91.452,50.945,90.071,50.945,87.309z"/>
</g>
<g>
	<path fill="#FFBFDF" d="M130.361,83.167c6,0,9,1.381,9,4.142c0,2.762-2.998,4.143-9,4.143c-5.998,0-8.996-1.381-8.996-4.143
		C121.365,84.548,124.363,83.167,130.361,83.167z"/>
</g>
</svg>
