<?xml version="1.0" encoding="utf-8"?>
<!-- Generator: Adobe Illustrator 19.0.0, SVG Export Plug-In . SVG Version: 6.00 Build 0)  -->
<svg version="1.1" id="Layer_1" xmlns="http://www.w3.org/2000/svg" xmlns:xlink="http://www.w3.org/1999/xlink" x="0px" y="0px"
	 viewBox="0 0 79.6 77.8" style="enable-background:new 0 0 79.6 77.8;" xml:space="preserve">
<g id="XMLID_101_">
	<path id="XMLID_102_" d="M14.3,11.8c0.1,0,0.2,0,0.3,0l9.9,2.6c-0.1-0.1-0.2-0.2-0.3-0.3c-0.1-0.1-0.2-0.2-0.2-0.3l-4.6-6l1-0.8
		l6.5,8.5L26.3,16c-0.1,0.1-0.2,0.1-0.3,0.1c-0.1,0-0.2,0-0.3,0l-9.9-2.6c0.1,0.1,0.2,0.2,0.2,0.3c0.1,0.1,0.1,0.2,0.2,0.3l4.7,6.1
		l-1,0.8l-6.5-8.5l0.6-0.5C14.1,11.8,14.2,11.8,14.3,11.8z"/>
	<path id="XMLID_104_" d="M31.8,14l-1.4,0.4L27.2,4.2l1.4-0.4L31.8,14z"/>
	<path id="XMLID_106_" d="M34.4,2.2l1.2,0c0.1,0,0.2,0,0.3,0.1C35.9,2.4,36,2.4,36,2.5l2.9,7.6c0.1,0.2,0.1,0.4,0.2,0.6
		c0.1,0.2,0.1,0.4,0.2,0.6c0-0.2,0.1-0.4,0.2-0.6c0.1-0.2,0.1-0.4,0.2-0.6l3.1-7.5c0-0.1,0.1-0.2,0.2-0.2s0.2-0.1,0.3-0.1l1.2,0
		L39.9,13l-1.3,0L34.4,2.2z"/>
	<path id="XMLID_108_" d="M56.3,6.5l-0.5,1.1l-4.8-2l-1.4,3.3l3.8,1.6l-0.4,1l-3.8-1.6l-1.4,3.4l4.7,2l-0.5,1.1L46,13.8l4.2-9.9
		L56.3,6.5z"/>
	<path id="XMLID_110_" d="M56.3,18.3l3.4,3.2l-0.8,0.9l-4.4-4.2l7.4-7.8l1.1,1L56.3,18.3z"/>
</g>
<g id="XMLID_80_">
	<path id="XMLID_81_" d="M5.9,44l-3.9,1l-0.6-2.5l10.6-2.6l0.8,3.5c0.2,0.8,0.3,1.4,0.2,2s-0.1,1.1-0.3,1.5c-0.2,0.4-0.5,0.7-0.8,1
		c-0.3,0.2-0.7,0.4-1.2,0.5c-0.3,0.1-0.7,0.1-1,0.1S9,48.4,8.7,48.2c-0.3-0.1-0.6-0.3-0.9-0.5c-0.3-0.2-0.5-0.5-0.7-0.8
		c0,0.2-0.1,0.4-0.2,0.5c-0.1,0.2-0.2,0.3-0.4,0.5l-3.1,3.2l-0.5-2.2c-0.1-0.4,0-0.7,0.2-1l2.7-2.5C5.9,45.3,6,45.2,6,45
		c0-0.1,0-0.3,0-0.5L5.9,44z M7.6,43.5l0.2,1c0.1,0.3,0.2,0.6,0.3,0.8c0.1,0.2,0.3,0.4,0.5,0.5C8.8,46,9,46,9.2,46.1
		c0.2,0,0.4,0,0.7-0.1c0.5-0.1,0.8-0.4,1-0.7c0.2-0.4,0.2-0.9,0-1.5l-0.2-1L7.6,43.5z"/>
	<path id="XMLID_84_" d="M16.9,61.8c-0.6,0.5-1.3,0.8-2,1c-0.7,0.2-1.4,0.3-2.1,0.2c-0.7-0.1-1.4-0.3-2-0.7
		c-0.6-0.4-1.2-0.9-1.8-1.6s-0.9-1.4-1.1-2.1s-0.2-1.4-0.2-2.1c0.1-0.7,0.3-1.4,0.7-2s0.9-1.2,1.5-1.7c0.6-0.5,1.3-0.8,2-1
		c0.7-0.2,1.4-0.2,2.1-0.2c0.7,0.1,1.4,0.3,2,0.7c0.7,0.4,1.2,0.9,1.8,1.6c0.5,0.7,0.9,1.4,1.1,2.1s0.2,1.4,0.1,2.1
		c-0.1,0.7-0.3,1.4-0.7,2C18,60.8,17.5,61.3,16.9,61.8z M15.3,59.7c0.4-0.3,0.8-0.7,1-1.1c0.3-0.4,0.4-0.8,0.5-1.1
		c0.1-0.4,0.1-0.8,0-1.2s-0.3-0.8-0.6-1.2c-0.3-0.4-0.6-0.7-1-0.9s-0.7-0.3-1.1-0.3c-0.4,0-0.8,0-1.2,0.2c-0.4,0.2-0.9,0.4-1.3,0.7
		c-0.4,0.3-0.8,0.7-1,1.1c-0.3,0.4-0.4,0.8-0.5,1.1c-0.1,0.4-0.1,0.8,0,1.2c0.1,0.4,0.3,0.8,0.6,1.2c0.3,0.4,0.6,0.7,1,0.9
		c0.4,0.2,0.7,0.3,1.1,0.3s0.8,0,1.2-0.2C14.4,60.3,14.9,60.1,15.3,59.7z"/>
	<path id="XMLID_87_" d="M25.6,70.2c0.1,0,0.1,0.1,0.1,0.1c0,0,0.1,0.1,0.1,0.2l0.4,1.4c-0.7,0.3-1.3,0.4-2.1,0.4
		c-0.7-0.1-1.5-0.3-2.3-0.7c-0.7-0.4-1.3-0.9-1.8-1.4s-0.8-1.2-0.9-1.8c-0.2-0.7-0.2-1.3-0.1-2.1c0.1-0.7,0.3-1.4,0.7-2.1
		c0.4-0.7,0.9-1.3,1.4-1.8c0.6-0.5,1.2-0.8,1.9-1s1.4-0.3,2.1-0.2c0.7,0.1,1.5,0.3,2.2,0.7c0.4,0.2,0.7,0.4,1,0.6
		c0.3,0.2,0.5,0.5,0.8,0.7c0.2,0.3,0.4,0.5,0.5,0.8c0.1,0.3,0.3,0.6,0.3,0.9l-1.3,0.6c-0.1,0-0.2,0.1-0.3,0.1c-0.1,0-0.2,0-0.3-0.1
		c-0.1,0-0.1-0.1-0.2-0.2c-0.1-0.1-0.1-0.2-0.2-0.2c-0.1-0.1-0.1-0.2-0.2-0.3c-0.1-0.1-0.1-0.2-0.2-0.3c-0.1-0.1-0.2-0.2-0.4-0.4
		c-0.2-0.1-0.3-0.3-0.6-0.4c-0.4-0.2-0.8-0.3-1.2-0.4c-0.4,0-0.8,0-1.2,0.2s-0.7,0.4-1.1,0.7c-0.3,0.3-0.6,0.7-0.9,1.2
		c-0.3,0.5-0.4,1-0.5,1.4c-0.1,0.5-0.1,0.9,0,1.3c0.1,0.4,0.3,0.7,0.5,1c0.2,0.3,0.5,0.5,0.9,0.7c0.2,0.1,0.4,0.2,0.6,0.3
		c0.2,0.1,0.4,0.1,0.5,0.1c0.2,0,0.3,0,0.5,0c0.2,0,0.4,0,0.5-0.1c0.1,0,0.2,0,0.2,0C25.5,70.1,25.6,70.1,25.6,70.2z"/>
	<path id="XMLID_89_" d="M34.7,68.8l0.4,0c0.4,0,0.7-0.1,0.8-0.3l2.8-3.3c0.2-0.2,0.3-0.3,0.5-0.4c0.2-0.1,0.4-0.1,0.6,0l2.2,0.2
		l-3.6,4.1c-0.1,0.1-0.3,0.3-0.4,0.4c-0.1,0.1-0.3,0.2-0.4,0.2c0.2,0.1,0.3,0.2,0.5,0.3c0.1,0.1,0.3,0.3,0.4,0.5l2.8,5.4L39,75.7
		c-0.1,0-0.3,0-0.4-0.1c-0.1,0-0.2-0.1-0.3-0.1c-0.1,0-0.1-0.1-0.2-0.2c-0.1-0.1-0.1-0.1-0.1-0.2l-2.1-4c-0.1-0.1-0.2-0.3-0.3-0.3
		c-0.1-0.1-0.3-0.1-0.5-0.1l-0.6-0.1l-0.4,4.6l-2.5-0.2l1-10.9l2.5,0.2L34.7,68.8z"/>
	<path id="XMLID_91_" d="M50.4,65c0,0.1-0.1,0.2-0.2,0.3c-0.1,0.1-0.2,0.1-0.3,0.2c-0.1,0-0.2,0-0.4,0c-0.1,0-0.3-0.1-0.5-0.1
		s-0.4-0.1-0.6-0.1s-0.5,0-0.7,0.1c-0.5,0.1-0.8,0.3-0.9,0.6c-0.2,0.3-0.2,0.6-0.1,0.9c0.1,0.2,0.2,0.4,0.4,0.5s0.4,0.2,0.6,0.2
		c0.2,0,0.5,0.1,0.8,0.1s0.6,0,0.9,0c0.3,0,0.6,0.1,1,0.1c0.3,0.1,0.6,0.2,0.9,0.3c0.3,0.2,0.5,0.4,0.8,0.6c0.2,0.3,0.4,0.6,0.5,1.1
		c0.1,0.5,0.2,1,0.1,1.4s-0.2,0.9-0.4,1.3c-0.2,0.4-0.6,0.8-1,1.1s-0.9,0.6-1.5,0.7c-0.3,0.1-0.7,0.2-1,0.2c-0.4,0-0.7,0-1.1,0
		s-0.7-0.1-1-0.2S46,74.1,45.7,74l0.4-1.3c0-0.1,0.1-0.2,0.2-0.3c0.1-0.1,0.2-0.1,0.3-0.2c0.1,0,0.3,0,0.5,0c0.2,0,0.4,0.1,0.6,0.2
		s0.5,0.1,0.7,0.1c0.3,0,0.6,0,0.9-0.1c0.4-0.1,0.8-0.3,0.9-0.6c0.2-0.3,0.2-0.6,0.1-1c-0.1-0.2-0.2-0.4-0.4-0.5
		c-0.2-0.1-0.4-0.2-0.6-0.2c-0.2,0-0.5-0.1-0.8-0.1c-0.3,0-0.6,0-0.9,0c-0.3,0-0.6,0-1-0.1c-0.3-0.1-0.6-0.2-0.9-0.3
		c-0.3-0.2-0.5-0.4-0.8-0.7c-0.2-0.3-0.4-0.7-0.6-1.2c-0.1-0.4-0.1-0.8-0.1-1.2s0.2-0.8,0.4-1.2c0.2-0.4,0.5-0.7,0.9-1
		c0.4-0.3,0.9-0.5,1.5-0.7c0.3-0.1,0.6-0.2,1-0.2s0.6,0,0.9,0s0.6,0.1,0.9,0.1s0.5,0.2,0.8,0.3L50.4,65z"/>
	<path id="XMLID_93_" d="M58.7,57.3l1.2,1.6l-2.5,1.8l5.1,7.3l-2.1,1.5l-5.1-7.3l-2.5,1.8l-1.2-1.6L58.7,57.3z"/>
	<path id="XMLID_95_" d="M73.9,55l-1.1,1.6c-0.1,0.2-0.3,0.3-0.4,0.4C72.2,57,72,57,71.9,57l-1.9-0.6l-2.4,3.4l1.2,1.6
		c0.1,0.1,0.1,0.3,0.1,0.5c0,0.2,0,0.4-0.2,0.5L67.5,64l-6.5-9.8l1.5-2.1L73.9,55z M66.5,58.3l1.7-2.4l-3-0.9
		c-0.2-0.1-0.4-0.1-0.7-0.2c-0.3-0.1-0.5-0.2-0.8-0.3c0.2,0.2,0.4,0.5,0.5,0.7s0.3,0.4,0.4,0.6L66.5,58.3z"/>
	<path id="XMLID_98_" d="M72.7,45.9l4,0.8l-0.5,2.5L65.4,47l0.7-3.5c0.2-0.8,0.4-1.4,0.7-1.9c0.3-0.5,0.6-0.9,0.9-1.2
		c0.4-0.3,0.7-0.5,1.2-0.5c0.4-0.1,0.9-0.1,1.3,0c0.3,0.1,0.7,0.2,1,0.3c0.3,0.2,0.5,0.4,0.8,0.6c0.2,0.2,0.4,0.5,0.6,0.8
		c0.1,0.3,0.3,0.7,0.3,1c0.1-0.1,0.3-0.3,0.4-0.4c0.2-0.1,0.3-0.2,0.5-0.3l4.2-1.5l-0.5,2.2c-0.1,0.4-0.3,0.7-0.7,0.8l-3.5,1.1
		c-0.2,0-0.3,0.1-0.4,0.2c-0.1,0.1-0.1,0.2-0.2,0.4L72.7,45.9z M71,45.6l0.2-1c0.1-0.3,0.1-0.6,0.1-0.9c0-0.3-0.1-0.5-0.2-0.7
		c-0.1-0.2-0.3-0.3-0.5-0.4c-0.2-0.1-0.4-0.2-0.6-0.2c-0.5-0.1-0.9,0-1.2,0.2c-0.3,0.2-0.6,0.7-0.7,1.3l-0.2,1L71,45.6z"/>
</g>
</svg>
