<?xml version="1.0" encoding="utf-8"?>
<!-- Generator: Adobe Illustrator 19.0.0, SVG Export Plug-In . SVG Version: 6.00 Build 0)  -->
<svg version="1.1" id="Layer_1" xmlns="http://www.w3.org/2000/svg" xmlns:xlink="http://www.w3.org/1999/xlink" x="0px" y="0px"
	 viewBox="0 0 79.6 77.8" style="enable-background:new 0 0 79.6 77.8;" xml:space="preserve">
<g id="XMLID_101_">
	<path id="XMLID_102_" d="M14.3,11.8c0.1,0,0.2,0,0.3,0l9.9,2.6c-0.1-0.1-0.2-0.2-0.3-0.3c-0.1-0.1-0.2-0.2-0.2-0.3l-4.6-6l1-0.8
		l6.5,8.5L26.3,16c-0.1,0.1-0.2,0.1-0.3,0.1c-0.1,0-0.2,0-0.3,0l-9.9-2.6c0.1,0.1,0.2,0.2,0.2,0.3c0.1,0.1,0.1,0.2,0.2,0.3l4.7,6.1
		l-1,0.8l-6.5-8.5l0.6-0.5C14.1,11.8,14.2,11.8,14.3,11.8z"/>
	<path id="XMLID_104_" d="M31.8,14l-1.4,0.4L27.2,4.2l1.4-0.4L31.8,14z"/>
	<path id="XMLID_106_" d="M34.4,2.2l1.2,0c0.1,0,0.2,0,0.3,0.1C35.9,2.4,36,2.4,36,2.5l2.9,7.6c0.1,0.2,0.1,0.4,0.2,0.6
		c0.1,0.2,0.1,0.4,0.2,0.6c0-0.2,0.1-0.4,0.2-0.6c0.1-0.2,0.1-0.4,0.2-0.6l3.1-7.5c0-0.1,0.1-0.2,0.2-0.2s0.2-0.1,0.3-0.1l1.2,0
		L39.9,13l-1.3,0L34.4,2.2z"/>
	<path id="XMLID_108_" d="M56.3,6.5l-0.5,1.1l-4.8-2l-1.4,3.3l3.8,1.6l-0.4,1l-3.8-1.6l-1.4,3.4l4.7,2l-0.5,1.1L46,13.8l4.2-9.9
		L56.3,6.5z"/>
	<path id="XMLID_110_" d="M56.3,18.3l3.4,3.2l-0.8,0.9l-4.4-4.2l7.4-7.8l1.1,1L56.3,18.3z"/>
</g>
<g id="XMLID_79_">
	<path id="XMLID_125_" d="M11.1,55.4c-0.1,0.2-0.2,0.4-0.3,0.6c0.2-0.1,0.5-0.1,0.7-0.2c0.2,0,0.4-0.1,0.7-0.1l6.1-1.1
		c0.1,0,0.2,0,0.3,0c0.1,0,0.1,0,0.2,0.1c0.1,0,0.1,0.1,0.2,0.2c0,0.1,0.1,0.1,0.2,0.2l1.2,1.5l-8.7,6.6l-1.3-1.8l5-3.8
		c0.2-0.2,0.5-0.4,0.8-0.6l-6.2,1.1c-0.2,0-0.4,0-0.5-0.1c-0.2-0.1-0.3-0.2-0.4-0.3l-0.2-0.3c-0.1-0.2-0.2-0.3-0.2-0.5
		c0-0.2,0-0.4,0.1-0.5l2.7-5.7c-0.1,0.1-0.3,0.2-0.4,0.4c-0.1,0.1-0.3,0.2-0.4,0.3l-5,3.8l-1.4-1.8l8.7-6.6l1.2,1.5
		c0.1,0.1,0.1,0.2,0.2,0.2c0.1,0.1,0.1,0.1,0.1,0.2s0,0.1,0,0.2c0,0.1,0,0.2-0.1,0.3l-2.7,5.6C11.4,55,11.3,55.2,11.1,55.4z"/>
	<path id="XMLID_122_" d="M30.2,67.5c-0.3,0.7-0.7,1.3-1.3,1.9c-0.5,0.5-1.1,0.9-1.8,1.2c-0.7,0.3-1.4,0.4-2.1,0.4
		c-0.8,0-1.5-0.2-2.3-0.5c-0.8-0.3-1.4-0.8-2-1.3s-0.9-1.1-1.2-1.8c-0.3-0.7-0.4-1.4-0.3-2.1c0-0.7,0.2-1.5,0.5-2.2
		c0.3-0.7,0.7-1.3,1.3-1.9c0.5-0.5,1.1-0.9,1.8-1.2c0.7-0.3,1.4-0.4,2.1-0.3c0.8,0,1.5,0.2,2.3,0.6c0.8,0.3,1.4,0.8,1.9,1.3
		s0.9,1.1,1.2,1.8c0.2,0.7,0.4,1.4,0.3,2.1C30.7,66,30.6,66.7,30.2,67.5z M27.9,66.4c0.2-0.5,0.4-1,0.4-1.4c0-0.5,0-0.9-0.1-1.2
		c-0.1-0.4-0.3-0.7-0.6-1c-0.3-0.3-0.6-0.5-1.1-0.7c-0.4-0.2-0.9-0.3-1.3-0.3c-0.4,0-0.8,0.1-1.2,0.2c-0.4,0.2-0.7,0.4-1,0.8
		c-0.3,0.3-0.6,0.8-0.8,1.2c-0.2,0.5-0.4,1-0.4,1.4c0,0.5,0,0.9,0.1,1.2c0.1,0.4,0.3,0.7,0.6,1c0.3,0.3,0.7,0.5,1.1,0.7
		c0.4,0.2,0.9,0.3,1.3,0.3c0.4,0,0.8-0.1,1.2-0.2c0.4-0.2,0.7-0.4,1-0.8C27.4,67.3,27.7,66.9,27.9,66.4z"/>
	<path id="XMLID_119_" d="M37.2,69.4l0,4l-2.5,0l-0.1-10.9l3.6,0c0.8,0,1.5,0.1,2,0.2c0.6,0.2,1,0.4,1.4,0.7c0.4,0.3,0.6,0.6,0.8,1
		c0.2,0.4,0.2,0.8,0.3,1.3c0,0.4,0,0.7-0.1,1c-0.1,0.3-0.2,0.6-0.4,0.9s-0.4,0.5-0.7,0.7c-0.3,0.2-0.6,0.4-0.9,0.5
		c0.2,0.1,0.3,0.2,0.5,0.3c0.1,0.1,0.3,0.3,0.4,0.5l2.4,3.8l-2.3,0c-0.4,0-0.7-0.2-0.9-0.5l-1.8-3.2c-0.1-0.1-0.2-0.2-0.3-0.3
		c-0.1-0.1-0.3-0.1-0.5-0.1L37.2,69.4z M37.1,67.6l1,0c0.3,0,0.6-0.1,0.9-0.1s0.4-0.2,0.6-0.4c0.2-0.2,0.3-0.3,0.3-0.5
		c0.1-0.2,0.1-0.4,0.1-0.7c0-0.5-0.2-0.9-0.5-1.1c-0.3-0.3-0.8-0.4-1.5-0.4l-1,0L37.1,67.6z"/>
	<path id="XMLID_117_" d="M52.1,59.2l0.7,1.9l-2.9,1.1l3.2,8.3l-2.4,0.9L47.6,63l-2.9,1.1L44,62.3L52.1,59.2z"/>
	<path id="XMLID_114_" d="M67.4,60.6l-1.5,1.3c-0.2,0.1-0.3,0.2-0.5,0.2c-0.2,0-0.3,0-0.5-0.1l-1.7-1l-3.2,2.7l0.7,1.9
		c0.1,0.1,0.1,0.3,0,0.5c0,0.2-0.1,0.3-0.3,0.5L59,67.8l-3.9-11.1l2-1.7L67.4,60.6z M59.4,62l2.3-1.9l-2.7-1.6
		c-0.2-0.1-0.4-0.2-0.6-0.4c-0.2-0.1-0.5-0.3-0.7-0.5c0.1,0.3,0.3,0.6,0.4,0.8c0.1,0.3,0.2,0.5,0.3,0.7L59.4,62z"/>
	<path id="XMLID_112_" d="M70,52.8l1.9-3.6l1.8,1L70.6,56L61,50.8l1.2-2.2L70,52.8z"/>
</g>
</svg>
