<svg xmlns="http://www.w3.org/2000/svg" viewBox="0 0 79.6 77.8"><path d="M14.3 11.8h.3l9.9 2.6-.3-.3c-.1-.1-.2-.2-.2-.3l-4.6-6 1-.8 6.5 8.5-.6.5c-.1.1-.2.1-.3.1h-.3l-9.9-2.6c.1.1.2.2.2.3.1.1.1.2.2.3l4.7 6.1-1 .8-6.5-8.5.6-.5c.1-.2.2-.2.3-.2zM31.8 14l-1.4.4-3.2-10.2 1.4-.4L31.8 14zm2.6-11.8h1.2c.1 0 .2 0 .3.1 0 .1.1.1.1.2l2.9 7.6c.1.2.1.4.2.6.1.2.1.4.2.6 0-.2.1-.4.2-.6.1-.2.1-.4.2-.6l3.1-7.5c0-.1.1-.2.2-.2s.2-.1.3-.1h1.2L39.9 13h-1.3L34.4 2.2zm21.9 4.3l-.5 1.1-4.8-2-1.4 3.3 3.8 1.6-.4 1-3.8-1.6-1.4 3.4 4.7 2-.5 1.1-6-2.6 4.2-9.9 6.1 2.6zm0 11.8l3.4 3.2-.8.9-4.4-4.2 7.4-7.8 1.1 1-6.7 6.9zM5.9 44L2 45l-.6-2.5L12 39.9l.8 3.5c.2.8.3 1.4.2 2s-.1 1.1-.3 1.5c-.2.4-.5.7-.8 1-.3.2-.7.4-1.2.5-.3.1-.7.1-1 .1s-.7-.1-1-.3c-.3-.1-.6-.3-.9-.5-.3-.2-.5-.5-.7-.8 0 .2-.1.4-.2.5-.1.2-.2.3-.4.5l-3.1 3.2-.5-2.2c-.1-.4 0-.7.2-1l2.7-2.5c.1-.1.2-.2.2-.4v-.5l-.1-.5zm1.7-.5l.2 1c.1.3.2.6.3.8.1.2.3.4.5.5.2.2.4.2.6.3.2 0 .4 0 .7-.1.5-.1.8-.4 1-.7.2-.4.2-.9 0-1.5l-.2-1-3.1.7zm9.3 18.3c-.6.5-1.3.8-2 1-.7.2-1.4.3-2.1.2-.7-.1-1.4-.3-2-.7-.6-.4-1.2-.9-1.8-1.6s-.9-1.4-1.1-2.1-.2-1.4-.2-2.1c.1-.7.3-1.4.7-2s.9-1.2 1.5-1.7 1.3-.8 2-1c.7-.2 1.4-.2 2.1-.2.7.1 1.4.3 2 .7.7.4 1.2.9 1.8 1.6.5.7.9 1.4 1.1 2.1s.2 1.4.1 2.1c-.1.7-.3 1.4-.7 2-.3.7-.8 1.2-1.4 1.7zm-1.6-2.1c.4-.3.8-.7 1-1.1.3-.4.4-.8.5-1.1.1-.4.1-.8 0-1.2s-.3-.8-.6-1.2c-.3-.4-.6-.7-1-.9s-.7-.3-1.1-.3c-.4 0-.8 0-1.2.2-.4.2-.9.4-1.3.7-.4.3-.8.7-1 1.1-.3.4-.4.8-.5 1.1-.1.4-.1.8 0 1.2.1.4.3.8.6 1.2.3.4.6.7 1 .9.4.2.7.3 1.1.3s.8 0 1.2-.2c.4-.1.9-.3 1.3-.7zm10.3 10.5c.1 0 .1.1.1.1s.1.1.1.2l.4 1.4c-.7.3-1.3.4-2.1.4-.7-.1-1.5-.3-2.3-.7-.7-.4-1.3-.9-1.8-1.4s-.8-1.2-.9-1.8c-.2-.7-.2-1.3-.1-2.1.1-.7.3-1.4.7-2.1.4-.7.9-1.3 1.4-1.8.6-.5 1.2-.8 1.9-1s1.4-.3 2.1-.2c.7.1 1.5.3 2.2.7.4.2.7.4 1 .6.3.2.5.5.8.7.2.3.4.5.5.8.1.3.3.6.3.9l-1.3.6c-.1 0-.2.1-.3.1-.1 0-.2 0-.3-.1-.1 0-.1-.1-.2-.2s-.1-.2-.2-.2c-.1-.1-.1-.2-.2-.3-.1-.1-.1-.2-.2-.3l-.4-.4c-.2-.1-.3-.3-.6-.4-.4-.2-.8-.3-1.2-.4-.4 0-.8 0-1.2.2s-.7.4-1.1.7c-.3.3-.6.7-.9 1.2-.3.5-.4 1-.5 1.4-.1.5-.1.9 0 1.3s.3.7.5 1c.2.3.5.5.9.7l.6.3c.2.1.4.1.5.1h.5c.2 0 .4 0 .5-.1h.2c.5 0 .6 0 .6.1zm9.1-1.4h.4c.4 0 .7-.1.8-.3l2.8-3.3c.2-.2.3-.3.5-.4.2-.1.4-.1.6 0l2.2.2-3.6 4.1-.4.4c-.1.1-.3.2-.4.2.2.1.3.2.5.3.1.1.3.3.4.5l2.8 5.4-2.3-.2c-.1 0-.3 0-.4-.1-.1 0-.2-.1-.3-.1-.1 0-.1-.1-.2-.2s-.1-.1-.1-.2l-2.1-4c-.1-.1-.2-.3-.3-.3-.1-.1-.3-.1-.5-.1l-.6-.1-.4 4.6-2.5-.2 1-10.9 2.5.2-.4 4.5zM50.4 65c0 .1-.1.2-.2.3-.1.1-.2.1-.3.2h-.4c-.1 0-.3-.1-.5-.1s-.4-.1-.6-.1-.5 0-.7.1c-.5.1-.8.3-.9.6-.2.3-.2.6-.1.9.1.2.2.4.4.5s.4.2.6.2c.2 0 .5.1.8.1h.9c.3 0 .6.1 1 .1l.9.3c.3.2.5.4.8.6.2.3.4.6.5 1.1.1.5.2 1 .1 1.4s-.2.9-.4 1.3-.6.8-1 1.1-.9.6-1.5.7c-.3.1-.7.2-1 .2h-1.1c-.4 0-.7-.1-1-.2s-.7-.2-1-.3l.4-1.3c0-.1.1-.2.2-.3.1-.1.2-.1.3-.2h.5c.2 0 .4.1.6.2s.5.1.7.1c.3 0 .6 0 .9-.1.4-.1.8-.3.9-.6.2-.3.2-.6.1-1-.1-.2-.2-.4-.4-.5-.2-.1-.4-.2-.6-.2-.2 0-.5-.1-.8-.1h-.9c-.3 0-.6 0-1-.1l-.9-.3c-.3-.2-.5-.4-.8-.7-.2-.3-.4-.7-.6-1.2-.1-.4-.1-.8-.1-1.2s.2-.8.4-1.2c.2-.4.5-.7.9-1 .4-.3.9-.5 1.5-.7.3-.1.6-.2 1-.2h.9c.3 0 .6.1.9.1s.5.2.8.3l-.2 1.2zm8.3-7.7l1.2 1.6-2.5 1.8 5.1 7.3-2.1 1.5-5.1-7.3-2.5 1.8-1.2-1.6 7.1-5.1zM73.9 55l-1.1 1.6c-.1.2-.3.3-.4.4h-.5l-1.9-.6-2.4 3.4 1.2 1.6c.1.1.1.3.1.5s0 .4-.2.5L67.5 64 61 54.2l1.5-2.1L73.9 55zm-7.4 3.3l1.7-2.4-3-.9c-.2-.1-.4-.1-.7-.2-.3-.1-.5-.2-.8-.3.2.2.4.5.5.7s.3.4.4.6l1.9 2.5zm6.2-12.4l4 .8-.5 2.5L65.4 47l.7-3.5c.2-.8.4-1.4.7-1.9.3-.5.6-.9.9-1.2.4-.3.7-.5 1.2-.5.4-.1.9-.1 1.3 0 .3.1.7.2 1 .3.3.2.5.4.8.6.2.2.4.5.6.8.1.3.3.7.3 1l.4-.4c.2-.1.3-.2.5-.3l4.2-1.5-.5 2.2c-.1.4-.3.7-.7.8l-3.5 1.1c-.2 0-.3.1-.4.2-.1.1-.1.2-.2.4v.8zm-1.7-.3l.2-1c.1-.3.1-.6.1-.9 0-.3-.1-.5-.2-.7-.1-.2-.3-.3-.5-.4-.2-.1-.4-.2-.6-.2-.5-.1-.9 0-1.2.2-.3.2-.6.7-.7 1.3l-.2 1 3.1.7z"/></svg>