<?xml version="1.0" encoding="utf-8"?>
<!-- Generator: Adobe Illustrator 19.0.0, SVG Export Plug-In . SVG Version: 6.00 Build 0)  -->
<svg version="1.1" id="Layer_1" xmlns="http://www.w3.org/2000/svg" xmlns:xlink="http://www.w3.org/1999/xlink" x="0px" y="0px"
	 viewBox="0 0 79.6 77.8" style="enable-background:new 0 0 79.6 77.8;" xml:space="preserve">
<g id="XMLID_101_">
	<path id="XMLID_102_" d="M14.3,11.8c0.1,0,0.2,0,0.3,0l9.9,2.6c-0.1-0.1-0.2-0.2-0.3-0.3c-0.1-0.1-0.2-0.2-0.2-0.3l-4.6-6l1-0.8
		l6.5,8.5L26.3,16c-0.1,0.1-0.2,0.1-0.3,0.1c-0.1,0-0.2,0-0.3,0l-9.9-2.6c0.1,0.1,0.2,0.2,0.2,0.3c0.1,0.1,0.1,0.2,0.2,0.3l4.7,6.1
		l-1,0.8l-6.5-8.5l0.6-0.5C14.1,11.8,14.2,11.8,14.3,11.8z"/>
	<path id="XMLID_104_" d="M31.8,14l-1.4,0.4L27.2,4.2l1.4-0.4L31.8,14z"/>
	<path id="XMLID_106_" d="M34.4,2.2l1.2,0c0.1,0,0.2,0,0.3,0.1C35.9,2.4,36,2.4,36,2.5l2.9,7.6c0.1,0.2,0.1,0.4,0.2,0.6
		c0.1,0.2,0.1,0.4,0.2,0.6c0-0.2,0.1-0.4,0.2-0.6c0.1-0.2,0.1-0.4,0.2-0.6l3.1-7.5c0-0.1,0.1-0.2,0.2-0.2s0.2-0.1,0.3-0.1l1.2,0
		L39.9,13l-1.3,0L34.4,2.2z"/>
	<path id="XMLID_108_" d="M56.3,6.5l-0.5,1.1l-4.8-2l-1.4,3.3l3.8,1.6l-0.4,1l-3.8-1.6l-1.4,3.4l4.7,2l-0.5,1.1L46,13.8l4.2-9.9
		L56.3,6.5z"/>
	<path id="XMLID_110_" d="M56.3,18.3l3.4,3.2l-0.8,0.9l-4.4-4.2l7.4-7.8l1.1,1L56.3,18.3z"/>
</g>
<g id="XMLID_80_">
	<path id="XMLID_90_" d="M20.1,55.5c0.1,0.1,0.1,0.1,0.1,0.2c0,0.1,0.1,0.1,0.1,0.2c0,0.1,0,0.2,0,0.3l0.2,8.4
		c0.1-0.2,0.2-0.4,0.3-0.5c0.1-0.2,0.2-0.3,0.3-0.5l3.5-4.6l1.8,1.4L19.9,69l-1.1-0.8c-0.2-0.1-0.3-0.2-0.3-0.4
		c-0.1-0.1-0.1-0.3-0.1-0.5L18.2,59c-0.1,0.2-0.2,0.3-0.3,0.5c-0.1,0.2-0.2,0.3-0.3,0.4L14,64.6l-1.8-1.4l6.6-8.7l1.1,0.8
		C20,55.4,20.1,55.4,20.1,55.5z"/>
	<path id="XMLID_88_" d="M27.9,72.2l-2.4-0.8L29,61l2.4,0.8L27.9,72.2z"/>
	<path id="XMLID_86_" d="M35.6,62.9c0.1,0,0.1,0,0.2,0.1c0.1,0,0.1,0.1,0.2,0.1c0.1,0.1,0.1,0.1,0.2,0.2l5.1,6.7c0-0.2,0-0.4,0-0.6
		c0-0.2,0-0.4,0-0.6l0.1-5.8l2.2,0L43.3,74l-1.3,0c-0.2,0-0.4,0-0.5-0.1s-0.3-0.2-0.4-0.3l-5-6.6c0,0.2,0,0.4,0,0.6
		c0,0.2,0,0.4,0,0.5L36,73.8l-2.2,0L34,62.9l1.3,0C35.4,62.9,35.5,62.9,35.6,62.9z"/>
	<path id="XMLID_84_" d="M52.5,67.3c0.2,0.6,0.3,1.1,0.3,1.6s-0.1,1-0.2,1.4s-0.5,0.8-0.8,1.2c-0.4,0.3-0.9,0.6-1.5,0.8
		c-0.3,0.1-0.5,0.2-0.8,0.2c-0.3,0.1-0.6,0.1-0.9,0.1l-0.3-1.4c0-0.1,0-0.2,0-0.3c0.1-0.1,0.2-0.2,0.3-0.2c0.1,0,0.2,0,0.3-0.1
		c0.1,0,0.3-0.1,0.4-0.1c0.2-0.1,0.4-0.2,0.6-0.3s0.3-0.3,0.3-0.5c0.1-0.2,0.1-0.4,0.1-0.7c0-0.3-0.1-0.6-0.2-0.9l-2.3-6.6l2.4-0.8
		L52.5,67.3z"/>
	<path id="XMLID_81_" d="M67,62.5l-1.6,1.2c-0.2,0.1-0.3,0.2-0.5,0.2c-0.2,0-0.3,0-0.5-0.1l-1.7-1.1l-3.3,2.5l0.7,1.9
		c0,0.1,0,0.3,0,0.5c0,0.2-0.2,0.3-0.3,0.5l-1.6,1.2L54.9,58l2.1-1.6L67,62.5z M58.9,63.5l2.4-1.8l-2.6-1.8
		c-0.2-0.1-0.4-0.2-0.6-0.4c-0.2-0.2-0.5-0.3-0.7-0.5c0.1,0.3,0.2,0.6,0.3,0.8c0.1,0.3,0.2,0.5,0.2,0.7L58.9,63.5z"/>
</g>
</svg>
