<?xml version="1.0" encoding="utf-8"?>
<!-- Generator: Adobe Illustrator 16.0.0, SVG Export Plug-In . SVG Version: 6.00 Build 0)  -->
<!DOCTYPE svg PUBLIC "-//W3C//DTD SVG 1.1//EN" "http://www.w3.org/Graphics/SVG/1.1/DTD/svg11.dtd">
<svg version="1.1" id="Layer_1" xmlns="http://www.w3.org/2000/svg" xmlns:xlink="http://www.w3.org/1999/xlink" x="0px" y="0px"
	 width="275px" height="158px" viewBox="-4 0 275 158" enable-background="new -4 0 275 158" xml:space="preserve">
<rect x="4" y="95" fill="#010101" width="255" height="12"/>
<rect x="4" y="107" fill="#010101" width="21" height="35"/>
<rect x="238" y="107" fill="#010101" width="21" height="35"/>
<rect id="svg-screen" x="73.5" y="12.5" fill="#FFFFFF" stroke="#010101" stroke-width="5" stroke-miterlimit="10" width="121" height="75"/>
<g>
	<path fill="#FFFFFF" d="M118.02,143.886c-1.539-0.956-2.229-1.965-2.072-3.022l3.343-4.221l13.373-0.317l1.99,3.104
		c1.698,4.137-1.114,6.209-8.438,6.209C122.609,145.637,119.875,145.052,118.02,143.886z"/>
	<path fill="none" stroke="#010101" stroke-width="3.1838" stroke-miterlimit="3" d="M118.02,143.886
		c1.855,1.166,4.589,1.751,8.195,1.751c7.325,0,10.137-2.07,8.438-6.209l-1.99-3.104l-13.373,0.316l-3.343,4.221
		C115.791,141.921,116.481,142.93,118.02,143.886z"/>
</g>
<g>
	<path fill="#FFFFFF" d="M153.835,140.861c0.161,1.06-0.505,2.068-1.989,3.023c-1.91,1.166-4.644,1.751-8.195,1.751
		c-7.217,0-10.057-2.071-8.518-6.209l2.067-3.104l13.292,0.317l1.593,1.512C153.2,139.322,153.782,140.225,153.835,140.861z"/>
	<path fill="none" stroke="#010101" stroke-width="3.1838" stroke-miterlimit="3" d="M153.835,140.861
		c0.161,1.06-0.505,2.068-1.989,3.023c-1.91,1.166-4.644,1.751-8.195,1.751c-7.217,0-10.057-2.071-8.518-6.209l2.067-3.104
		l13.292,0.317l1.593,1.512C153.2,139.322,153.782,140.225,153.835,140.861z"/>
</g>
<g>
	<path fill="#FFFFFF" d="M134.336,99.712c-0.479,0-0.796,2.358-0.957,7.082c-0.16,5.466-0.236,8.224-0.236,8.276
		c-0.215,1.062,0.289,7.854,1.51,20.378c1.271-12.523,1.803-19.314,1.592-20.378c0-10.238-0.426-15.358-1.273-15.358H134.336z
		 M148.025,92.386c0.797,2.07,1.22,4.062,1.271,5.97c0.105,3.078-0.316,8.356-1.271,15.842c-0.105,1.75,1.248,8.729,4.059,20.935
		c0.159,0.743-0.873,1.669-3.104,2.786c-2.281,1.111-4.537,1.775-6.767,1.989c-2.176,0.159-4.007-0.267-5.493-1.274
		c-1.369-0.949-2.059-1.969-2.068-3.066c-0.013,1.099-0.7,2.117-2.07,3.066c-1.486,1.008-3.315,1.434-5.491,1.274
		c-2.229-0.214-4.458-0.9-6.685-2.071c-2.177-1.165-3.184-2.146-3.025-2.943c2.757-11.676,4.085-18.388,3.979-20.139
		c-0.954-7.854-1.381-13.318-1.275-16.396c0.053-1.909,0.45-3.899,1.194-5.971l1.116-2.547h24.513L148.025,92.386z"/>
</g>
<g>
	<path fill="none" stroke="#010101" stroke-width="3.1838" stroke-miterlimit="3" d="M134.336,99.712
		c-0.479,0-0.796,2.358-0.957,7.082c-0.16,5.466-0.236,8.224-0.236,8.276c-0.215,1.062,0.289,7.854,1.51,20.378
		c1.271-12.523,1.803-19.314,1.592-20.378c0-10.238-0.426-15.358-1.273-15.358H134.336z M148.025,92.386
		c0.797,2.07,1.22,4.062,1.271,5.97c0.105,3.078-0.316,8.356-1.271,15.842c-0.105,1.75,1.248,8.729,4.059,20.935
		c0.159,0.743-0.873,1.669-3.104,2.786c-2.281,1.111-4.537,1.775-6.767,1.989c-2.176,0.159-4.007-0.267-5.493-1.274
		c-1.369-0.949-2.059-1.969-2.068-3.066c-0.013,1.099-0.7,2.117-2.07,3.066c-1.486,1.008-3.315,1.434-5.491,1.274
		c-2.229-0.214-4.458-0.9-6.685-2.071c-2.177-1.165-3.184-2.146-3.025-2.943c2.757-11.676,4.085-18.388,3.979-20.139
		c-0.954-7.854-1.381-13.318-1.275-16.396c0.053-1.909,0.45-3.899,1.194-5.971l1.116-2.547h24.513L148.025,92.386z M134.654,135.448
		v0.116"/>
</g>
<path id="svg-arms" fill="#FFFFFF" stroke="#010101" stroke-width="2" stroke-miterlimit="3" d="M159.076,97.905
	c-2.866-8.278-4.654-11.056-5.719-13.284c-1.006-2.332-3.226-4.6-7.574-6.243L139,76.626V73h-11v3.895
	c-2,0.381-3.715,0.975-5.906,1.802c-4.775,1.75-6.006,4.508-6.855,7.001c0,0-8.006,14.812-8.031,18.989
	c-0.024,4.181,6.871,6.549,9.359,3.019c2.207-3.136,4.203-15.851,5.054-16.592c0.688-0.584,1.237,2.096,1.66,8.038
	c0.48,5.892,0.234,9.339-0.721,10.348c-0.901,0.958,0.343,3.059,3.739,3.587c2.6,0.427,5.329,1.914,8.196,1.914
	c0.052,0,0.105,0,0.158,0c2.863,0,5.596-1.487,8.199-1.914c3.396-0.528,4.643-1.95,3.741-2.907
	c-0.954-1.008-1.194-4.796-0.719-10.687c0.425-5.943,0.981-8.793,1.672-8.211c0.849,0.743,2.079,20.252,7.583,20.118
	C161.836,111.238,161.9,106.169,159.076,97.905z"/>
<g>
	<path fill="#FFFFFF" stroke="#010101" stroke-width="3.1838" stroke-miterlimit="10" d="M147.547,91.113
		c-0.689-0.584-1.247,2.096-1.672,8.037c-0.477,5.893,4.229,17.16,5.184,18.168c0.9,0.957-10.09,3.974-16.325,4.115
		c-6.236,0.143-16.515-2.287-16.024-3.617c0.902-2.851,5.04-12.773,4.561-18.666c-0.421-5.941-0.981-8.621-1.669-8.037
		c-0.596-1.219,1.216-5.795,0.18-12.417c2.388-0.901,2.094-0.858,4.323-1.232c0,0,1.238,9.22,8.5,9.126
		c7.261-0.093,7.395-8.832,7.395-8.832l4.438,0.62C145.58,87.807,148.344,89.697,147.547,91.113z"/>
</g>
<g>
	<path fill="#010101" d="M102.347,17.168c-3.555,4.936-6.206,11.967-7.96,21.093c-1.856,9.339-1.775,16.053,0.239,20.138
		c1.804,3.661,2.495,8.171,2.071,13.53c-0.373,4.405-1.141,7.51-2.31,9.313c-1.166,1.803-1.937,1.433-2.307-1.113
		c-1.274,2.493-0.556,3.951,2.148,4.377c1.433,0.266,2.336,0,2.708-0.796l0.159-1.274c0.638,1.646,7.761,14.941,29.21,14.965
		c42.611-0.797,35.738-20.507,41.308-45.129c2.656-11.675,1.246-21.571-4.221-29.69c-3.869-5.784-9.259-10.161-16.153-13.133
		c-6.688-2.76-11.834-2.812-15.442-0.159c-2.226-2.653-6.791-3.184-13.69-1.592C110.943,9.396,105.692,12.553,102.347,17.168z"/>
</g>
<g>
	<path fill="#010101" d="M174.021,66.757c-0.049,0.762-0.408,1.372-1.076,1.832c-0.795,0.635-1.695,0.767-2.705,0.397
		c-2.65-1.062-3.395-4.513-2.229-10.348c2.918-14.805,1.696-25.921-3.658-33.351c-2.656-3.714-5.602-5.97-8.838-6.765
		c8.438,12.469,12.524,22.232,12.256,29.29c-0.104,3.557-0.58,8.861-1.43,15.919c-0.32,5.359,0.608,8.197,2.786,8.516
		C172.51,72.754,174.145,70.924,174.021,66.757z"/>
</g>
<g>
	<path fill="none" stroke="#010101" stroke-width="3.1838" stroke-miterlimit="3" d="M101.712,41.047
		c0-7.533,2.916-13.954,8.755-19.261c5.835-5.359,12.894-8.039,21.171-8.039c8.117,0,15.016,2.546,20.694,7.642
		c5.677,5.094,8.729,11.354,9.152,18.784c0.105,1.062-0.239,4.883-1.034,11.461c-0.796,6.687-1.378,10.666-1.751,11.941
		c-0.69,2.229-3.717,4.67-9.072,7.321c-5.893,2.919-11.887,4.457-17.989,4.618l0,0c-6.101-0.161-12.18-1.62-18.069-4.537
		c-5.36-2.654-8.385-5.094-9.072-7.324c-0.373-1.167-0.931-5.042-1.672-11.621C102.082,45.77,101.712,42.109,101.712,41.047z"/>
</g>
<g>
	<path fill="#010101" d="M99.243,41.287c-0.532,3.343,1.91,5.016,7.322,5.016c3.396,0,6.819-4.565,10.269-13.692l4.139-13.689
		c-0.373,2.333,0.98,4.377,4.058,6.128c-1.803-3.98-1.485-6.473,0.958-7.482c1.536-0.636,2.997-0.662,4.375-0.079l1.592,1.036
		c2.708-1.273,5.147-1.407,7.326-0.398c2.226,1.062,4.004,3.556,5.331,7.482c1.803,5.094,2.096,11.275,0.873,18.546
		c3.82-5.786,4.459-13.558,1.912-23.322c1.752,0.531,3.529,2.016,5.332,4.458c3.559,4.934,5.49,12.258,5.812,21.968
		c0.316,9.71-0.743,17.616-3.186,23.721c-1.223,3.077-2.469,5.173-3.738,6.286c1.855-1.166,3.793-3.236,5.808-6.207
		c3.979-5.891,6.261-13.188,6.847-21.89l-7.959-29.688l-12.578-7.084l-13.688-2.07l-11.94,2.866l-4.057,4.696l-9.315,5.015
		l-4.614,9.79l-5.096,6.607c-1.166,2.069-0.901,8.17,0.796,18.306l3.902,1.394c-1.179-0.919-2.186-2.496-3.025-4.734
		c-1.116-2.974-1.673-6.022-1.673-9.153c0-1.912,0.691-3.131,2.071-3.664L99.243,41.287z"/>
</g>
<g>
	<path fill="none" stroke="#010101" stroke-width="1.5919" stroke-miterlimit="3" d="M138.873,66.836
		c0,2.175-1.673,3.263-5.015,3.263c-3.396,0-5.094-1.088-5.094-3.263"/>
</g>
<g>
	<circle fill="#FFFFFF" stroke="#010101" stroke-width="1.9204" stroke-miterlimit="10" cx="133.739" cy="147.348" r="4.234"/>
	<rect x="130" y="119" fill="#FFFFFF" stroke="#010101" stroke-width="4" stroke-miterlimit="10" width="7" height="27"/>
	<path fill="#010101" stroke="#010101" stroke-width="4" stroke-miterlimit="10" d="M164,124.827c0,2.856-2.316,5.173-5.173,5.173
		h-47.654c-2.857,0-5.173-2.316-5.173-5.173v-0.654c0-2.856,2.316-5.173,5.173-5.173h47.654c2.856,0,5.173,2.316,5.173,5.173
		V124.827z"/>
	<path fill="#010101" stroke="#010101" stroke-width="2" stroke-miterlimit="10" d="M154,94.916c0,3.912-3.172,7.084-7.084,7.084
		h-27.832c-3.913,0-7.084-3.172-7.084-7.084V84.084c0-3.912,3.171-7.084,7.084-7.084h27.832c3.912,0,7.084,3.172,7.084,7.084V94.916
		z"/>
	<rect x="130" y="94" fill="#FFFFFF" stroke="#010101" stroke-width="4" stroke-miterlimit="10" width="7" height="28"/>
	<rect x="114" y="144" fill="#FFFFFF" stroke="#010101" stroke-width="4" stroke-miterlimit="10" width="42" height="4"/>
	<circle fill="#FFFFFF" stroke="#010101" stroke-width="3.1838" stroke-miterlimit="10" cx="113.842" cy="147.203" r="5.572"/>
	<circle fill="#FFFFFF" stroke="#010101" stroke-width="3.1838" stroke-miterlimit="10" cx="155.23" cy="147.203" r="5.571"/>
</g>
<g id="papers">
	<rect x="1" y="89.5" fill="#FFFFFF" stroke="#000000" stroke-width="2" stroke-miterlimit="10" width="65.667" height="5.5"/>
	<rect x="3" y="83.5" fill="#FFFFFF" stroke="#000000" stroke-width="2" stroke-miterlimit="10" width="65.667" height="5.5"/>
	<rect x="0.5" y="75" fill="#FFFFFF" stroke="#000000" stroke-width="2" stroke-miterlimit="10" width="69.167" height="8"/>
	<rect x="0.5" y="69.333" fill="#FFFFFF" stroke="#000000" stroke-width="2" stroke-miterlimit="10" width="64" height="5.667"/>
	<rect x="-1.5" y="61.5" fill="#FFFFFF" stroke="#000000" stroke-width="2" stroke-miterlimit="10" width="70.167" height="7.5"/>
	<rect x="2" y="57.25" fill="#FFFFFF" stroke="#000000" stroke-width="2" stroke-miterlimit="10" width="59.667" height="3.75"/>
	<rect x="0.5" y="53.25" fill="#FFFFFF" stroke="#000000" stroke-width="2" stroke-miterlimit="10" width="66.167" height="3.75"/>
	<rect x="3" y="46.167" fill="#FFFFFF" stroke="#000000" stroke-width="2" stroke-miterlimit="10" width="65.667" height="6.833"/>
	<rect x="-2.667" y="41" fill="#FFFFFF" stroke="#000000" stroke-width="2" stroke-miterlimit="10" width="68.667" height="5"/>
	
		<rect x="-0.667" y="33.667" fill="#FFFFFF" stroke="#000000" stroke-width="2" stroke-miterlimit="10" width="68.667" height="7.333"/>
	<rect x="202.999" y="89" fill="#FFFFFF" stroke="#000000" stroke-width="2" stroke-miterlimit="10" width="62.667" height="6"/>
	
		<rect x="200.999" y="84.667" fill="#FFFFFF" stroke="#000000" stroke-width="2" stroke-miterlimit="10" width="62.667" height="4.333"/>
	
		<rect x="202.999" y="80.667" fill="#FFFFFF" stroke="#000000" stroke-width="2" stroke-miterlimit="10" width="62.667" height="4.333"/>
	<rect x="199.499" y="73" fill="#FFFFFF" stroke="#000000" stroke-width="2" stroke-miterlimit="10" width="68" height="8"/>
	
		<rect x="201.999" y="68.468" fill="#FFFFFF" stroke="#000000" stroke-width="2" stroke-miterlimit="10" width="57.001" height="4.532"/>
	<rect x="201.999" y="61.5" fill="#FFFFFF" stroke="#000000" stroke-width="2" stroke-miterlimit="10" width="63" height="6.5"/>
	<rect x="205.832" y="57" fill="#FFFFFF" stroke="#000000" stroke-width="2" stroke-miterlimit="10" width="61" height="4"/>
	<rect x="202.999" y="50" fill="#FFFFFF" stroke="#000000" stroke-width="2" stroke-miterlimit="10" width="62.667" height="7"/>
	
		<rect x="200.999" y="44.631" fill="#FFFFFF" stroke="#000000" stroke-width="2" stroke-miterlimit="10" width="66.5" height="5.369"/>
	
		<rect x="204.332" y="35.333" fill="#FFFFFF" stroke="#000000" stroke-width="2" stroke-miterlimit="10" width="64.5" height="9.667"/>
</g>
</svg>
