<svg xmlns="http://www.w3.org/2000/svg" width="275" height="158" viewBox="-4 0 275 158"><path fill="#010101" d="M4 95h255v12H4zm0 12h21v35H4zm234 0h21v35h-21z"/><path fill="#FFF" stroke="#010101" stroke-width="5" stroke-miterlimit="10" d="M73.5 12.5h121v75h-121z"/><path fill="#FFF" d="M118.02 143.886c-1.539-.956-2.229-1.965-2.072-3.022l3.343-4.221 13.373-.317 1.99 3.104c1.698 4.137-1.114 6.209-8.438 6.209-3.607-.002-6.341-.587-8.196-1.753z"/><path fill="none" stroke="#010101" stroke-width="3.184" stroke-miterlimit="3" d="M118.02 143.886c1.855 1.166 4.589 1.751 8.195 1.751 7.325 0 10.137-2.07 8.438-6.209l-1.99-3.104-13.373.316-3.343 4.221c-.156 1.06.534 2.069 2.073 3.025z"/><path fill="#FFF" d="M153.835 140.861c.161 1.06-.505 2.068-1.989 3.023-1.91 1.166-4.644 1.751-8.195 1.751-7.217 0-10.057-2.071-8.518-6.209l2.067-3.104 13.292.317 1.593 1.512c1.115 1.171 1.697 2.074 1.75 2.71z"/><path fill="none" stroke="#010101" stroke-width="3.184" stroke-miterlimit="3" d="M153.835 140.861c.161 1.06-.505 2.068-1.989 3.023-1.91 1.166-4.644 1.751-8.195 1.751-7.217 0-10.057-2.071-8.518-6.209l2.067-3.104 13.292.317 1.593 1.512c1.115 1.171 1.697 2.074 1.75 2.71z"/><path fill="#FFF" d="M134.336 99.712c-.479 0-.796 2.358-.957 7.082-.16 5.466-.236 8.224-.236 8.276-.215 1.062.289 7.854 1.51 20.378 1.271-12.523 1.803-19.314 1.592-20.378 0-10.238-.426-15.358-1.273-15.358h-.636zm13.689-7.326c.797 2.07 1.22 4.062 1.271 5.97.105 3.078-.316 8.356-1.271 15.842-.105 1.75 1.248 8.729 4.059 20.935.159.743-.873 1.669-3.104 2.786-2.281 1.111-4.537 1.775-6.767 1.989-2.176.159-4.007-.267-5.493-1.274-1.369-.949-2.059-1.969-2.068-3.066-.013 1.099-.7 2.117-2.07 3.066-1.486 1.008-3.315 1.434-5.491 1.274-2.229-.214-4.458-.9-6.685-2.071-2.177-1.165-3.184-2.146-3.025-2.943 2.757-11.676 4.085-18.388 3.979-20.139-.954-7.854-1.381-13.318-1.275-16.396.053-1.909.45-3.899 1.194-5.971l1.116-2.547h24.513l1.117 2.545z"/><path fill="none" stroke="#010101" stroke-width="3.184" stroke-miterlimit="3" d="M134.336 99.712c-.479 0-.796 2.358-.957 7.082-.16 5.466-.236 8.224-.236 8.276-.215 1.062.289 7.854 1.51 20.378 1.271-12.523 1.803-19.314 1.592-20.378 0-10.238-.426-15.358-1.273-15.358h-.636zm13.689-7.326c.797 2.07 1.22 4.062 1.271 5.97.105 3.078-.316 8.356-1.271 15.842-.105 1.75 1.248 8.729 4.059 20.935.159.743-.873 1.669-3.104 2.786-2.281 1.111-4.537 1.775-6.767 1.989-2.176.159-4.007-.267-5.493-1.274-1.369-.949-2.059-1.969-2.068-3.066-.013 1.099-.7 2.117-2.07 3.066-1.486 1.008-3.315 1.434-5.491 1.274-2.229-.214-4.458-.9-6.685-2.071-2.177-1.165-3.184-2.146-3.025-2.943 2.757-11.676 4.085-18.388 3.979-20.139-.954-7.854-1.381-13.318-1.275-16.396.053-1.909.45-3.899 1.194-5.971l1.116-2.547h24.513l1.117 2.545zm-13.371 43.062v.116"/><path fill="#FFF" stroke="#010101" stroke-width="2" stroke-miterlimit="3" d="M159.076 97.905c-2.866-8.278-4.654-11.056-5.719-13.284-1.006-2.332-3.226-4.6-7.574-6.243L139 76.626V73h-11v3.895c-2 .381-3.715.975-5.906 1.802-4.775 1.75-6.006 4.508-6.855 7.001 0 0-8.006 14.812-8.031 18.989-.024 4.181 6.871 6.549 9.359 3.019 2.207-3.136 4.203-15.851 5.054-16.592.688-.584 1.237 2.096 1.66 8.038.48 5.892.234 9.339-.721 10.348-.901.958.343 3.059 3.739 3.587 2.6.427 5.329 1.914 8.196 1.914h.158c2.863 0 5.596-1.487 8.199-1.914 3.396-.528 4.643-1.95 3.741-2.907-.954-1.008-1.194-4.796-.719-10.687.425-5.943.981-8.793 1.672-8.211.849.743 2.079 20.252 7.583 20.118 6.707-.162 6.771-5.231 3.947-13.495z"/><path fill="#FFF" stroke="#010101" stroke-width="3.184" stroke-miterlimit="10" d="M147.547 91.113c-.689-.584-1.247 2.096-1.672 8.037-.477 5.893 4.229 17.16 5.184 18.168.9.957-10.09 3.974-16.325 4.115-6.236.143-16.515-2.287-16.024-3.617.902-2.851 5.04-12.773 4.561-18.666-.421-5.941-.981-8.621-1.669-8.037-.596-1.219 1.216-5.795.18-12.417 2.388-.901 2.094-.858 4.323-1.232 0 0 1.238 9.22 8.5 9.126 7.261-.093 7.395-8.832 7.395-8.832l4.438.62c-.858 9.429 1.906 11.319 1.109 12.735z"/><path fill="#010101" d="M102.347 17.168c-3.555 4.936-6.206 11.967-7.96 21.093-1.856 9.339-1.775 16.053.239 20.138 1.804 3.661 2.495 8.171 2.071 13.53-.373 4.405-1.141 7.51-2.31 9.313-1.166 1.803-1.937 1.433-2.307-1.113-1.274 2.493-.556 3.951 2.148 4.377 1.433.266 2.336 0 2.708-.796l.159-1.274c.638 1.646 7.761 14.941 29.21 14.965 42.611-.797 35.738-20.507 41.308-45.129 2.656-11.675 1.246-21.571-4.221-29.69-3.869-5.784-9.259-10.161-16.153-13.133-6.688-2.76-11.834-2.812-15.442-.159-2.226-2.653-6.791-3.184-13.69-1.592-7.164 1.698-12.415 4.855-15.76 9.47z"/><path fill="#010101" d="M174.021 66.757c-.049.762-.408 1.372-1.076 1.832-.795.635-1.695.767-2.705.397-2.65-1.062-3.395-4.513-2.229-10.348 2.918-14.805 1.696-25.921-3.658-33.351-2.656-3.714-5.602-5.97-8.838-6.765 8.438 12.469 12.524 22.232 12.256 29.29-.104 3.557-.58 8.861-1.43 15.919-.32 5.359.608 8.197 2.786 8.516 3.383.507 5.018-1.323 4.894-5.49z"/><path fill="none" stroke="#010101" stroke-width="3.184" stroke-miterlimit="3" d="M101.712 41.047c0-7.533 2.916-13.954 8.755-19.261 5.835-5.359 12.894-8.039 21.171-8.039 8.117 0 15.016 2.546 20.694 7.642 5.677 5.094 8.729 11.354 9.152 18.784.105 1.062-.239 4.883-1.034 11.461-.796 6.687-1.378 10.666-1.751 11.941-.69 2.229-3.717 4.67-9.072 7.321-5.893 2.919-11.887 4.457-17.989 4.618h0c-6.101-.161-12.18-1.62-18.069-4.537-5.36-2.654-8.385-5.094-9.072-7.324-.373-1.167-.931-5.042-1.672-11.621-.743-6.262-1.113-9.923-1.113-10.985z"/><path fill="#010101" d="M99.243 41.287c-.532 3.343 1.91 5.016 7.322 5.016 3.396 0 6.819-4.565 10.269-13.692l4.139-13.689c-.373 2.333.98 4.377 4.058 6.128-1.803-3.98-1.485-6.473.958-7.482 1.536-.636 2.997-.662 4.375-.079l1.592 1.036c2.708-1.273 5.147-1.407 7.326-.398 2.226 1.062 4.004 3.556 5.331 7.482 1.803 5.094 2.096 11.275.873 18.546 3.82-5.786 4.459-13.558 1.912-23.322 1.752.531 3.529 2.016 5.332 4.458 3.559 4.934 5.49 12.258 5.812 21.968.316 9.71-.743 17.616-3.186 23.721-1.223 3.077-2.469 5.173-3.738 6.286 1.855-1.166 3.793-3.236 5.808-6.207 3.979-5.891 6.261-13.188 6.847-21.89l-7.959-29.688-12.578-7.084-13.688-2.07-11.94 2.866-4.057 4.696-9.315 5.015-4.614 9.79-5.096 6.607c-1.166 2.069-.901 8.17.796 18.306l3.902 1.394c-1.179-.919-2.186-2.496-3.025-4.734a25.84 25.84 0 01-1.673-9.153c0-1.912.691-3.131 2.071-3.664l2.146-.163z"/><path fill="none" stroke="#010101" stroke-width="1.592" stroke-miterlimit="3" d="M138.873 66.836c0 2.175-1.673 3.263-5.015 3.263-3.396 0-5.094-1.088-5.094-3.263"/><g stroke="#010101" stroke-miterlimit="10"><circle fill="#FFF" stroke-width="1.92" cx="133.739" cy="147.348" r="4.234"/><path fill="#FFF" stroke-width="4" d="M130 119h7v27h-7z"/><path fill="#010101" stroke-width="4" d="M164 124.827a5.174 5.174 0 01-5.173 5.173h-47.654a5.173 5.173 0 01-5.173-5.173v-.654a5.174 5.174 0 015.173-5.173h47.654a5.174 5.174 0 015.173 5.173v.654z"/><path fill="#010101" stroke-width="2" d="M154 94.916a7.084 7.084 0 01-7.084 7.084h-27.832A7.084 7.084 0 01112 94.916V84.084A7.084 7.084 0 01119.084 77h27.832A7.084 7.084 0 01154 84.084v10.832z"/><path fill="#FFF" stroke-width="4" d="M130 94h7v28h-7zm-16 50h42v4h-42z"/><circle fill="#FFF" stroke-width="3.184" cx="113.842" cy="147.203" r="5.572"/><circle fill="#FFF" stroke-width="3.184" cx="155.23" cy="147.203" r="5.571"/></g><g fill="#FFF" stroke="#000" stroke-width="2" stroke-miterlimit="10"><path d="M1 89.5h65.667V95H1zm2-6h65.667V89H3zM.5 75h69.167v8H.5zm0-5.667h64V75H.5zm-2-7.833h70.167V69H-1.5zM2 57.25h59.667V61H2zm-1.5-4h66.167V57H.5zM3 46.167h65.667V53H3zM-2.667 41H66v5H-2.667zm2-7.333H68V41H-.667zM202.999 89h62.667v6h-62.667zm-2-4.333h62.667V89h-62.667z"/><path d="M202.999 80.667h62.667V85h-62.667z"/><path d="M199.499 73h68v8h-68zm2.5-4.532H259V73h-57.001zm0-6.968h63V68h-63zm3.833-4.5h61v4h-61zm-2.833-7h62.667v7h-62.667zm-2-5.369h66.5V50h-66.5z"/><path d="M204.332 35.333h64.5V45h-64.5z"/></g></svg>