<svg xmlns="http://www.w3.org/2000/svg" xmlns:xlink="http://www.w3.org/1999/xlink" width="137.75" height="65"><defs><circle id="a" cx="34.315" cy="32.706" r="28.693"/></defs><clipPath id="b"><use xlink:href="#a" overflow="visible"/></clipPath><g clip-path="url(#b)"><path fill-rule="evenodd" clip-rule="evenodd" fill="#010101" d="M75.143 12.838c2.649 3.677 4.625 8.916 5.931 15.714 1.383 6.958 1.323 11.959-.179 15.003-1.344 2.728-1.857 6.087-1.541 10.081.276 3.281.85 5.594 1.72 6.938.87 1.345 1.443 1.068 1.72-.829.948 1.857.415 2.944-1.602 3.261-1.067.197-1.74 0-2.017-.593l-.118-.95c-.475 1.225-5.781 11.131-21.763 11.149-31.746-.592-26.626-15.278-30.777-33.621-1.977-8.698-.929-16.071 3.144-22.12 2.885-4.309 6.898-7.57 12.037-9.784 4.981-2.056 8.815-2.095 11.504-.12 1.66-1.976 5.06-2.372 10.199-1.186 5.337 1.266 9.25 3.618 11.742 7.057z"/><path fill-rule="evenodd" clip-rule="evenodd" fill="#010101" d="M21.743 49.783c.037.567.303 1.022.801 1.364.593.474 1.265.572 2.015.296 1.977-.791 2.53-3.361 1.661-7.709-2.175-11.031-1.265-19.312 2.728-24.847 1.977-2.767 4.171-4.448 6.582-5.041-6.286 9.29-9.331 16.563-9.131 21.822.079 2.65.435 6.602 1.067 11.86.237 3.994-.455 6.108-2.076 6.346-2.521.377-3.736-.987-3.647-4.091z"/><path fill-rule="evenodd" clip-rule="evenodd" fill="#FFF" d="M49.644 58.915v-5.1h8.479v5.1c-1.027.513-2.451.752-4.269.711l-4.21-.711z"/><path clip-rule="evenodd" fill="none" stroke="#010101" stroke-width="2.372" stroke-miterlimit="3" d="M49.644 58.915v-5.1h8.479v5.1c-1.027.513-2.451.752-4.269.711l-4.21-.711z"/><path fill="#FFF" stroke="#010101" stroke-width="1.186" stroke-miterlimit="10" d="M80.36 35.372c.634 1.543.238 3.54-1.186 5.99-1.502 2.569-3.242 3.696-5.218 3.38l1.186-9.844.238-.534 2.075-.534c1.464-.118 2.432.396 2.905 1.542z"/><path fill-rule="evenodd" clip-rule="evenodd" fill="#FFF" d="M75.617 30.628c0 .791-.277 3.519-.83 8.184-.553 4.902-.969 7.788-1.246 8.658-.513 1.661-2.767 3.479-6.759 5.456-4.389 2.174-8.856 3.321-13.402 3.439l-.06-.059c-4.546-.118-9.013-1.265-13.401-3.44-3.993-1.976-6.247-3.794-6.761-5.455-.277-.949-.711-3.914-1.304-8.895-.593-4.901-.85-7.749-.771-8.54.316-5.535 2.589-10.199 6.819-13.994 4.229-3.795 9.37-5.693 15.418-5.693 6.167 0 11.426 1.996 15.773 5.989 4.349 3.954 6.524 8.738 6.524 14.35z"/><path clip-rule="evenodd" fill="none" stroke="#010101" stroke-width="2.372" stroke-miterlimit="3" d="M75.617 30.628c0-5.613-2.175-10.396-6.523-14.35-4.348-3.994-9.606-5.989-15.773-5.989-6.048 0-11.188 1.897-15.418 5.693-4.23 3.795-6.503 8.459-6.819 13.994-.079.791.178 3.638.771 8.54.593 4.981 1.027 7.946 1.304 8.895.514 1.661 2.768 3.479 6.761 5.455 4.388 2.175 8.855 3.322 13.401 3.44l.06.059c4.546-.118 9.013-1.265 13.402-3.439 3.992-1.977 6.246-3.795 6.759-5.456.277-.87.693-3.756 1.246-8.658.552-4.665.829-7.393.829-8.184z"/><path fill-rule="evenodd" clip-rule="evenodd" fill="#010101" d="M77.456 30.807c.395 2.49-1.424 3.736-5.456 3.736-2.53 0-5.08-3.4-7.65-10.2l-3.083-10.199c.276 1.739-.73 3.262-3.024 4.566 1.343-2.965 1.107-4.823-.712-5.575-1.146-.474-2.233-.493-3.26-.059l-1.186.771c-2.018-.949-3.836-1.048-5.456-.296-1.66.791-2.985 2.648-3.974 5.574-1.343 3.794-1.561 8.4-.651 13.816-2.847-4.31-3.322-10.101-1.424-17.375-1.304.395-2.629 1.501-3.973 3.321-2.649 3.676-4.091 9.132-4.33 16.367-.236 7.234.554 13.125 2.372 17.671.91 2.293 1.839 3.854 2.788 4.684-1.384-.869-2.827-2.412-4.328-4.625-2.965-4.388-4.665-9.825-5.101-16.307l5.93-22.12 9.37-5.278 10.199-1.542 8.895 2.135 3.024 3.499 6.938 3.736 3.438 7.293 3.796 4.922c.869 1.542.671 6.087-.594 13.639l-2.904 1.04c.878-.685 1.628-1.86 2.254-3.528a19.278 19.278 0 001.245-6.82c0-1.423-.515-2.333-1.542-2.729l-1.601-.117z"/><path fill-rule="evenodd" clip-rule="evenodd" fill="#010101" d="M42.707 42.488c0-1.976.572-2.965 1.719-2.965s1.72.989 1.72 2.965c0 2.017-.573 3.025-1.72 3.025s-1.719-1.008-1.719-3.025zm17.136 0c0-1.976.574-2.965 1.72-2.965 1.186 0 1.778.989 1.778 2.965 0 2.017-.593 3.025-1.778 3.025-1.146.001-1.72-1.008-1.72-3.025z"/><path clip-rule="evenodd" fill="none" stroke="#010101" stroke-width="1.186" stroke-miterlimit="3" d="M57.057 49.842c0 1.62-1.245 2.431-3.736 2.431-2.53 0-3.794-.811-3.794-2.431"/><path fill-rule="evenodd" clip-rule="evenodd" fill="#F8BFD8" d="M34.878 45.691c0-1.146 1.265-1.72 3.795-1.72 2.49 0 3.736.575 3.736 1.72 0 1.146-1.247 1.72-3.736 1.72-2.53 0-3.795-.574-3.795-1.72zm32.971-1.72c2.491 0 3.736.575 3.736 1.72 0 1.146-1.245 1.72-3.736 1.72-2.49 0-3.735-.573-3.735-1.72-.001-1.146 1.244-1.72 3.735-1.72z"/></g><circle clip-rule="evenodd" fill="none" cx="34.315" cy="32.706" r="28.693"/><circle clip-rule="evenodd" fill="none" stroke="#010101" stroke-width="3.558" stroke-miterlimit="3" cx="34.315" cy="32.706" r="28.693"/><path d="M99.438 19.768c0 .292-.082.491-.245.6a1.011 1.011 0 01-.573.164c-.292.037-.501-.1-.628-.409-.128-.308-.354-.699-.682-1.173l-1.146-1.583c-.689-.581-1.436-.872-2.236-.872-.8 0-1.628.264-2.481.791-.855.527-1.755 1.264-2.701 2.209v17.294c0 .365.164.646.491.846.327.2.69.382 1.091.545.4.165.765.337 1.091.519.328.182.491.437.491.763 0 .545-.345.819-1.036.819h-8.511c-.728 0-1.091-.273-1.091-.819 0-.327.163-.582.49-.763.328-.182.7-.354 1.119-.519a7.096 7.096 0 001.118-.545c.327-.199.491-.463.491-.791V17.367c0-.399-.164-.662-.491-.791a4.844 4.844 0 00-1.118-.272 12.959 12.959 0 01-1.119-.191c-.327-.073-.49-.273-.49-.6 0-.255.153-.5.463-.737s.691-.437 1.146-.6a8.881 8.881 0 011.418-.382 7.26 7.26 0 011.282-.137h2.073c.727 0 1.091.346 1.091 1.037v2.673c1.018-1.272 2.092-2.253 3.219-2.945 1.127-.69 2.328-1.037 3.601-1.037.765 0 1.855.254 3.274.763l.545 5.346c0 .074.009.128.027.165a.231.231 0 01.027.109zm13.202 19.694c0 .545-.345.819-1.036.819h-8.511c-.728 0-1.091-.273-1.091-.819 0-.399.163-.717.491-.954a7.301 7.301 0 011.118-.655 9.035 9.035 0 001.118-.627c.327-.218.491-.527.491-.928V24.483c0-.399-.164-.663-.491-.791a4.844 4.844 0 00-1.118-.272 12.865 12.865 0 01-1.118-.191c-.328-.073-.491-.273-.491-.6 0-.254.154-.5.463-.736a4.24 4.24 0 011.146-.6 8.881 8.881 0 011.418-.382c.491-.09.918-.136 1.282-.136h2.073c.728 0 1.091.346 1.091 1.036v14.434c0 .401.164.719.491.956.328.236.69.463 1.091.681.4.219.765.446 1.091.682.329.235.492.536.492.898zm-3.164-23.981c0 1.383-.8 2.073-2.399 2.073-1.565 0-2.365-.709-2.401-2.128 0-1.418.801-2.127 2.401-2.127 1.599 0 2.399.729 2.399 2.182zm25.15 17.38c0 2.51-.801 4.383-2.401 5.62s-3.945 1.854-7.037 1.854c-1.273 0-2.61-.145-4.01-.437-1.4-.291-2.864-.782-4.392-1.473l-1.036-5.564c0-.582.437-.873 1.31-.873.509 0 .854.273 1.036.819l.818 2.399c.363.8.973 1.473 1.827 2.019.854.545 1.991.819 3.41.819 2.182 0 3.782-.51 4.801-1.528 1.018-1.018 1.527-2.292 1.527-3.818 0-1.855-2.31-3.62-6.929-5.293-4.583-1.673-6.873-4.236-6.873-7.692 0-2.073.772-3.683 2.318-4.829 1.545-1.146 3.736-1.719 6.574-1.719 1.091 0 2.218.12 3.382.354 1.164.237 2.328.628 3.492 1.173l1.036 5.565c0 .546-.347.818-1.036.818-.692 0-1.129-.253-1.311-.763l-.817-2.401c-.51-.799-1.083-1.454-1.719-1.963-.637-.51-1.5-.764-2.591-.764-1.747 0-3.048.382-3.901 1.145-.855.765-1.282 1.765-1.282 3.001 0 2.146 2.31 4.056 6.929 5.729 2.401.874 4.146 1.955 5.237 3.247s1.638 2.81 1.638 4.555zM73.776 48.16c0-.014-.022-.021-.064-.021a.688.688 0 00-.171-.096c-.057-.022-.121-.046-.192-.075a1.769 1.769 0 01-.501-.309.585.585 0 01-.203-.459c.085-.142.178-.256.277-.341a.569.569 0 01.385-.129l2.731-.021c.186 0 .346.042.48.127.136.086.203.229.203.428a.497.497 0 01-.276.469 7.922 7.922 0 01-.514.257l-.405.203a.565.565 0 00-.278.309l-3.201 8.646h-1.004l-3.415-8.625a.594.594 0 00-.246-.309 2.733 2.733 0 00-.438-.224 4.742 4.742 0 01-.522-.257.498.498 0 01-.268-.469c.029-.199.111-.338.245-.416a.898.898 0 01.46-.118h3.33a.94.94 0 01.48.118c.135.078.203.217.203.416 0 .156-.075.288-.225.395a2.788 2.788 0 01-.522.288 1.782 1.782 0 01-.172.074 1.798 1.798 0 00-.17.075c0 .014-.016.021-.043.021 0 .015.004.029.011.043.007.015.01.036.01.063l2.093 5.508 1.922-5.571zm12.145 4.163h-5.825c.027 1.054.291 1.887.79 2.498.498.611 1.152.917 1.963.917.285 0 .609-.039.972-.117a9.791 9.791 0 001.248-.373c.172 0 .339.031.502.095.163.065.245.204.245.417 0 .185-.127.362-.383.534-.257.17-.56.32-.908.448-.349.127-.7.232-1.057.31a4.084 4.084 0 01-.832.117c-.74 0-1.41-.134-2.008-.405a4.558 4.558 0 01-1.536-1.12 4.948 4.948 0 01-.982-1.688 6.35 6.35 0 01-.342-2.124c0-.739.114-1.433.343-2.082a5.174 5.174 0 01.963-1.686c.414-.476.91-.854 1.488-1.132.576-.277 1.223-.416 1.937-.416 1.368 0 2.386.469 3.049 1.408s.995 2.22.995 3.843c0 .186-.058.325-.171.417a.698.698 0 01-.451.139zm-3.648-4.398c-.641 0-1.122.245-1.442.732-.319.488-.537 1.227-.651 2.216 0 .071.008.109.022.116.014.008.05.011.107.011h4.056a.359.359 0 00.129-.012c.014-.007.021-.045.021-.116a8.104 8.104 0 00-.213-1.399c-.1-.382-.238-.686-.417-.912a1.495 1.495 0 00-.661-.488 2.741 2.741 0 00-.951-.148zm12.316 1.858c-.142.014-.252-.01-.33-.075a.498.498 0 01-.159-.203.277.277 0 01-.065-.096.296.296 0 00-.063-.096.588.588 0 00-.129-.213l-.426-.555a1.075 1.075 0 00-.684-.256c-.47 0-1.054.32-1.751.96v6.34c0 .101.046.164.139.192.093.029.196.065.311.108.185.057.341.127.47.213.07.043.142.104.213.182a.441.441 0 01.106.309c0 .199-.067.342-.203.426a.873.873 0 01-.479.128h-3.331a.889.889 0 01-.469-.128c-.143-.084-.214-.227-.214-.426a.48.48 0 01.268-.46c.177-.091.352-.173.521-.244.115-.043.222-.079.321-.108.1-.028.149-.084.149-.17v-7.259c0-.085-.046-.124-.139-.117s-.183-.003-.267-.032a1.69 1.69 0 01-.491-.064.697.697 0 01-.245-.149c-.079-.072-.118-.178-.118-.321 0-.127.068-.249.203-.362.135-.114.306-.213.513-.299.206-.086.419-.153.64-.203s.416-.075.588-.075h.811c.199 0 .366.053.501.16.136.107.203.268.203.48v.321c.712-.712 1.509-1.068 2.392-1.068.199 0 .419.029.661.086.242.057.534.149.876.276l.235 2.178v.022c0 .014.003.024.01.032a.043.043 0 01.011.031c0 .213-.067.356-.203.428a.825.825 0 01-.376.107zm7.281 11.527h-3.438a5.36 5.36 0 01-.907-.084 2.544 2.544 0 01-.896-.342 2.07 2.07 0 01-.684-.693c-.178-.292-.268-.673-.268-1.144 0-.455.11-.843.331-1.163.222-.321.538-.601.95-.843.313-.171.562-.249.747-.235.186 0 .354.057.503.171.149.113.224.248.224.405 0 .113-.071.242-.214.384l-.299.299c-.1.114-.182.227-.245.341a.785.785 0 00-.097.384c0 .214.104.402.31.566.206.164.523.246.95.246h3.032c.625 0 1.056-.085 1.291-.257a.802.802 0 00.353-.682c0-.413-.171-.745-.513-.992-.342-.25-.861-.375-1.559-.375h-1.665c-1.024 0-1.811-.188-2.358-.565-.549-.377-.822-.994-.822-1.847 0-.668.201-1.182.604-1.537a2.952 2.952 0 01-1.089-1.271 4.218 4.218 0 01-.349-1.74c0-1.209.392-2.142 1.175-2.796.782-.654 1.913-.982 3.395-.982.539 0 1.089.084 1.644.256l.299.106 2.07-.342c.242 0 .42.062.534.182.113.12.17.281.17.48 0 .413-.213.632-.641.662l-.469.149c.241.328.416.69.522 1.088s.16.783.16 1.152c0 1.154-.363 2.075-1.089 2.765s-1.829 1.036-3.31 1.036c-.426 0-.882-.05-1.365-.149l-.128.106a1.424 1.424 0 00-.149.118.683.683 0 00-.128.139.413.413 0 00-.043.191c0 .2.1.36.299.48.199.122.555.182 1.067.182h1.665c1.252 0 2.206.285 2.86.854.654.57.982 1.423.982 2.562 0 .925-.295 1.612-.886 2.061s-1.43.674-2.526.674zm-1.709-13.299c-.316 0-.647.063-.991.192a2.66 2.66 0 00-.646.362 1.373 1.373 0 00-.367.448c-.086.171-.14.367-.161.587a7.852 7.852 0 00-.032.737c0 .299.024.591.075.875.05.285.154.538.313.758.157.221.383.398.679.534.294.136.679.203 1.153.203.458 0 .832-.067 1.12-.203.287-.135.514-.316.679-.544.165-.227.28-.487.345-.779.064-.291.098-.601.098-.929 0-.313-.036-.605-.108-.875a1.741 1.741 0 00-.367-.706c-.171-.198-.401-.359-.688-.479s-.657-.181-1.102-.181zm14.538 9.136c-.826 0-1.474-.213-1.942-.64-.939.427-1.872.64-2.797.64-1.096 0-1.936-.27-2.52-.811-.583-.541-.875-1.26-.875-2.157 0-.611.135-1.135.406-1.569.27-.433.644-.786 1.12-1.056s1.039-.467 1.687-.587c.647-.12 1.349-.182 2.103-.182h.342c.057 0 .097-.007.117-.021.022-.014.032-.057.032-.128v-.704c0-1.338-.612-2.007-1.836-2.007-.413 0-.815.022-1.206.065a6.714 6.714 0 00-1.163.234 1.192 1.192 0 01-.491-.138c-.143-.079-.213-.218-.213-.417 0-.17.057-.312.17-.426.113-.115.242-.206.385-.278.584-.27 1.422-.405 2.519-.405 1.366 0 2.381.306 3.042.917.662.613.992 1.487.992 2.626v5.422c0 .143.115.264.342.364a.972.972 0 01.406.191.5.5 0 01.277.47c-.029.229-.132.385-.31.469a1.332 1.332 0 01-.587.128zm-2.327-5.038c0-.07-.007-.11-.021-.117a.421.421 0 00-.129-.012c-.697.029-1.273.096-1.729.204-.456.107-.819.249-1.089.426a1.497 1.497 0 00-.577.663c-.113.263-.17.551-.17.864 0 .199.027.395.085.587.056.192.16.363.31.512s.346.271.587.363c.241.093.548.138.918.138.541 0 1.067-.064 1.579-.191.157-.043.235-.122.235-.235v-3.202zm11.507-2.326c-.143.014-.252-.01-.33-.075a.5.5 0 01-.16-.203.274.274 0 01-.064-.096.313.313 0 00-.063-.096.588.588 0 00-.129-.213l-.426-.555a1.077 1.077 0 00-.684-.256c-.471 0-1.054.32-1.751.96v6.34c0 .101.046.164.139.192.093.029.195.065.311.108.184.057.341.127.469.213a.962.962 0 01.213.182.437.437 0 01.107.309c0 .199-.067.342-.203.426a.875.875 0 01-.479.128h-3.331a.886.886 0 01-.469-.128c-.143-.084-.215-.227-.215-.426 0-.214.09-.366.268-.46.178-.091.353-.173.522-.244.115-.043.222-.079.321-.108.1-.028.149-.084.149-.17v-7.259c0-.085-.047-.124-.14-.117a.659.659 0 01-.266-.032c-.186 0-.351-.021-.491-.064a.71.71 0 01-.246-.149c-.078-.072-.118-.178-.118-.321 0-.127.068-.249.204-.362.135-.114.306-.213.512-.299.206-.086.42-.153.641-.203.22-.05.416-.075.587-.075h.812c.199 0 .365.053.501.16.136.107.203.268.203.48v.321c.712-.712 1.509-1.068 2.392-1.068.199 0 .419.029.661.086.242.057.534.149.876.276l.234 2.178v.022c0 .014.004.024.011.032a.043.043 0 01.011.031c0 .213-.067.356-.203.428a.828.828 0 01-.376.107zm9.777 7.364c-.825 0-1.473-.213-1.942-.64-.938.427-1.871.64-2.797.64-1.096 0-1.936-.27-2.519-.811-.584-.541-.876-1.26-.876-2.157 0-.611.136-1.135.406-1.569a3.103 3.103 0 011.12-1.056 5.41 5.41 0 011.687-.587c.647-.12 1.35-.182 2.104-.182h.342c.057 0 .096-.007.116-.021.022-.014.033-.057.033-.128v-.704c0-1.338-.613-2.007-1.836-2.007-.414 0-.815.022-1.207.065s-.778.121-1.163.234a1.196 1.196 0 01-.491-.138c-.142-.079-.213-.218-.213-.417 0-.17.057-.312.171-.426.113-.115.241-.206.384-.278.584-.27 1.423-.405 2.52-.405 1.365 0 2.38.306 3.041.917.663.613.993 1.487.993 2.626v5.422c0 .143.114.264.341.364a.977.977 0 01.407.191.5.5 0 01.276.47c-.028.229-.132.385-.309.469a1.34 1.34 0 01-.588.128zm-2.326-5.038c0-.07-.008-.11-.021-.117a.413.413 0 00-.128-.012c-.697.029-1.274.096-1.729.204-.455.107-.819.249-1.089.426a1.504 1.504 0 00-.577.663 2.166 2.166 0 00-.084 1.451c.056.192.16.363.31.512s.345.271.587.363c.241.093.548.138.917.138a6.54 6.54 0 001.58-.191c.156-.043.235-.122.235-.235v-3.202zM77.993 39.462c-.074.545-.455.819-1.146.819h-8.511c-.727 0-1.091-.273-1.091-.819 0-.399.163-.69.491-.872s.699-.328 1.119-.437a5.757 5.757 0 001.117-.409c.328-.164.491-.446.491-.845V16.817c0-.291-.163-.527-.491-.709a7.133 7.133 0 00-1.117-.491 7.026 7.026 0 01-1.119-.491c-.328-.182-.491-.437-.491-.764 0-.546.383-.818 1.146-.818h8.456c.728 0 1.091.272 1.091.818 0 .546-.526.981-1.582 1.309-1.091.183-1.637.619-1.637 1.309v19.863c0 .401.173.691.52.873.345.183.718.337 1.117.463.401.129.772.273 1.119.437.344.165.518.446.518.846z" fill="#010101"/></svg>