<?xml version="1.0" encoding="utf-8"?>
<!-- Generator: Adobe Illustrator 16.0.0, SVG Export Plug-In . SVG Version: 6.00 Build 0)  -->
<!DOCTYPE svg PUBLIC "-//W3C//DTD SVG 1.1//EN" "http://www.w3.org/Graphics/SVG/1.1/DTD/svg11.dtd">
<svg version="1.1" id="Layer_1" xmlns="http://www.w3.org/2000/svg" xmlns:xlink="http://www.w3.org/1999/xlink" x="0px" y="0px"
	 width="137.75px" height="65px" viewBox="0 0 137.75 65" enable-background="new 0 0 137.75 65" xml:space="preserve">
<g>
	<defs>
		<circle id="SVGID_1_" cx="34.315" cy="32.706" r="28.693"/>
	</defs>
	<clipPath id="SVGID_2_">
		<use xlink:href="#SVGID_1_"  overflow="visible"/>
	</clipPath>
	<g clip-path="url(#SVGID_2_)">
		<g>
			<path fill-rule="evenodd" clip-rule="evenodd" fill="#010101" d="M75.143,12.838c2.649,3.677,4.625,8.916,5.931,15.714
				c1.383,6.958,1.323,11.959-0.179,15.003c-1.344,2.728-1.857,6.087-1.541,10.081c0.276,3.281,0.85,5.594,1.72,6.938
				c0.87,1.345,1.443,1.068,1.72-0.829c0.948,1.857,0.415,2.944-1.602,3.261c-1.067,0.197-1.74,0-2.017-0.593l-0.118-0.95
				c-0.475,1.225-5.781,11.131-21.763,11.149C25.548,72.02,30.668,57.334,26.517,38.991c-1.977-8.698-0.929-16.071,3.144-22.12
				c2.885-4.309,6.898-7.57,12.037-9.784c4.981-2.056,8.815-2.095,11.504-0.12c1.66-1.976,5.06-2.372,10.199-1.186
				C68.738,7.047,72.651,9.399,75.143,12.838z"/>
		</g>
		<g>
			<path fill-rule="evenodd" clip-rule="evenodd" fill="#010101" d="M21.743,49.783c0.037,0.567,0.303,1.022,0.801,1.364
				c0.593,0.474,1.265,0.572,2.015,0.296c1.977-0.791,2.53-3.361,1.661-7.709c-2.175-11.031-1.265-19.312,2.728-24.847
				c1.977-2.767,4.171-4.448,6.582-5.041c-6.286,9.29-9.331,16.563-9.131,21.822c0.079,2.65,0.435,6.602,1.067,11.86
				c0.237,3.994-0.455,6.108-2.076,6.346C22.869,54.251,21.654,52.887,21.743,49.783z"/>
		</g>
		<g>
			<path fill-rule="evenodd" clip-rule="evenodd" fill="#FFFFFF" d="M49.644,58.915v-5.1h8.479v5.1
				c-1.027,0.513-2.451,0.752-4.269,0.711L49.644,58.915z"/>
		</g>
		<g>
			<path fill-rule="evenodd" clip-rule="evenodd" fill="none" stroke="#010101" stroke-width="2.372" stroke-miterlimit="3" d="
				M49.644,58.915v-5.1h8.479v5.1c-1.027,0.513-2.451,0.752-4.269,0.711L49.644,58.915z"/>
		</g>
		<g>
			<path fill="#FFFFFF" stroke="#010101" stroke-width="1.186" stroke-miterlimit="10" d="M80.36,35.372
				c0.634,1.543,0.238,3.54-1.186,5.99c-1.502,2.569-3.242,3.696-5.218,3.38l1.186-9.844l0.238-0.534l2.075-0.534
				C78.919,33.712,79.887,34.226,80.36,35.372z"/>
		</g>
		<g>
			<path fill-rule="evenodd" clip-rule="evenodd" fill="#FFFFFF" d="M75.617,30.628c0,0.791-0.277,3.519-0.83,8.184
				c-0.553,4.902-0.969,7.788-1.246,8.658c-0.513,1.661-2.767,3.479-6.759,5.456c-4.389,2.174-8.856,3.321-13.402,3.439l-0.06-0.059
				c-4.546-0.118-9.013-1.265-13.401-3.44c-3.993-1.976-6.247-3.794-6.761-5.455c-0.277-0.949-0.711-3.914-1.304-8.895
				c-0.593-4.901-0.85-7.749-0.771-8.54c0.316-5.535,2.589-10.199,6.819-13.994c4.229-3.795,9.37-5.693,15.418-5.693
				c6.167,0,11.426,1.996,15.773,5.989C73.442,20.232,75.617,25.016,75.617,30.628z"/>
		</g>
		<g>
			<path fill-rule="evenodd" clip-rule="evenodd" fill="none" stroke="#010101" stroke-width="2.372" stroke-miterlimit="3" d="
				M75.617,30.628c0-5.613-2.175-10.396-6.523-14.35c-4.348-3.994-9.606-5.989-15.773-5.989c-6.048,0-11.188,1.897-15.418,5.693
				c-4.23,3.795-6.503,8.459-6.819,13.994c-0.079,0.791,0.178,3.638,0.771,8.54c0.593,4.981,1.027,7.946,1.304,8.895
				c0.514,1.661,2.768,3.479,6.761,5.455c4.388,2.175,8.855,3.322,13.401,3.44l0.06,0.059c4.546-0.118,9.013-1.265,13.402-3.439
				c3.992-1.977,6.246-3.795,6.759-5.456c0.277-0.87,0.693-3.756,1.246-8.658C75.34,34.147,75.617,31.419,75.617,30.628z"/>
		</g>
		<g>
			<path fill-rule="evenodd" clip-rule="evenodd" fill="#010101" d="M77.456,30.807c0.395,2.49-1.424,3.736-5.456,3.736
				c-2.53,0-5.08-3.4-7.65-10.2l-3.083-10.199c0.276,1.739-0.73,3.262-3.024,4.566c1.343-2.965,1.107-4.823-0.712-5.575
				c-1.146-0.474-2.233-0.493-3.26-0.059l-1.186,0.771c-2.018-0.949-3.836-1.048-5.456-0.296c-1.66,0.791-2.985,2.648-3.974,5.574
				c-1.343,3.794-1.561,8.4-0.651,13.816c-2.847-4.31-3.322-10.101-1.424-17.375c-1.304,0.395-2.629,1.501-3.973,3.321
				c-2.649,3.676-4.091,9.132-4.33,16.367c-0.236,7.234,0.554,13.125,2.372,17.671c0.91,2.293,1.839,3.854,2.788,4.684
				c-1.384-0.869-2.827-2.412-4.328-4.625c-2.965-4.388-4.665-9.825-5.101-16.307l5.93-22.12l9.37-5.278l10.199-1.542l8.895,2.135
				l3.024,3.499l6.938,3.736l3.438,7.293l3.796,4.922c0.869,1.542,0.671,6.087-0.594,13.639L77.1,44.001
				c0.878-0.685,1.628-1.86,2.254-3.528c0.83-2.214,1.245-4.487,1.245-6.82c0-1.423-0.515-2.333-1.542-2.729L77.456,30.807z"/>
		</g>
		<g>
			<path fill-rule="evenodd" clip-rule="evenodd" fill="#010101" d="M42.707,42.488c0-1.976,0.572-2.965,1.719-2.965
				s1.72,0.989,1.72,2.965c0,2.017-0.573,3.025-1.72,3.025S42.707,44.505,42.707,42.488z"/>
		</g>
		<g>
			<path fill-rule="evenodd" clip-rule="evenodd" fill="#010101" d="M59.843,42.488c0-1.976,0.574-2.965,1.72-2.965
				c1.186,0,1.778,0.989,1.778,2.965c0,2.017-0.593,3.025-1.778,3.025C60.417,45.514,59.843,44.505,59.843,42.488z"/>
		</g>
		<g>
			<path fill-rule="evenodd" clip-rule="evenodd" fill="none" stroke="#010101" stroke-width="1.186" stroke-miterlimit="3" d="
				M57.057,49.842c0,1.62-1.245,2.431-3.736,2.431c-2.53,0-3.794-0.811-3.794-2.431"/>
		</g>
		<g>
			<path fill-rule="evenodd" clip-rule="evenodd" fill="#F8BFD8" d="M34.878,45.691c0-1.146,1.265-1.72,3.795-1.72
				c2.49,0,3.736,0.575,3.736,1.72c0,1.146-1.247,1.72-3.736,1.72C36.143,47.411,34.878,46.837,34.878,45.691z"/>
		</g>
		<g>
			<path fill-rule="evenodd" clip-rule="evenodd" fill="#F8BFD8" d="M67.849,43.971c2.491,0,3.736,0.575,3.736,1.72
				c0,1.146-1.245,1.72-3.736,1.72c-2.49,0-3.735-0.573-3.735-1.72C64.113,44.545,65.358,43.971,67.849,43.971z"/>
		</g>
	</g>
</g>
<circle fill-rule="evenodd" clip-rule="evenodd" fill="none" cx="34.315" cy="32.706" r="28.693"/>
<circle fill-rule="evenodd" clip-rule="evenodd" fill="none" stroke="#010101" stroke-width="3.558" stroke-miterlimit="3" cx="34.315" cy="32.706" r="28.693"/>
<g>
	<path fill="#010101" d="M99.438,19.768c0,0.292-0.082,0.491-0.245,0.6c-0.165,0.109-0.354,0.164-0.573,0.164
		c-0.292,0.037-0.501-0.1-0.628-0.409c-0.128-0.308-0.354-0.699-0.682-1.173l-1.146-1.583c-0.689-0.581-1.436-0.872-2.236-0.872
		c-0.8,0-1.628,0.264-2.481,0.791c-0.855,0.527-1.755,1.264-2.701,2.209v17.294c0,0.365,0.164,0.646,0.491,0.846
		c0.327,0.2,0.69,0.382,1.091,0.545c0.4,0.165,0.765,0.337,1.091,0.519c0.328,0.182,0.491,0.437,0.491,0.763
		c0,0.545-0.345,0.819-1.036,0.819h-8.511c-0.728,0-1.091-0.273-1.091-0.819c0-0.327,0.163-0.582,0.49-0.763
		c0.328-0.182,0.7-0.354,1.119-0.519c0.417-0.163,0.791-0.345,1.118-0.545c0.327-0.199,0.491-0.463,0.491-0.791V17.367
		c0-0.399-0.164-0.662-0.491-0.791c-0.327-0.126-0.701-0.218-1.118-0.272c-0.419-0.055-0.791-0.118-1.119-0.191
		c-0.327-0.073-0.49-0.273-0.49-0.6c0-0.255,0.153-0.5,0.463-0.737s0.691-0.437,1.146-0.6c0.454-0.165,0.927-0.291,1.418-0.382
		c0.491-0.09,0.918-0.137,1.282-0.137h2.073c0.727,0,1.091,0.346,1.091,1.037v2.673c1.018-1.272,2.092-2.253,3.219-2.945
		c1.127-0.69,2.328-1.037,3.601-1.037c0.765,0,1.855,0.254,3.274,0.763l0.545,5.346c0,0.074,0.009,0.128,0.027,0.165
		C99.43,19.695,99.438,19.732,99.438,19.768z"/>
	<path fill="#010101" d="M112.64,39.462c0,0.545-0.345,0.819-1.036,0.819h-8.511c-0.728,0-1.091-0.273-1.091-0.819
		c0-0.399,0.163-0.717,0.491-0.954c0.327-0.236,0.699-0.454,1.118-0.655c0.417-0.199,0.791-0.409,1.118-0.627
		c0.327-0.218,0.491-0.527,0.491-0.928V24.483c0-0.399-0.164-0.663-0.491-0.791c-0.327-0.126-0.701-0.218-1.118-0.272
		c-0.419-0.055-0.791-0.118-1.118-0.191c-0.328-0.073-0.491-0.273-0.491-0.6c0-0.254,0.154-0.5,0.463-0.736
		c0.31-0.236,0.691-0.437,1.146-0.6c0.454-0.165,0.927-0.291,1.418-0.382c0.491-0.09,0.918-0.136,1.282-0.136h2.073
		c0.728,0,1.091,0.346,1.091,1.036v14.434c0,0.401,0.164,0.719,0.491,0.956c0.328,0.236,0.69,0.463,1.091,0.681
		c0.4,0.219,0.765,0.446,1.091,0.682C112.477,38.799,112.64,39.1,112.64,39.462z M109.476,15.481c0,1.383-0.8,2.073-2.399,2.073
		c-1.565,0-2.365-0.709-2.401-2.128c0-1.418,0.801-2.127,2.401-2.127C108.676,13.299,109.476,14.028,109.476,15.481z"/>
	<path fill="#010101" d="M134.626,32.861c0,2.51-0.801,4.383-2.401,5.62s-3.945,1.854-7.037,1.854c-1.273,0-2.61-0.145-4.01-0.437
		c-1.4-0.291-2.864-0.782-4.392-1.473l-1.036-5.564c0-0.582,0.437-0.873,1.31-0.873c0.509,0,0.854,0.273,1.036,0.819l0.818,2.399
		c0.363,0.8,0.973,1.473,1.827,2.019c0.854,0.545,1.991,0.819,3.41,0.819c2.182,0,3.782-0.51,4.801-1.528
		c1.018-1.018,1.527-2.292,1.527-3.818c0-1.855-2.31-3.62-6.929-5.293c-4.583-1.673-6.873-4.236-6.873-7.692
		c0-2.073,0.772-3.683,2.318-4.829c1.545-1.146,3.736-1.719,6.574-1.719c1.091,0,2.218,0.12,3.382,0.354
		c1.164,0.237,2.328,0.628,3.492,1.173l1.036,5.565c0,0.546-0.347,0.818-1.036,0.818c-0.692,0-1.129-0.253-1.311-0.763l-0.817-2.401
		c-0.51-0.799-1.083-1.454-1.719-1.963c-0.637-0.51-1.5-0.764-2.591-0.764c-1.747,0-3.048,0.382-3.901,1.145
		c-0.855,0.765-1.282,1.765-1.282,3.001c0,2.146,2.31,4.056,6.929,5.729c2.401,0.874,4.146,1.955,5.237,3.247
		S134.626,31.116,134.626,32.861z"/>
	<path fill="#010101" d="M73.776,48.16c0-0.014-0.022-0.021-0.064-0.021c-0.058-0.043-0.114-0.075-0.171-0.096
		c-0.057-0.022-0.121-0.046-0.192-0.075c-0.199-0.084-0.367-0.188-0.501-0.309c-0.136-0.121-0.203-0.273-0.203-0.459
		c0.085-0.142,0.178-0.256,0.277-0.341c0.1-0.086,0.228-0.129,0.385-0.129l2.731-0.021c0.186,0,0.346,0.042,0.48,0.127
		c0.136,0.086,0.203,0.229,0.203,0.428c0,0.213-0.093,0.371-0.276,0.469c-0.186,0.101-0.357,0.186-0.514,0.257
		c-0.143,0.071-0.276,0.138-0.405,0.203c-0.129,0.064-0.221,0.167-0.278,0.309l-3.201,8.646h-1.004l-3.415-8.625
		c-0.043-0.127-0.126-0.23-0.246-0.309c-0.12-0.078-0.267-0.153-0.438-0.224c-0.171-0.072-0.346-0.156-0.522-0.257
		c-0.179-0.098-0.268-0.256-0.268-0.469c0.029-0.199,0.111-0.338,0.245-0.416c0.136-0.079,0.289-0.118,0.46-0.118h3.33
		c0.186,0,0.345,0.04,0.48,0.118c0.135,0.078,0.203,0.217,0.203,0.416c0,0.156-0.075,0.288-0.225,0.395
		c-0.149,0.106-0.323,0.203-0.522,0.288c-0.059,0.029-0.115,0.053-0.172,0.074c-0.057,0.022-0.113,0.046-0.17,0.075
		c0,0.014-0.016,0.021-0.043,0.021c0,0.015,0.004,0.029,0.011,0.043c0.007,0.015,0.01,0.036,0.01,0.063l2.093,5.508L73.776,48.16z"
		/>
	<path fill="#010101" d="M85.921,52.323h-5.825c0.027,1.054,0.291,1.887,0.79,2.498c0.498,0.611,1.152,0.917,1.963,0.917
		c0.285,0,0.609-0.039,0.972-0.117c0.362-0.078,0.779-0.203,1.248-0.373c0.172,0,0.339,0.031,0.502,0.095
		c0.163,0.065,0.245,0.204,0.245,0.417c0,0.185-0.127,0.362-0.383,0.534c-0.257,0.17-0.56,0.32-0.908,0.448
		c-0.349,0.127-0.7,0.232-1.057,0.31c-0.355,0.079-0.633,0.117-0.832,0.117c-0.74,0-1.41-0.134-2.008-0.405
		c-0.598-0.27-1.109-0.644-1.536-1.12c-0.427-0.477-0.755-1.039-0.982-1.688c-0.228-0.647-0.342-1.355-0.342-2.124
		c0-0.739,0.114-1.433,0.343-2.082c0.229-0.647,0.549-1.209,0.963-1.686c0.414-0.476,0.91-0.854,1.488-1.132
		c0.576-0.277,1.223-0.416,1.937-0.416c1.368,0,2.386,0.469,3.049,1.408s0.995,2.22,0.995,3.843c0,0.186-0.058,0.325-0.171,0.417
		C86.256,52.277,86.106,52.323,85.921,52.323z M82.273,47.925c-0.641,0-1.122,0.245-1.442,0.732
		c-0.319,0.488-0.537,1.227-0.651,2.216c0,0.071,0.008,0.109,0.022,0.116C80.216,50.997,80.252,51,80.309,51h4.056
		c0.071,0,0.114-0.003,0.129-0.012c0.014-0.007,0.021-0.045,0.021-0.116c-0.042-0.551-0.114-1.018-0.213-1.399
		c-0.1-0.382-0.238-0.686-0.417-0.912c-0.178-0.227-0.398-0.389-0.661-0.488C82.959,47.975,82.643,47.925,82.273,47.925z"/>
	<path fill="#010101" d="M94.589,49.783c-0.142,0.014-0.252-0.01-0.33-0.075c-0.078-0.064-0.132-0.131-0.159-0.203
		c-0.029-0.028-0.051-0.061-0.065-0.096c-0.014-0.035-0.035-0.067-0.063-0.096c-0.014-0.057-0.057-0.127-0.129-0.213l-0.426-0.555
		c-0.214-0.171-0.441-0.256-0.684-0.256c-0.47,0-1.054,0.32-1.751,0.96v6.34c0,0.101,0.046,0.164,0.139,0.192
		c0.093,0.029,0.196,0.065,0.311,0.108c0.185,0.057,0.341,0.127,0.47,0.213c0.07,0.043,0.142,0.104,0.213,0.182
		c0.071,0.078,0.106,0.181,0.106,0.309c0,0.199-0.067,0.342-0.203,0.426c-0.135,0.086-0.295,0.128-0.479,0.128h-3.331
		c-0.17,0-0.327-0.042-0.469-0.128c-0.143-0.084-0.214-0.227-0.214-0.426c0-0.214,0.089-0.366,0.268-0.46
		c0.177-0.091,0.352-0.173,0.521-0.244c0.115-0.043,0.222-0.079,0.321-0.108c0.1-0.028,0.149-0.084,0.149-0.17v-7.259
		c0-0.085-0.046-0.124-0.139-0.117s-0.183-0.003-0.267-0.032c-0.186,0-0.35-0.021-0.491-0.064c-0.086-0.029-0.168-0.079-0.245-0.149
		c-0.079-0.072-0.118-0.178-0.118-0.321c0-0.127,0.068-0.249,0.203-0.362c0.135-0.114,0.306-0.213,0.513-0.299
		c0.206-0.086,0.419-0.153,0.64-0.203s0.416-0.075,0.588-0.075h0.811c0.199,0,0.366,0.053,0.501,0.16
		c0.136,0.107,0.203,0.268,0.203,0.48v0.321c0.712-0.712,1.509-1.068,2.392-1.068c0.199,0,0.419,0.029,0.661,0.086
		c0.242,0.057,0.534,0.149,0.876,0.276l0.235,2.178v0.022c0,0.014,0.003,0.024,0.01,0.032c0.007,0.007,0.011,0.018,0.011,0.031
		c0,0.213-0.067,0.356-0.203,0.428C94.828,49.747,94.704,49.783,94.589,49.783z"/>
	<path fill="#010101" d="M101.87,61.31h-3.438c-0.285,0-0.588-0.029-0.907-0.084c-0.321-0.058-0.62-0.171-0.896-0.342
		c-0.278-0.171-0.506-0.403-0.684-0.693c-0.178-0.292-0.268-0.673-0.268-1.144c0-0.455,0.11-0.843,0.331-1.163
		c0.222-0.321,0.538-0.601,0.95-0.843c0.313-0.171,0.562-0.249,0.747-0.235c0.186,0,0.354,0.057,0.503,0.171
		c0.149,0.113,0.224,0.248,0.224,0.405c0,0.113-0.071,0.242-0.214,0.384l-0.299,0.299c-0.1,0.114-0.182,0.227-0.245,0.341
		c-0.063,0.115-0.097,0.242-0.097,0.384c0,0.214,0.104,0.402,0.31,0.566c0.206,0.164,0.523,0.246,0.95,0.246h3.032
		c0.625,0,1.056-0.085,1.291-0.257c0.235-0.17,0.353-0.398,0.353-0.682c0-0.413-0.171-0.745-0.513-0.992
		c-0.342-0.25-0.861-0.375-1.559-0.375h-1.665c-1.024,0-1.811-0.188-2.358-0.565c-0.549-0.377-0.822-0.994-0.822-1.847
		c0-0.668,0.201-1.182,0.604-1.537c-0.492-0.327-0.856-0.75-1.089-1.271c-0.232-0.519-0.349-1.099-0.349-1.74
		c0-1.209,0.392-2.142,1.175-2.796c0.782-0.654,1.913-0.982,3.395-0.982c0.539,0,1.089,0.084,1.644,0.256l0.299,0.106l2.07-0.342
		c0.242,0,0.42,0.062,0.534,0.182c0.113,0.12,0.17,0.281,0.17,0.48c0,0.413-0.213,0.632-0.641,0.662l-0.469,0.149
		c0.241,0.328,0.416,0.69,0.522,1.088s0.16,0.783,0.16,1.152c0,1.154-0.363,2.075-1.089,2.765c-0.726,0.69-1.829,1.036-3.31,1.036
		c-0.426,0-0.882-0.05-1.365-0.149l-0.128,0.106c-0.043,0.029-0.093,0.068-0.149,0.118c-0.058,0.05-0.1,0.096-0.128,0.139
		c-0.029,0.057-0.043,0.12-0.043,0.191c0,0.2,0.1,0.36,0.299,0.48c0.199,0.122,0.555,0.182,1.067,0.182h1.665
		c1.252,0,2.206,0.285,2.86,0.854c0.654,0.57,0.982,1.423,0.982,2.562c0,0.925-0.295,1.612-0.886,2.061S102.966,61.31,101.87,61.31z
		 M100.161,48.011c-0.316,0-0.647,0.063-0.991,0.192c-0.273,0.113-0.488,0.235-0.646,0.362c-0.158,0.128-0.281,0.278-0.367,0.448
		c-0.086,0.171-0.14,0.367-0.161,0.587c-0.021,0.222-0.032,0.467-0.032,0.737c0,0.299,0.024,0.591,0.075,0.875
		c0.05,0.285,0.154,0.538,0.313,0.758c0.157,0.221,0.383,0.398,0.679,0.534c0.294,0.136,0.679,0.203,1.153,0.203
		c0.458,0,0.832-0.067,1.12-0.203c0.287-0.135,0.514-0.316,0.679-0.544c0.165-0.227,0.28-0.487,0.345-0.779
		c0.064-0.291,0.098-0.601,0.098-0.929c0-0.313-0.036-0.605-0.108-0.875c-0.071-0.271-0.194-0.505-0.367-0.706
		c-0.171-0.198-0.401-0.359-0.688-0.479S100.606,48.011,100.161,48.011z"/>
	<path fill="#010101" d="M114.699,57.147c-0.826,0-1.474-0.213-1.942-0.64c-0.939,0.427-1.872,0.64-2.797,0.64
		c-1.096,0-1.936-0.27-2.52-0.811c-0.583-0.541-0.875-1.26-0.875-2.157c0-0.611,0.135-1.135,0.406-1.569
		c0.27-0.433,0.644-0.786,1.12-1.056s1.039-0.467,1.687-0.587c0.647-0.12,1.349-0.182,2.103-0.182h0.342
		c0.057,0,0.097-0.007,0.117-0.021c0.022-0.014,0.032-0.057,0.032-0.128v-0.704c0-1.338-0.612-2.007-1.836-2.007
		c-0.413,0-0.815,0.022-1.206,0.065c-0.392,0.043-0.778,0.121-1.163,0.234c-0.186-0.014-0.349-0.06-0.491-0.138
		c-0.143-0.079-0.213-0.218-0.213-0.417c0-0.17,0.057-0.312,0.17-0.426c0.113-0.115,0.242-0.206,0.385-0.278
		c0.584-0.27,1.422-0.405,2.519-0.405c1.366,0,2.381,0.306,3.042,0.917c0.662,0.613,0.992,1.487,0.992,2.626v5.422
		c0,0.143,0.115,0.264,0.342,0.364c0.172,0.042,0.306,0.106,0.406,0.191c0.185,0.101,0.277,0.257,0.277,0.47
		c-0.029,0.229-0.132,0.385-0.31,0.469C115.108,57.105,114.912,57.147,114.699,57.147z M112.372,52.109
		c0-0.07-0.007-0.11-0.021-0.117c-0.016-0.007-0.058-0.012-0.129-0.012c-0.697,0.029-1.273,0.096-1.729,0.204
		c-0.456,0.107-0.819,0.249-1.089,0.426c-0.271,0.179-0.464,0.398-0.577,0.663c-0.113,0.263-0.17,0.551-0.17,0.864
		c0,0.199,0.027,0.395,0.085,0.587c0.056,0.192,0.16,0.363,0.31,0.512s0.346,0.271,0.587,0.363c0.241,0.093,0.548,0.138,0.918,0.138
		c0.541,0,1.067-0.064,1.579-0.191c0.157-0.043,0.235-0.122,0.235-0.235V52.109z"/>
	<path fill="#010101" d="M123.879,49.783c-0.143,0.014-0.252-0.01-0.33-0.075c-0.079-0.064-0.132-0.131-0.16-0.203
		c-0.028-0.028-0.051-0.061-0.064-0.096c-0.014-0.035-0.036-0.067-0.063-0.096c-0.014-0.057-0.057-0.127-0.129-0.213l-0.426-0.555
		c-0.215-0.171-0.441-0.256-0.684-0.256c-0.471,0-1.054,0.32-1.751,0.96v6.34c0,0.101,0.046,0.164,0.139,0.192
		c0.093,0.029,0.195,0.065,0.311,0.108c0.184,0.057,0.341,0.127,0.469,0.213c0.071,0.043,0.143,0.104,0.213,0.182
		c0.072,0.078,0.107,0.181,0.107,0.309c0,0.199-0.067,0.342-0.203,0.426c-0.136,0.086-0.295,0.128-0.479,0.128h-3.331
		c-0.17,0-0.328-0.042-0.469-0.128c-0.143-0.084-0.215-0.227-0.215-0.426c0-0.214,0.09-0.366,0.268-0.46
		c0.178-0.091,0.353-0.173,0.522-0.244c0.115-0.043,0.222-0.079,0.321-0.108c0.1-0.028,0.149-0.084,0.149-0.17v-7.259
		c0-0.085-0.047-0.124-0.14-0.117c-0.092,0.007-0.182-0.003-0.266-0.032c-0.186,0-0.351-0.021-0.491-0.064
		c-0.086-0.029-0.168-0.079-0.246-0.149c-0.078-0.072-0.118-0.178-0.118-0.321c0-0.127,0.068-0.249,0.204-0.362
		c0.135-0.114,0.306-0.213,0.512-0.299c0.206-0.086,0.42-0.153,0.641-0.203c0.22-0.05,0.416-0.075,0.587-0.075h0.812
		c0.199,0,0.365,0.053,0.501,0.16c0.136,0.107,0.203,0.268,0.203,0.48v0.321c0.712-0.712,1.509-1.068,2.392-1.068
		c0.199,0,0.419,0.029,0.661,0.086c0.242,0.057,0.534,0.149,0.876,0.276l0.234,2.178v0.022c0,0.014,0.004,0.024,0.011,0.032
		c0.007,0.007,0.011,0.018,0.011,0.031c0,0.213-0.067,0.356-0.203,0.428C124.117,49.747,123.994,49.783,123.879,49.783z"/>
	<path fill="#010101" d="M133.656,57.147c-0.825,0-1.473-0.213-1.942-0.64c-0.938,0.427-1.871,0.64-2.797,0.64
		c-1.096,0-1.936-0.27-2.519-0.811c-0.584-0.541-0.876-1.26-0.876-2.157c0-0.611,0.136-1.135,0.406-1.569
		c0.271-0.433,0.645-0.786,1.12-1.056c0.478-0.27,1.039-0.467,1.687-0.587c0.647-0.12,1.35-0.182,2.104-0.182h0.342
		c0.057,0,0.096-0.007,0.116-0.021c0.022-0.014,0.033-0.057,0.033-0.128v-0.704c0-1.338-0.613-2.007-1.836-2.007
		c-0.414,0-0.815,0.022-1.207,0.065s-0.778,0.121-1.163,0.234c-0.185-0.014-0.349-0.06-0.491-0.138
		c-0.142-0.079-0.213-0.218-0.213-0.417c0-0.17,0.057-0.312,0.171-0.426c0.113-0.115,0.241-0.206,0.384-0.278
		c0.584-0.27,1.423-0.405,2.52-0.405c1.365,0,2.38,0.306,3.041,0.917c0.663,0.613,0.993,1.487,0.993,2.626v5.422
		c0,0.143,0.114,0.264,0.341,0.364c0.172,0.042,0.307,0.106,0.407,0.191c0.184,0.101,0.276,0.257,0.276,0.47
		c-0.028,0.229-0.132,0.385-0.309,0.469C134.065,57.105,133.869,57.147,133.656,57.147z M131.33,52.109
		c0-0.07-0.008-0.11-0.021-0.117c-0.015-0.007-0.058-0.012-0.128-0.012c-0.697,0.029-1.274,0.096-1.729,0.204
		c-0.455,0.107-0.819,0.249-1.089,0.426c-0.271,0.179-0.463,0.398-0.577,0.663c-0.113,0.263-0.17,0.551-0.17,0.864
		c0,0.199,0.028,0.395,0.086,0.587c0.056,0.192,0.16,0.363,0.31,0.512s0.345,0.271,0.587,0.363c0.241,0.093,0.548,0.138,0.917,0.138
		c0.541,0,1.068-0.064,1.58-0.191c0.156-0.043,0.235-0.122,0.235-0.235V52.109z"/>
</g>
<g>
	<path fill="#010101" d="M77.993,39.462c-0.074,0.545-0.455,0.819-1.146,0.819h-8.511c-0.727,0-1.091-0.273-1.091-0.819
		c0-0.399,0.163-0.69,0.491-0.872s0.699-0.328,1.119-0.437c0.417-0.109,0.791-0.246,1.117-0.409
		c0.328-0.164,0.491-0.446,0.491-0.845V16.817c0-0.291-0.163-0.527-0.491-0.709c-0.326-0.182-0.7-0.345-1.117-0.491
		c-0.42-0.145-0.791-0.309-1.119-0.491c-0.328-0.182-0.491-0.437-0.491-0.764c0-0.546,0.383-0.818,1.146-0.818h8.456
		c0.728,0,1.091,0.272,1.091,0.818c0,0.546-0.526,0.981-1.582,1.309c-1.091,0.183-1.637,0.619-1.637,1.309v19.863
		c0,0.401,0.173,0.691,0.52,0.873c0.345,0.183,0.718,0.337,1.117,0.463c0.401,0.129,0.772,0.273,1.119,0.437
		C77.819,38.781,77.993,39.062,77.993,39.462z"/>
</g>
</svg>
