<svg xmlns="http://www.w3.org/2000/svg" width="123.458" height="37.957"><g fill-rule="evenodd" clip-rule="evenodd"><path fill="#F8BFD8" d="M7.976 27.021c0-.7.773-1.051 2.32-1.051 1.522 0 2.284.352 2.284 1.051 0 .701-.762 1.051-2.284 1.051-1.546 0-2.32-.35-2.32-1.051zm20.152-1.051c1.523 0 2.285.352 2.285 1.051 0 .701-.762 1.051-2.285 1.051-1.521 0-2.282-.35-2.282-1.051.001-.7.761-1.051 2.282-1.051z"/><path fill="#333" d="M32.809 17.062c0 .484-.168 2.151-.506 5.003-.338 2.996-.592 4.76-.761 5.292-.314 1.015-1.692 2.126-4.132 3.334-2.683 1.33-5.414 2.03-8.191 2.102l-.037-.036c-2.778-.072-5.509-.774-8.193-2.103-2.439-1.208-3.816-2.319-4.131-3.334-.168-.579-.435-2.392-.796-5.437-.363-2.996-.521-4.736-.472-5.219.193-3.384 1.583-6.235 4.168-8.554 2.585-2.32 5.727-3.479 9.424-3.479 3.771 0 6.984 1.219 9.641 3.661 2.658 2.416 3.986 5.34 3.986 8.77zm-3.62 6.603a3.316 3.316 0 00-3.316-3.316H12.518a3.316 3.316 0 100 6.632h13.356a3.314 3.314 0 003.315-3.316z"/><path d="M13.277 24.312c0-1.208.348-1.812 1.05-1.812.701 0 1.05.604 1.05 1.812 0 1.232-.349 1.849-1.05 1.849-.702 0-1.05-.618-1.05-1.849zm10.473 0c0-1.208.351-1.812 1.051-1.812.725 0 1.088.604 1.088 1.812 0 1.232-.363 1.849-1.088 1.849-.701 0-1.051-.618-1.051-1.849z"/></g><circle fill="none" stroke="#FFF" stroke-miterlimit="10" cx="19.195" cy="18.712" r="16.138"/><path fill="#010101" d="M62.181 34.85c5.306 0 9.999-2.572 12.94-6.524-.11-1.861.141-3.447.777-4.738.748-1.517.778-4.008.089-7.475-.651-3.388-1.635-5.998-2.955-7.83-1.242-1.713-3.191-2.885-5.85-3.516-2.562-.591-4.255-.394-5.082.591-1.34-.985-3.25-.965-5.732.059-2.56 1.104-4.56 2.729-5.997 4.875-2.029 3.014-2.551 6.688-1.566 11.021.669 2.957.857 5.72 1.337 8.12 2.956 3.317 7.247 5.417 12.039 5.417z"/><path fill-rule="evenodd" clip-rule="evenodd" fill="#FFF" stroke="#010101" stroke-miterlimit="3" d="M69.398 33.066c-.374-.866-.815-1.452-2.43-2.062l-2.135-.65v-1.522h-5v1.621c-1 .141-1.304.362-2.116.669-1.773.65-2.163 1.112-2.478 2.038.001 0 6.235 3.391 14.159-.094z"/><path fill="#FFF" stroke="#010101" stroke-width=".591" stroke-miterlimit="10" d="M75.631 19.511c.316.768.119 1.763-.59 2.984-.749 1.281-1.615 1.842-2.6 1.684l.591-4.904.118-.267 1.034-.266c.729-.058 1.212.197 1.447.769z"/><path fill-rule="evenodd" clip-rule="evenodd" fill="#FFF" d="M73.268 17.147c0 .394-.137 1.753-.414 4.077-.275 2.443-.482 3.881-.621 4.314-.255.828-1.378 1.733-3.368 2.718-2.186 1.083-4.114 1.644-6.379 1.703-2.266-.059-4.818-.649-7.005-1.732-1.989-.985-3.111-1.891-3.368-2.718-.139-.473-.354-1.95-.65-4.431-.295-2.443-.423-3.861-.384-4.255.157-2.758 1.291-5.082 3.397-6.973 2.108-1.891 4.668-2.836 7.682-2.836 3.072 0 5.692.994 7.858 2.984 2.169 1.969 3.252 4.352 3.252 7.149z"/><path clip-rule="evenodd" fill="none" stroke="#010101" stroke-width="1.182" stroke-miterlimit="3" d="M73.268 17.147c0-2.797-1.083-5.18-3.25-7.15-2.167-1.99-4.786-2.984-7.858-2.984-3.014 0-5.574.945-7.682 2.836-2.107 1.891-3.24 4.215-3.397 6.973-.039.394.089 1.812.384 4.255.295 2.481.511 3.958.65 4.431.256.827 1.379 1.733 3.368 2.718 2.187 1.083 4.412 1.654 6.678 1.713h0c2.264-.059 4.521-.601 6.707-1.684 1.99-.984 3.112-1.89 3.368-2.718.139-.433.345-1.871.621-4.314.273-2.323.411-3.682.411-4.076z"/><path fill-rule="evenodd" clip-rule="evenodd" fill="#010101" d="M74.184 17.236c.197 1.241-.708 1.861-2.718 1.861-1.26 0-2.531-1.694-3.812-5.082l-1.537-5.082c.139.866-.363 1.625-1.506 2.274.669-1.477.551-2.403-.356-2.777-.57-.236-1.112-.246-1.624-.029l-.591.384c-1.005-.473-1.911-.521-2.719-.147-.826.394-1.486 1.319-1.979 2.777-.669 1.891-.778 4.186-.324 6.884-1.419-2.147-1.656-5.033-.71-8.656-.65.197-1.311.748-1.979 1.654-1.321 1.832-2.038 4.55-2.157 8.155-.118 3.604.276 6.539 1.182 8.804.454 1.143.917 1.92 1.388 2.334-.689-.433-1.408-1.202-2.156-2.304-1.478-2.187-2.325-4.895-2.542-8.125L53 9.14l4.668-2.629 5.082-.769 4.432 1.063 1.506 1.743 3.458 1.862 1.713 3.634 1.892 2.452c.433.768.335 3.033-.295 6.796l-1.449.517c.438-.341.812-.927 1.123-1.758a9.574 9.574 0 00.621-3.398c0-.708-.256-1.162-.769-1.358l-.798-.059z"/><path fill-rule="evenodd" clip-rule="evenodd" fill="#010101" d="M56.871 23.056c0-.985.285-1.477.856-1.477.572 0 .857.492.857 1.477 0 1.004-.285 1.507-.857 1.507-.571 0-.856-.503-.856-1.507zm8.538 0c0-.985.286-1.477.857-1.477.591 0 .886.492.886 1.477 0 1.004-.295 1.507-.886 1.507-.572 0-.857-.503-.857-1.507z"/><path clip-rule="evenodd" fill="none" stroke="#010101" stroke-width=".591" stroke-miterlimit="3" d="M64.021 26.72c0 .808-.621 1.212-1.861 1.212-1.26 0-1.891-.404-1.891-1.212"/><path fill-rule="evenodd" clip-rule="evenodd" fill="#F8BFD8" d="M52.97 24.651c0-.57.63-.857 1.891-.857 1.241 0 1.862.287 1.862.857 0 .571-.622.857-1.862.857-1.261 0-1.891-.285-1.891-.857zm16.428-.857c1.24 0 1.861.287 1.861.857 0 .571-.621.857-1.861.857-1.241 0-1.862-.286-1.862-.857 0-.57.621-.857 1.862-.857z"/><path fill="#FFF" stroke="#000" stroke-miterlimit="10" d="M57.728 34.228c-.221-.452.333-.647-.052-3.105.886-.335.777-.319 1.605-.457 0 0 .459 3.421 3.155 3.386 2.695-.034 2.745-3.278 2.745-3.278l1.647.23c-.15 2.094.413 2.281.186 3.11"/><circle fill="none" stroke="#FFF" stroke-miterlimit="10" cx="62.181" cy="18.712" r="16.138"/><path fill="#010101" d="M105.181 34.85c5.306 0 9.999-2.572 12.94-6.524-.11-1.861.141-3.447.777-4.738.748-1.517.778-4.008.089-7.475-.651-3.388-1.635-5.998-2.955-7.83-1.242-1.713-3.191-2.885-5.85-3.516-2.562-.591-4.255-.394-5.082.591-1.34-.985-3.25-.965-5.732.059-2.56 1.104-4.56 2.729-5.997 4.875-2.029 3.014-2.551 6.688-1.566 11.021.669 2.957.857 5.72 1.337 8.12 2.956 3.317 7.247 5.417 12.039 5.417z"/><path fill-rule="evenodd" clip-rule="evenodd" fill="#FFF" stroke="#010101" stroke-miterlimit="3" d="M112.398 33.066c-.374-.866-.815-1.452-2.43-2.062l-2.135-.65v-1.522h-5v1.621c-1 .141-1.304.362-2.116.669-1.773.65-2.163 1.112-2.478 2.038.001 0 6.235 3.391 14.159-.094z"/><path fill="#FFF" stroke="#010101" stroke-width=".591" stroke-miterlimit="10" d="M118.631 19.511c.316.768.119 1.763-.59 2.984-.749 1.281-1.615 1.842-2.6 1.684l.591-4.904.118-.267 1.034-.266c.729-.058 1.212.197 1.447.769z"/><path fill-rule="evenodd" clip-rule="evenodd" fill="#FFF" d="M116.268 17.147c0 .394-.137 1.753-.414 4.077-.275 2.443-.482 3.881-.621 4.314-.255.828-1.378 1.733-3.368 2.718-2.186 1.083-4.114 1.644-6.379 1.703-2.266-.059-4.818-.649-7.005-1.732-1.989-.985-3.111-1.891-3.368-2.718-.139-.473-.354-1.95-.65-4.431-.295-2.443-.423-3.861-.384-4.255.157-2.758 1.291-5.082 3.397-6.973 2.108-1.891 4.668-2.836 7.682-2.836 3.072 0 5.692.994 7.858 2.984 2.169 1.969 3.252 4.352 3.252 7.149z"/><path clip-rule="evenodd" fill="none" stroke="#010101" stroke-width="1.182" stroke-miterlimit="3" d="M116.268 17.147c0-2.797-1.083-5.18-3.25-7.15-2.167-1.99-4.786-2.984-7.858-2.984-3.014 0-5.574.945-7.682 2.836-2.107 1.891-3.24 4.215-3.397 6.973-.039.394.089 1.812.384 4.255.295 2.481.511 3.958.65 4.431.256.827 1.379 1.733 3.368 2.718 2.187 1.083 4.412 1.654 6.678 1.713h0c2.264-.059 4.521-.601 6.707-1.684 1.99-.984 3.112-1.89 3.368-2.718.139-.433.345-1.871.621-4.314.273-2.323.411-3.682.411-4.076z"/><path fill-rule="evenodd" clip-rule="evenodd" fill="#010101" d="M117.184 17.236c.197 1.241-.708 1.861-2.718 1.861-1.26 0-2.531-1.694-3.812-5.082l-1.537-5.082c.139.866-.363 1.625-1.506 2.274.669-1.477.551-2.403-.356-2.777-.57-.236-1.112-.246-1.624-.029l-.591.384c-1.005-.473-1.911-.521-2.719-.147-.826.394-1.486 1.319-1.979 2.777-.669 1.891-.778 4.186-.324 6.884-1.419-2.147-1.656-5.033-.71-8.656-.65.197-1.311.748-1.979 1.654-1.321 1.832-2.038 4.55-2.157 8.155-.118 3.604.276 6.539 1.182 8.804.454 1.143.917 1.92 1.388 2.334-.689-.433-1.408-1.202-2.156-2.304-1.478-2.187-2.325-4.895-2.542-8.125L96 9.14l4.668-2.629 5.082-.769 4.432 1.063 1.506 1.743 3.458 1.862 1.713 3.634 1.892 2.452c.433.768.335 3.033-.295 6.796l-1.449.517c.438-.341.812-.927 1.123-1.758a9.574 9.574 0 00.621-3.398c0-.708-.256-1.162-.769-1.358l-.798-.059z"/><path fill-rule="evenodd" clip-rule="evenodd" fill="#010101" d="M99.871 23.056c0-.985.285-1.477.856-1.477.572 0 .857.492.857 1.477 0 1.004-.285 1.507-.857 1.507-.571 0-.856-.503-.856-1.507zm8.538 0c0-.985.286-1.477.857-1.477.591 0 .886.492.886 1.477 0 1.004-.295 1.507-.886 1.507-.572 0-.857-.503-.857-1.507z"/><path clip-rule="evenodd" fill="none" stroke="#010101" stroke-width=".591" stroke-miterlimit="3" d="M107.021 26.72c0 .808-.621 1.212-1.861 1.212-1.26 0-1.891-.404-1.891-1.212"/><path fill-rule="evenodd" clip-rule="evenodd" fill="#F8BFD8" d="M95.97 24.651c0-.57.63-.857 1.891-.857 1.241 0 1.862.287 1.862.857 0 .571-.622.857-1.862.857-1.261 0-1.891-.285-1.891-.857zm16.428-.857c1.24 0 1.861.287 1.861.857 0 .571-.621.857-1.861.857-1.241 0-1.862-.286-1.862-.857 0-.57.621-.857 1.862-.857z"/><path fill="#FFF" stroke="#000" stroke-miterlimit="10" d="M100.728 34.228c-.221-.452.333-.647-.052-3.105.886-.335.777-.319 1.605-.457 0 0 .459 3.421 3.155 3.386 2.695-.034 2.745-3.278 2.745-3.278l1.647.23c-.15 2.094.413 2.281.186 3.11"/><circle fill="none" stroke="#FFF" stroke-miterlimit="10" cx="105.181" cy="18.712" r="16.138"/><path fill="#9AC23C" d="M99.5 14.883l1.913 3.876 4.277.621-3.095 3.016.731 4.26-3.826-2.011-3.825 2.011.731-4.26-3.095-3.016 4.276-.621z"/><radialGradient id="a" cx="99.501" cy="20.77" r="4.781" gradientUnits="userSpaceOnUse"><stop offset="0" stop-color="#333"/><stop offset="1"/></radialGradient><path fill="url(#a)" d="M99.5 16.109l1.514 3.069 3.386.491-2.45 2.389.579 3.371-3.029-1.592-3.028 1.592.578-3.371-2.448-2.389 3.384-.491z"/><path fill="#9AC23C" d="M110.789 14.883l1.913 3.876 4.277.621-3.095 3.016.73 4.26-3.825-2.011-3.825 2.011.73-4.26-3.094-3.016 4.276-.621z"/><radialGradient id="b" cx="110.789" cy="20.77" r="4.781" gradientUnits="userSpaceOnUse"><stop offset="0" stop-color="#333"/><stop offset="1"/></radialGradient><path fill="url(#b)" d="M110.789 16.109l1.514 3.069 3.385.491-2.449 2.389.578 3.371-3.028-1.592-3.029 1.592.579-3.371-2.449-2.389 3.385-.491z"/></svg>