<?xml version="1.0" encoding="utf-8"?>
<!-- Generator: Adobe Illustrator 16.0.0, SVG Export Plug-In . SVG Version: 6.00 Build 0)  -->
<!DOCTYPE svg PUBLIC "-//W3C//DTD SVG 1.1//EN" "http://www.w3.org/Graphics/SVG/1.1/DTD/svg11.dtd">
<svg version="1.1" id="Layer_2" xmlns="http://www.w3.org/2000/svg" xmlns:xlink="http://www.w3.org/1999/xlink" x="0px" y="0px"
	 width="123.458px" height="37.957px" viewBox="0 0 123.458 37.957" enable-background="new 0 0 123.458 37.957"
	 xml:space="preserve">
<g>
	<path fill-rule="evenodd" clip-rule="evenodd" fill="#F8BFD8" d="M7.976,27.021c0-0.7,0.773-1.051,2.32-1.051
		c1.522,0,2.284,0.352,2.284,1.051c0,0.701-0.762,1.051-2.284,1.051C8.75,28.072,7.976,27.722,7.976,27.021z"/>
	<path fill-rule="evenodd" clip-rule="evenodd" fill="#F8BFD8" d="M28.128,25.97c1.523,0,2.285,0.352,2.285,1.051
		c0,0.701-0.762,1.051-2.285,1.051c-1.521,0-2.282-0.35-2.282-1.051C25.847,26.321,26.607,25.97,28.128,25.97z"/>
	<path fill-rule="evenodd" clip-rule="evenodd" fill="#333333" d="M32.809,17.062c0,0.484-0.168,2.151-0.506,5.003
		c-0.338,2.996-0.592,4.76-0.761,5.292c-0.314,1.015-1.692,2.126-4.132,3.334c-2.683,1.33-5.414,2.03-8.191,2.102l-0.037-0.036
		c-2.778-0.072-5.509-0.774-8.193-2.103c-2.439-1.208-3.816-2.319-4.131-3.334c-0.168-0.579-0.435-2.392-0.796-5.437
		c-0.363-2.996-0.521-4.736-0.472-5.219c0.193-3.384,1.583-6.235,4.168-8.554c2.585-2.32,5.727-3.479,9.424-3.479
		c3.771,0,6.984,1.219,9.641,3.661C31.481,10.708,32.809,13.632,32.809,17.062z M29.189,23.665c0-1.831-1.484-3.316-3.316-3.316
		H12.518c-1.831,0-3.316,1.485-3.316,3.316l0,0c0,1.832,1.485,3.316,3.316,3.316h13.356C27.706,26.981,29.189,25.497,29.189,23.665
		L29.189,23.665z"/>
	<path fill-rule="evenodd" clip-rule="evenodd" d="M13.277,24.312c0-1.208,0.348-1.812,1.05-1.812c0.701,0,1.05,0.604,1.05,1.812
		c0,1.232-0.349,1.849-1.05,1.849C13.625,26.161,13.277,25.543,13.277,24.312z"/>
	<path fill-rule="evenodd" clip-rule="evenodd" d="M23.75,24.312c0-1.208,0.351-1.812,1.051-1.812c0.725,0,1.088,0.604,1.088,1.812
		c0,1.232-0.363,1.849-1.088,1.849C24.1,26.161,23.75,25.543,23.75,24.312z"/>
</g>
<circle fill="none" stroke="#FFFFFF" stroke-miterlimit="10" cx="19.195" cy="18.712" r="16.138"/>
<g>
	<path fill="#010101" d="M62.181,34.85c5.306,0,9.999-2.572,12.94-6.524c-0.11-1.861,0.141-3.447,0.777-4.738
		c0.748-1.517,0.778-4.008,0.089-7.475c-0.651-3.388-1.635-5.998-2.955-7.83c-1.242-1.713-3.191-2.885-5.85-3.516
		c-2.562-0.591-4.255-0.394-5.082,0.591c-1.34-0.985-3.25-0.965-5.732,0.059c-2.56,1.104-4.56,2.729-5.997,4.875
		c-2.029,3.014-2.551,6.688-1.566,11.021c0.669,2.957,0.857,5.72,1.337,8.12C53.098,32.75,57.389,34.85,62.181,34.85z"/>
	<path fill-rule="evenodd" clip-rule="evenodd" fill="#FFFFFF" stroke="#010101" stroke-miterlimit="3" d="M69.398,33.066
		c-0.374-0.866-0.815-1.452-2.43-2.062l-2.135-0.65v-1.522h-5v1.621c-1,0.141-1.304,0.362-2.116,0.669
		c-1.773,0.65-2.163,1.112-2.478,2.038C55.24,33.16,61.474,36.551,69.398,33.066z"/>
	<path fill="#FFFFFF" stroke="#010101" stroke-width="0.5909" stroke-miterlimit="10" d="M75.631,19.511
		c0.316,0.768,0.119,1.763-0.59,2.984c-0.749,1.281-1.615,1.842-2.6,1.684l0.591-4.904l0.118-0.267l1.034-0.266
		C74.913,18.684,75.396,18.939,75.631,19.511z"/>
	<path fill-rule="evenodd" clip-rule="evenodd" fill="#FFFFFF" d="M73.268,17.147c0,0.394-0.137,1.753-0.414,4.077
		c-0.275,2.443-0.482,3.881-0.621,4.314c-0.255,0.828-1.378,1.733-3.368,2.718c-2.186,1.083-4.114,1.644-6.379,1.703l0,0
		c-2.266-0.059-4.818-0.649-7.005-1.732c-1.989-0.985-3.111-1.891-3.368-2.718c-0.139-0.473-0.354-1.95-0.65-4.431
		c-0.295-2.443-0.423-3.861-0.384-4.255c0.157-2.758,1.291-5.082,3.397-6.973c2.108-1.891,4.668-2.836,7.682-2.836
		c3.072,0,5.692,0.994,7.858,2.984C72.185,11.967,73.268,14.35,73.268,17.147z"/>
	<path fill-rule="evenodd" clip-rule="evenodd" fill="none" stroke="#010101" stroke-width="1.1818" stroke-miterlimit="3" d="
		M73.268,17.147c0-2.797-1.083-5.18-3.25-7.15c-2.167-1.99-4.786-2.984-7.858-2.984c-3.014,0-5.574,0.945-7.682,2.836
		c-2.107,1.891-3.24,4.215-3.397,6.973c-0.039,0.394,0.089,1.812,0.384,4.255c0.295,2.481,0.511,3.958,0.65,4.431
		c0.256,0.827,1.379,1.733,3.368,2.718c2.187,1.083,4.412,1.654,6.678,1.713l0,0c2.264-0.059,4.521-0.601,6.707-1.684
		c1.99-0.984,3.112-1.89,3.368-2.718c0.139-0.433,0.345-1.871,0.621-4.314C73.13,18.9,73.268,17.541,73.268,17.147z"/>
	<path fill-rule="evenodd" clip-rule="evenodd" fill="#010101" d="M74.184,17.236c0.197,1.241-0.708,1.861-2.718,1.861
		c-1.26,0-2.531-1.694-3.812-5.082l-1.537-5.082c0.139,0.866-0.363,1.625-1.506,2.274c0.669-1.477,0.551-2.403-0.356-2.777
		c-0.57-0.236-1.112-0.246-1.624-0.029l-0.591,0.384c-1.005-0.473-1.911-0.521-2.719-0.147c-0.826,0.394-1.486,1.319-1.979,2.777
		c-0.669,1.891-0.778,4.186-0.324,6.884c-1.419-2.147-1.656-5.033-0.71-8.656c-0.65,0.197-1.311,0.748-1.979,1.654
		c-1.321,1.832-2.038,4.55-2.157,8.155c-0.118,3.604,0.276,6.539,1.182,8.804c0.454,1.143,0.917,1.92,1.388,2.334
		c-0.689-0.433-1.408-1.202-2.156-2.304c-1.478-2.187-2.325-4.895-2.542-8.125L53,9.14l4.668-2.629l5.082-0.769l4.432,1.063
		l1.506,1.743l3.458,1.862l1.713,3.634l1.892,2.452c0.433,0.768,0.335,3.033-0.295,6.796l-1.449,0.517
		c0.438-0.341,0.812-0.927,1.123-1.758c0.415-1.103,0.621-2.236,0.621-3.398c0-0.708-0.256-1.162-0.769-1.358L74.184,17.236z"/>
	<path fill-rule="evenodd" clip-rule="evenodd" fill="#010101" d="M56.871,23.056c0-0.985,0.285-1.477,0.856-1.477
		c0.572,0,0.857,0.492,0.857,1.477c0,1.004-0.285,1.507-0.857,1.507C57.156,24.563,56.871,24.06,56.871,23.056z"/>
	<path fill-rule="evenodd" clip-rule="evenodd" fill="#010101" d="M65.409,23.056c0-0.985,0.286-1.477,0.857-1.477
		c0.591,0,0.886,0.492,0.886,1.477c0,1.004-0.295,1.507-0.886,1.507C65.694,24.563,65.409,24.06,65.409,23.056z"/>
	<path fill-rule="evenodd" clip-rule="evenodd" fill="none" stroke="#010101" stroke-width="0.5909" stroke-miterlimit="3" d="
		M64.021,26.72c0,0.808-0.621,1.212-1.861,1.212c-1.26,0-1.891-0.404-1.891-1.212"/>
	<path fill-rule="evenodd" clip-rule="evenodd" fill="#F8BFD8" d="M52.97,24.651c0-0.57,0.63-0.857,1.891-0.857
		c1.241,0,1.862,0.287,1.862,0.857c0,0.571-0.622,0.857-1.862,0.857C53.6,25.508,52.97,25.223,52.97,24.651z"/>
	<path fill-rule="evenodd" clip-rule="evenodd" fill="#F8BFD8" d="M69.398,23.794c1.24,0,1.861,0.287,1.861,0.857
		c0,0.571-0.621,0.857-1.861,0.857c-1.241,0-1.862-0.286-1.862-0.857C67.536,24.081,68.157,23.794,69.398,23.794z"/>
	<path fill="#FFFFFF" stroke="#000000" stroke-miterlimit="10" d="M57.728,34.228c-0.221-0.452,0.333-0.647-0.052-3.105
		c0.886-0.335,0.777-0.319,1.605-0.457c0,0,0.459,3.421,3.155,3.386c2.695-0.034,2.745-3.278,2.745-3.278l1.647,0.23
		c-0.15,2.094,0.413,2.281,0.186,3.11"/>
</g>
<circle fill="none" stroke="#FFFFFF" stroke-miterlimit="10" cx="62.181" cy="18.712" r="16.138"/>
<g>
	<path fill="#010101" d="M105.181,34.85c5.306,0,9.999-2.572,12.94-6.524c-0.11-1.861,0.141-3.447,0.777-4.738
		c0.748-1.517,0.778-4.008,0.089-7.475c-0.651-3.388-1.635-5.998-2.955-7.83c-1.242-1.713-3.191-2.885-5.85-3.516
		c-2.562-0.591-4.255-0.394-5.082,0.591c-1.34-0.985-3.25-0.965-5.732,0.059c-2.56,1.104-4.56,2.729-5.997,4.875
		c-2.029,3.014-2.551,6.688-1.566,11.021c0.669,2.957,0.857,5.72,1.337,8.12C96.098,32.75,100.389,34.85,105.181,34.85z"/>
	<path fill-rule="evenodd" clip-rule="evenodd" fill="#FFFFFF" stroke="#010101" stroke-miterlimit="3" d="M112.398,33.066
		c-0.374-0.866-0.815-1.452-2.43-2.062l-2.135-0.65v-1.522h-5v1.621c-1,0.141-1.304,0.362-2.116,0.669
		c-1.773,0.65-2.163,1.112-2.478,2.038C98.24,33.16,104.474,36.551,112.398,33.066z"/>
	<path fill="#FFFFFF" stroke="#010101" stroke-width="0.5909" stroke-miterlimit="10" d="M118.631,19.511
		c0.316,0.768,0.119,1.763-0.59,2.984c-0.749,1.281-1.615,1.842-2.6,1.684l0.591-4.904l0.118-0.267l1.034-0.266
		C117.913,18.684,118.396,18.939,118.631,19.511z"/>
	<path fill-rule="evenodd" clip-rule="evenodd" fill="#FFFFFF" d="M116.268,17.147c0,0.394-0.137,1.753-0.414,4.077
		c-0.275,2.443-0.482,3.881-0.621,4.314c-0.255,0.828-1.378,1.733-3.368,2.718c-2.186,1.083-4.114,1.644-6.379,1.703l0,0
		c-2.266-0.059-4.818-0.649-7.005-1.732c-1.989-0.985-3.111-1.891-3.368-2.718c-0.139-0.473-0.354-1.95-0.65-4.431
		c-0.295-2.443-0.423-3.861-0.384-4.255c0.157-2.758,1.291-5.082,3.397-6.973c2.108-1.891,4.668-2.836,7.682-2.836
		c3.072,0,5.692,0.994,7.858,2.984C115.185,11.967,116.268,14.35,116.268,17.147z"/>
	<path fill-rule="evenodd" clip-rule="evenodd" fill="none" stroke="#010101" stroke-width="1.1818" stroke-miterlimit="3" d="
		M116.268,17.147c0-2.797-1.083-5.18-3.25-7.15c-2.167-1.99-4.786-2.984-7.858-2.984c-3.014,0-5.574,0.945-7.682,2.836
		c-2.107,1.891-3.24,4.215-3.397,6.973c-0.039,0.394,0.089,1.812,0.384,4.255c0.295,2.481,0.511,3.958,0.65,4.431
		c0.256,0.827,1.379,1.733,3.368,2.718c2.187,1.083,4.412,1.654,6.678,1.713l0,0c2.264-0.059,4.521-0.601,6.707-1.684
		c1.99-0.984,3.112-1.89,3.368-2.718c0.139-0.433,0.345-1.871,0.621-4.314C116.13,18.9,116.268,17.541,116.268,17.147z"/>
	<path fill-rule="evenodd" clip-rule="evenodd" fill="#010101" d="M117.184,17.236c0.197,1.241-0.708,1.861-2.718,1.861
		c-1.26,0-2.531-1.694-3.812-5.082l-1.537-5.082c0.139,0.866-0.363,1.625-1.506,2.274c0.669-1.477,0.551-2.403-0.356-2.777
		c-0.57-0.236-1.112-0.246-1.624-0.029l-0.591,0.384c-1.005-0.473-1.911-0.521-2.719-0.147c-0.826,0.394-1.486,1.319-1.979,2.777
		c-0.669,1.891-0.778,4.186-0.324,6.884c-1.419-2.147-1.656-5.033-0.71-8.656c-0.65,0.197-1.311,0.748-1.979,1.654
		c-1.321,1.832-2.038,4.55-2.157,8.155c-0.118,3.604,0.276,6.539,1.182,8.804c0.454,1.143,0.917,1.92,1.388,2.334
		c-0.689-0.433-1.408-1.202-2.156-2.304c-1.478-2.187-2.325-4.895-2.542-8.125L96,9.14l4.668-2.629l5.082-0.769l4.432,1.063
		l1.506,1.743l3.458,1.862l1.713,3.634l1.892,2.452c0.433,0.768,0.335,3.033-0.295,6.796l-1.449,0.517
		c0.438-0.341,0.812-0.927,1.123-1.758c0.415-1.103,0.621-2.236,0.621-3.398c0-0.708-0.256-1.162-0.769-1.358L117.184,17.236z"/>
	<path fill-rule="evenodd" clip-rule="evenodd" fill="#010101" d="M99.871,23.056c0-0.985,0.285-1.477,0.856-1.477
		c0.572,0,0.857,0.492,0.857,1.477c0,1.004-0.285,1.507-0.857,1.507C100.156,24.563,99.871,24.06,99.871,23.056z"/>
	<path fill-rule="evenodd" clip-rule="evenodd" fill="#010101" d="M108.409,23.056c0-0.985,0.286-1.477,0.857-1.477
		c0.591,0,0.886,0.492,0.886,1.477c0,1.004-0.295,1.507-0.886,1.507C108.694,24.563,108.409,24.06,108.409,23.056z"/>
	<path fill-rule="evenodd" clip-rule="evenodd" fill="none" stroke="#010101" stroke-width="0.5909" stroke-miterlimit="3" d="
		M107.021,26.72c0,0.808-0.621,1.212-1.861,1.212c-1.26,0-1.891-0.404-1.891-1.212"/>
	<path fill-rule="evenodd" clip-rule="evenodd" fill="#F8BFD8" d="M95.97,24.651c0-0.57,0.63-0.857,1.891-0.857
		c1.241,0,1.862,0.287,1.862,0.857c0,0.571-0.622,0.857-1.862,0.857C96.6,25.508,95.97,25.223,95.97,24.651z"/>
	<path fill-rule="evenodd" clip-rule="evenodd" fill="#F8BFD8" d="M112.398,23.794c1.24,0,1.861,0.287,1.861,0.857
		c0,0.571-0.621,0.857-1.861,0.857c-1.241,0-1.862-0.286-1.862-0.857C110.536,24.081,111.157,23.794,112.398,23.794z"/>
	<path fill="#FFFFFF" stroke="#000000" stroke-miterlimit="10" d="M100.728,34.228c-0.221-0.452,0.333-0.647-0.052-3.105
		c0.886-0.335,0.777-0.319,1.605-0.457c0,0,0.459,3.421,3.155,3.386c2.695-0.034,2.745-3.278,2.745-3.278l1.647,0.23
		c-0.15,2.094,0.413,2.281,0.186,3.11"/>
</g>
<circle fill="none" stroke="#FFFFFF" stroke-miterlimit="10" cx="105.181" cy="18.712" r="16.138"/>
<g>
	<polygon fill="#9AC23C" points="99.5,14.883 101.413,18.759 105.69,19.38 102.595,22.396 103.326,26.656 99.5,24.645 
		95.675,26.656 96.406,22.396 93.311,19.38 97.587,18.759 	"/>
	<radialGradient id="SVGID_1_" cx="99.5005" cy="20.7695" r="4.781" gradientUnits="userSpaceOnUse">
		<stop  offset="0" style="stop-color:#333333"/>
		<stop  offset="1" style="stop-color:#000000"/>
	</radialGradient>
	<polygon fill="url(#SVGID_1_)" points="99.5,16.109 101.014,19.178 104.4,19.669 101.95,22.058 102.529,25.429 99.5,23.837 
		96.472,25.429 97.05,22.058 94.602,19.669 97.986,19.178 	"/>
</g>
<g>
	<polygon fill="#9AC23C" points="110.789,14.883 112.702,18.759 116.979,19.38 113.884,22.396 114.614,26.656 110.789,24.645 
		106.964,26.656 107.694,22.396 104.6,19.38 108.876,18.759 	"/>
	<radialGradient id="SVGID_2_" cx="110.7891" cy="20.7695" r="4.781" gradientUnits="userSpaceOnUse">
		<stop  offset="0" style="stop-color:#333333"/>
		<stop  offset="1" style="stop-color:#000000"/>
	</radialGradient>
	<polygon fill="url(#SVGID_2_)" points="110.789,16.109 112.303,19.178 115.688,19.669 113.239,22.058 113.817,25.429 
		110.789,23.837 107.76,25.429 108.339,22.058 105.89,19.669 109.275,19.178 	"/>
</g>
</svg>
